<?xml version="1.0" encoding="UTF-8"?>
<svg version="1.1" xmlns="http://www.w3.org/2000/svg" width="1965" height="576">
<path d="M0 0 C0.33 80.85 0.66 161.7 1 245 C5.95 239.72 10.9 234.44 16 229 C19.37791207 225.56049215 22.76171964 222.1401312 26.1875 218.75 C27.05971191 217.88157471 27.93192383 217.01314941 28.83056641 216.1184082 C31.55120337 213.40973598 34.27514553 210.704429 37 208 C40.62796996 204.39880473 44.25246873 200.79416519 47.875 197.1875 C48.68864014 196.3821582 49.50228027 195.57681641 50.34057617 194.74707031 C53.82698651 191.27557938 57.23531672 187.79193601 60.44140625 184.05859375 C64.72780643 179.07811699 69.3970565 174.49763364 74.0625 169.875 C75.02251375 168.9194063 75.98222453 167.96350816 76.94165039 167.00732422 C80.46770473 163.49449408 83.9992429 159.98719427 87.53063965 156.47973633 C90.52691208 153.50334483 93.52102231 150.52480843 96.51242065 147.54351807 C97.8988534 146.16346867 99.28837298 144.78652256 100.67797852 143.40966797 C105.02382101 139.08056066 109.19155416 134.69027056 113.18701172 130.0378418 C116.88708614 125.87887045 120.89045198 122.00987363 124.84375 118.09375 C126.2619165 116.68137068 127.68008007 115.26898839 129.09807587 113.85643768 C132.06066445 110.90687976 135.02784021 107.96193688 137.99420166 105.01617432 C140.44581031 102.58122894 142.89637331 100.14525184 145.34436035 97.70666504 C147.17068429 95.88779387 148.99925361 94.07117348 150.83044434 92.25720215 C154.50092041 88.60119831 158.11023086 84.94489923 161.48632812 81.01367188 C165.75488284 76.04584234 170.41218508 71.48264388 175.0625 66.875 C176.02251375 65.9194063 176.98222453 64.96350816 177.94165039 64.00732422 C181.46770473 60.49449408 184.9992429 56.98719427 188.53063965 53.47973633 C191.52691208 50.50334483 194.52102231 47.52480843 197.51242065 44.54351807 C198.8988534 43.16346867 200.28837298 41.78652256 201.67797852 40.40966797 C206.09694371 36.00771955 210.35479978 31.54637419 214.41757202 26.81396484 C216.86041225 24.0136944 219.45815031 21.37966936 222.08203125 18.75 C222.62228439 18.20641846 223.16253754 17.66283691 223.71916199 17.1027832 C224.84460043 15.97234109 225.97134095 14.84319384 227.09936523 13.71533203 C228.83150876 11.98096686 230.5554531 10.23870409 232.27929688 8.49609375 C233.37972022 7.39274213 234.48061416 6.28985961 235.58203125 5.1875 C236.09659378 4.66575195 236.61115631 4.14400391 237.14131165 3.60644531 C240.77113122 0 240.77113122 0 243 0 C243 163.35 243 326.7 243 495 C2.76 495 -237.48 495 -485 495 C-483.2638358 491.52767161 -482.14349411 489.90096046 -479.48754883 487.27636719 C-478.76952591 486.56172302 -478.05150299 485.84707886 -477.3117218 485.11077881 C-476.14614998 483.96539642 -476.14614998 483.96539642 -474.95703125 482.796875 C-474.1552092 482.00025452 -473.35338715 481.20363403 -472.52726746 480.38287354 C-469.96037582 477.8337925 -467.38692442 475.2914714 -464.8125 472.75 C-462.25675608 470.22200181 -459.7025261 467.69252167 -457.15129089 465.15997314 C-455.5646798 463.58547555 -453.97540406 462.01365686 -452.38301086 460.44500732 C-448.99361853 457.08578168 -445.69415214 453.70818384 -442.5847168 450.08691406 C-438.28871345 445.0975125 -433.61221901 440.50682404 -428.9375 435.875 C-427.97748625 434.9194063 -427.01777547 433.96350816 -426.05834961 433.00732422 C-422.53229527 429.49449408 -419.0007571 425.98719427 -415.46936035 422.47973633 C-412.47308792 419.50334483 -409.47897769 416.52480843 -406.48757935 413.54351807 C-405.1011466 412.16346867 -403.71162702 410.78652256 -402.32202148 409.40966797 C-398.59646656 405.6984596 -394.9269996 401.99041733 -391.5 398 C-387.23689003 393.03601111 -382.58320904 388.47808026 -377.9375 383.875 C-376.97748625 382.9194063 -376.01777547 381.96350816 -375.05834961 381.00732422 C-371.53229527 377.49449408 -368.0007571 373.98719427 -364.46936035 370.47973633 C-361.47308792 367.50334483 -358.47897769 364.52480843 -355.48757935 361.54351807 C-354.1011466 360.16346867 -352.71162702 358.78652256 -351.32202148 357.40966797 C-346.97617899 353.08056066 -342.80844584 348.69027056 -338.81298828 344.0378418 C-335.11291386 339.87887045 -331.10954802 336.00987363 -327.15625 332.09375 C-325.7380835 330.68137068 -324.31991993 329.26898839 -322.90192413 327.85643768 C-319.93933555 324.90687976 -316.97215979 321.96193688 -314.00579834 319.01617432 C-311.55418969 316.58122894 -309.10362669 314.14525184 -306.65563965 311.70666504 C-304.82931571 309.88779387 -303.00074639 308.07117348 -301.16955566 306.25720215 C-297.49907959 302.60119831 -293.88976914 298.94489923 -290.51367188 295.01367188 C-286.24511716 290.04584234 -281.58781492 285.48264388 -276.9375 280.875 C-275.97748625 279.9194063 -275.01777547 278.96350816 -274.05834961 278.00732422 C-270.53229527 274.49449408 -267.0007571 270.98719427 -263.46936035 267.47973633 C-260.47308792 264.50334483 -257.47897769 261.52480843 -254.48757935 258.54351807 C-253.1011466 257.16346867 -251.71162702 255.78652256 -250.32202148 254.40966797 C-246.59646656 250.6984596 -242.9269996 246.99041733 -239.5 243 C-235.23689003 238.03601111 -230.58320904 233.47808026 -225.9375 228.875 C-224.97748625 227.9194063 -224.01777547 226.96350816 -223.05834961 226.00732422 C-219.53229527 222.49449408 -216.0007571 218.98719427 -212.46936035 215.47973633 C-209.47308792 212.50334483 -206.47897769 209.52480843 -203.48757935 206.54351807 C-202.1011466 205.16346867 -200.71162702 203.78652256 -199.32202148 202.40966797 C-194.97617899 198.08056066 -190.80844584 193.69027056 -186.81298828 189.0378418 C-183.11291386 184.87887045 -179.10954802 181.00987363 -175.15625 177.09375 C-173.7380835 175.68137068 -172.31991993 174.26898839 -170.90192413 172.85643768 C-167.93933555 169.90687976 -164.97215979 166.96193688 -162.00579834 164.01617432 C-159.55418969 161.58122894 -157.10362669 159.14525184 -154.65563965 156.70666504 C-152.82931571 154.88779387 -151.00074639 153.07117348 -149.16955566 151.25720215 C-145.49907959 147.60119831 -141.88976914 143.94489923 -138.51367188 140.01367188 C-134.24511716 135.04584234 -129.58781492 130.48264388 -124.9375 125.875 C-123.97748625 124.9194063 -123.01777547 123.96350816 -122.05834961 123.00732422 C-118.53229527 119.49449408 -115.0007571 115.98719427 -111.46936035 112.47973633 C-108.47308792 109.50334483 -105.47897769 106.52480843 -102.48757935 103.54351807 C-101.1011466 102.16346867 -99.71162702 100.78652256 -98.32202148 99.40966797 C-94.59646656 95.6984596 -90.9269996 91.99041733 -87.5 88 C-83.23689003 83.03601111 -78.58320904 78.47808026 -73.9375 73.875 C-72.97748625 72.9194063 -72.01777547 71.96350816 -71.05834961 71.00732422 C-67.53229527 67.49449408 -64.0007571 63.98719427 -60.46936035 60.47973633 C-57.47308792 57.50334483 -54.47897769 54.52480843 -51.48757935 51.54351807 C-50.1011466 50.16346867 -48.71162702 48.78652256 -47.32202148 47.40966797 C-42.93373437 43.03827949 -38.71318037 38.60687722 -34.6786499 33.90795898 C-31.71337303 30.53761557 -28.52959945 27.38705011 -25.3515625 24.21875 C-24.65356537 23.51979614 -23.95556824 22.82084229 -23.23641968 22.10070801 C-21.7771672 20.64078074 -20.31667412 19.18209252 -18.85498047 17.72460938 C-16.60656917 15.48161356 -14.36362089 13.23325214 -12.12109375 10.984375 C-10.6982377 9.56217874 -9.27507202 8.14029218 -7.8515625 6.71875 C-7.17872223 6.0438855 -6.50588196 5.369021 -5.81265259 4.67370605 C-5.1946579 4.05886353 -4.57666321 3.444021 -3.93994141 2.81054688 C-3.12222763 1.99402649 -3.12222763 1.99402649 -2.28799438 1.16101074 C-1 0 -1 0 0 0 Z " fill="#4D5561" transform="translate(531,32)"/>
<path d="M0 0 C0.31988199 31.21074178 0.56739276 62.42104721 0.71491461 93.63304082 C0.73242297 97.32396676 0.75054363 101.01488945 0.76904297 104.70581055 C0.77271531 105.44055774 0.77638766 106.17530493 0.78017129 106.93231719 C0.84096966 118.80493338 0.95128402 130.67659347 1.08013915 142.54864383 C1.21140159 154.74488039 1.28889366 166.9406188 1.31723893 179.13753265 C1.33638076 186.65480926 1.39665837 194.16938315 1.51083054 201.68582689 C1.59410361 207.46503504 1.60228931 213.24254027 1.58350754 219.02222824 C1.58733922 221.38171769 1.61492613 223.74131543 1.66887665 226.10019112 C2.09571897 245.73671112 2.09571897 245.73671112 -4.86360967 253.74987739 C-7.23322272 256.15902948 -9.69021775 258.39758406 -12.28998357 260.55531496 C-14.78268725 262.6612431 -16.98713996 264.98218753 -19.24194336 267.33959961 C-20.85540068 268.94637152 -22.47138058 270.55061423 -24.08984375 272.15234375 C-25.40028404 273.45710411 -25.40028404 273.45710411 -26.73719788 274.78822327 C-29.46813475 277.50717424 -32.20236581 280.22277182 -34.9375 282.9375 C-38.57458172 286.5478127 -42.20819972 290.16156221 -45.83984375 293.77734375 C-47.06500954 294.99006203 -47.06500954 294.99006203 -48.31492615 296.22727966 C-51.81057291 299.70802979 -55.22899014 303.200326 -58.44360352 306.94360352 C-62.72913238 311.92346068 -67.39779631 316.50309939 -72.0625 321.125 C-73.02251375 322.0805937 -73.98222453 323.03649184 -74.94165039 323.99267578 C-78.46770473 327.50550592 -81.9992429 331.01280573 -85.53063965 334.52026367 C-88.52691208 337.49665517 -91.52102231 340.47519157 -94.51242065 343.45648193 C-95.8988534 344.83653133 -97.28837298 346.21347744 -98.67797852 347.59033203 C-103.02382101 351.91943934 -107.19155416 356.30972944 -111.18701172 360.9621582 C-114.88708614 365.12112955 -118.89045198 368.99012637 -122.84375 372.90625 C-124.2619165 374.31862932 -125.68008007 375.73101161 -127.09807587 377.14356232 C-130.06066445 380.09312024 -133.02784021 383.03806312 -135.99420166 385.98382568 C-138.44581031 388.41877106 -140.89637331 390.85474816 -143.34436035 393.29333496 C-145.17068429 395.11220613 -146.99925361 396.92882652 -148.83044434 398.74279785 C-152.50092041 402.39880169 -156.11023086 406.05510077 -159.48632812 409.98632812 C-163.75488284 414.95415766 -168.41218508 419.51735612 -173.0625 424.125 C-174.02251375 425.0805937 -174.98222453 426.03649184 -175.94165039 426.99267578 C-179.46770473 430.50550592 -182.9992429 434.01280573 -186.53063965 437.52026367 C-189.52691208 440.49665517 -192.52102231 443.47519157 -195.51242065 446.45648193 C-196.8988534 447.83653133 -198.28837298 449.21347744 -199.67797852 450.59033203 C-204.08915217 454.98451892 -208.33307804 459.43976164 -212.38848877 464.16363525 C-214.97855536 467.1150928 -217.75823215 469.86282329 -220.5546875 472.6171875 C-221.43521286 473.49203293 -221.43521286 473.49203293 -222.33352661 474.384552 C-224.17822821 476.21719813 -226.02618631 478.04650295 -227.875 479.875 C-230.33359071 482.30703186 -232.78886303 484.74234477 -235.2421875 487.1796875 C-235.80565887 487.73486053 -236.36913025 488.29003357 -236.94967651 488.86203003 C-239.83413106 491.65723675 -239.83413106 491.65723675 -242 495 C-322.19 495 -402.38 495 -485 495 C-483.2638358 491.52767161 -482.14349411 489.90096046 -479.48754883 487.27636719 C-478.76952591 486.56172302 -478.05150299 485.84707886 -477.3117218 485.11077881 C-476.14614998 483.96539642 -476.14614998 483.96539642 -474.95703125 482.796875 C-474.1552092 482.00025452 -473.35338715 481.20363403 -472.52726746 480.38287354 C-469.96037582 477.8337925 -467.38692442 475.2914714 -464.8125 472.75 C-462.25675608 470.22200181 -459.7025261 467.69252167 -457.15129089 465.15997314 C-455.5646798 463.58547555 -453.97540406 462.01365686 -452.38301086 460.44500732 C-448.99361853 457.08578168 -445.69415214 453.70818384 -442.5847168 450.08691406 C-438.28871345 445.0975125 -433.61221901 440.50682404 -428.9375 435.875 C-427.97748625 434.9194063 -427.01777547 433.96350816 -426.05834961 433.00732422 C-422.53229527 429.49449408 -419.0007571 425.98719427 -415.46936035 422.47973633 C-412.47308792 419.50334483 -409.47897769 416.52480843 -406.48757935 413.54351807 C-405.1011466 412.16346867 -403.71162702 410.78652256 -402.32202148 409.40966797 C-398.59646656 405.6984596 -394.9269996 401.99041733 -391.5 398 C-387.23689003 393.03601111 -382.58320904 388.47808026 -377.9375 383.875 C-376.97748625 382.9194063 -376.01777547 381.96350816 -375.05834961 381.00732422 C-371.53229527 377.49449408 -368.0007571 373.98719427 -364.46936035 370.47973633 C-361.47308792 367.50334483 -358.47897769 364.52480843 -355.48757935 361.54351807 C-354.1011466 360.16346867 -352.71162702 358.78652256 -351.32202148 357.40966797 C-346.97617899 353.08056066 -342.80844584 348.69027056 -338.81298828 344.0378418 C-335.11291386 339.87887045 -331.10954802 336.00987363 -327.15625 332.09375 C-325.7380835 330.68137068 -324.31991993 329.26898839 -322.90192413 327.85643768 C-319.93933555 324.90687976 -316.97215979 321.96193688 -314.00579834 319.01617432 C-311.55418969 316.58122894 -309.10362669 314.14525184 -306.65563965 311.70666504 C-304.82931571 309.88779387 -303.00074639 308.07117348 -301.16955566 306.25720215 C-297.49907959 302.60119831 -293.88976914 298.94489923 -290.51367188 295.01367188 C-286.24511716 290.04584234 -281.58781492 285.48264388 -276.9375 280.875 C-275.97748625 279.9194063 -275.01777547 278.96350816 -274.05834961 278.00732422 C-270.53229527 274.49449408 -267.0007571 270.98719427 -263.46936035 267.47973633 C-260.47308792 264.50334483 -257.47897769 261.52480843 -254.48757935 258.54351807 C-253.1011466 257.16346867 -251.71162702 255.78652256 -250.32202148 254.40966797 C-246.59646656 250.6984596 -242.9269996 246.99041733 -239.5 243 C-235.23689003 238.03601111 -230.58320904 233.47808026 -225.9375 228.875 C-224.97748625 227.9194063 -224.01777547 226.96350816 -223.05834961 226.00732422 C-219.53229527 222.49449408 -216.0007571 218.98719427 -212.46936035 215.47973633 C-209.47308792 212.50334483 -206.47897769 209.52480843 -203.48757935 206.54351807 C-202.1011466 205.16346867 -200.71162702 203.78652256 -199.32202148 202.40966797 C-194.97617899 198.08056066 -190.80844584 193.69027056 -186.81298828 189.0378418 C-183.11291386 184.87887045 -179.10954802 181.00987363 -175.15625 177.09375 C-173.7380835 175.68137068 -172.31991993 174.26898839 -170.90192413 172.85643768 C-167.93933555 169.90687976 -164.97215979 166.96193688 -162.00579834 164.01617432 C-159.55418969 161.58122894 -157.10362669 159.14525184 -154.65563965 156.70666504 C-152.82931571 154.88779387 -151.00074639 153.07117348 -149.16955566 151.25720215 C-145.49907959 147.60119831 -141.88976914 143.94489923 -138.51367188 140.01367188 C-134.24511716 135.04584234 -129.58781492 130.48264388 -124.9375 125.875 C-123.97748625 124.9194063 -123.01777547 123.96350816 -122.05834961 123.00732422 C-118.53229527 119.49449408 -115.0007571 115.98719427 -111.46936035 112.47973633 C-108.47308792 109.50334483 -105.47897769 106.52480843 -102.48757935 103.54351807 C-101.1011466 102.16346867 -99.71162702 100.78652256 -98.32202148 99.40966797 C-94.59646656 95.6984596 -90.9269996 91.99041733 -87.5 88 C-83.23689003 83.03601111 -78.58320904 78.47808026 -73.9375 73.875 C-72.97748625 72.9194063 -72.01777547 71.96350816 -71.05834961 71.00732422 C-67.53229527 67.49449408 -64.0007571 63.98719427 -60.46936035 60.47973633 C-57.47308792 57.50334483 -54.47897769 54.52480843 -51.48757935 51.54351807 C-50.1011466 50.16346867 -48.71162702 48.78652256 -47.32202148 47.40966797 C-42.93373437 43.03827949 -38.71318037 38.60687722 -34.6786499 33.90795898 C-31.71337303 30.53761557 -28.52959945 27.38705011 -25.3515625 24.21875 C-24.65356537 23.51979614 -23.95556824 22.82084229 -23.23641968 22.10070801 C-21.7771672 20.64078074 -20.31667412 19.18209252 -18.85498047 17.72460938 C-16.60656917 15.48161356 -14.36362089 13.23325214 -12.12109375 10.984375 C-10.6982377 9.56217874 -9.27507202 8.14029218 -7.8515625 6.71875 C-7.17872223 6.0438855 -6.50588196 5.369021 -5.81265259 4.67370605 C-5.1946579 4.05886353 -4.57666321 3.444021 -3.93994141 2.81054688 C-3.12222763 1.99402649 -3.12222763 1.99402649 -2.28799438 1.16101074 C-1 0 -1 0 0 0 Z " fill="#E87F12" transform="translate(531,32)"/>
<path d="M0 0 C26.73 0 53.46 0 81 0 C82.94349182 5.18264486 84.62032763 9.93405767 86.01098633 15.22607422 C86.19110354 15.90670142 86.37122076 16.58732862 86.55679607 17.28858089 C87.15239897 19.54295243 87.74216948 21.79880763 88.33203125 24.0546875 C88.76078805 25.68147698 89.18995762 27.30815773 89.61950684 28.93473816 C90.54010743 32.42345277 91.45832249 35.9127828 92.37466431 39.40261841 C94.57018114 47.76275844 96.77933305 56.11930008 98.98729515 64.47616005 C99.75601771 67.38606051 100.5242958 70.2960781 101.29255676 73.20610046 C106.43535053 92.67909703 111.630016 112.13811614 116.84603882 131.59161377 C117.82413218 135.2395317 118.80100568 138.88777269 119.77676392 142.53631592 C120.92372659 146.8248663 122.07279646 151.11284602 123.22364807 155.40035439 C123.64638048 156.97646563 124.06841058 158.55276544 124.48970032 160.12926292 C125.06312325 162.27430816 125.6392229 164.41861613 126.21606445 166.56274414 C126.69944023 168.36564659 126.69944023 168.36564659 127.19258118 170.20497131 C127.88658142 172.9243432 127.88658142 172.9243432 129 175 C140.77220476 130.40231213 152.53844417 85.803082 164.24814224 41.18893433 C164.93793695 38.56083523 165.62782303 35.93276014 166.31771851 33.3046875 C167.39697971 29.19316397 168.47592938 25.08155882 169.55458832 20.96987724 C169.94825659 19.46932755 170.34198769 17.96879434 170.73578644 16.46827888 C171.27062615 14.43016748 171.80516156 12.39197653 172.33959961 10.35375977 C172.63805283 9.21592545 172.93650604 8.07809113 173.2440033 6.90577698 C173.8420453 4.60712056 174.42393446 2.30426215 175 0 C202.06 0 229.12 0 257 0 C257 87.45 257 174.9 257 265 C240.17 265 223.34 265 206 265 C205.67 199.99 205.34 134.98 205 68 C192.42949203 117.6535065 179.86821117 167.30904894 167.36694336 216.97998047 C165.78877394 223.25043684 164.20941372 229.52059263 162.62938499 235.79058075 C162.04086259 238.12692379 161.4527616 240.46337302 160.86510658 242.79993439 C160.06385562 245.98569949 159.26122113 249.17111292 158.45825195 252.35644531 C158.22209671 253.29688187 157.98594147 254.23731842 157.74263 255.20625305 C157.52614807 256.06383713 157.30966614 256.9214212 157.08662415 257.80499268 C156.89966634 258.54767017 156.71270853 259.29034767 156.52008533 260.05553055 C156.07455377 261.72126203 155.54526688 263.36419935 155 265 C137.51 265 120.02 265 102 265 C99.66511894 255.81289162 97.33144229 246.62548123 95 237.4375 C94.81360207 236.7029295 94.62720413 235.96835899 94.43515778 235.21152878 C88.16089156 210.48261766 81.91495026 185.74658193 75.6796875 161.0078125 C75.51411929 160.35092359 75.34855107 159.69403468 75.17796564 159.01724005 C67.44744645 128.34596855 59.72496854 97.67266922 52 67 C51.67 132.34 51.34 197.68 51 265 C34.17 265 17.34 265 0 265 C0 177.55 0 90.1 0 0 Z " fill="#373E4D" transform="translate(1376,32)"/>
<path d="M0 0 C17.49 0 34.98 0 53 0 C59.89743072 10.92093198 66.77291916 21.81728113 73.4375 32.875 C74.89968676 35.29378998 76.36361544 37.71152207 77.828125 40.12890625 C78.18529099 40.71860703 78.54245697 41.3083078 78.91044617 41.9158783 C82.13595156 47.235676 85.40408944 52.52830868 88.6875 57.8125 C93.69201289 65.86792141 98.63653076 73.95813682 103.55932617 82.0637207 C108.0132796 89.39210268 112.50036835 96.69958826 117 104 C122.08822809 112.25537799 127.15339084 120.52401013 132.1875 128.8125 C136.74261135 136.30925192 141.32213216 143.79017619 145.9375 151.25 C146.44498779 152.07089111 146.95247559 152.89178223 147.4753418 153.73754883 C151.26866784 159.85748133 155.13365542 165.92431566 159 172 C159.33 115.24 159.66 58.48 160 0 C176.5 0 193 0 210 0 C210 87.45 210 174.9 210 265 C192.18 265 174.36 265 156 265 C148.13324516 253.76177881 148.13324516 253.76177881 145.125 248.7421875 C144.45782959 247.63472168 143.79065918 246.52725586 143.10327148 245.38623047 C142.76077362 244.81434998 142.41827576 244.24246948 142.06539917 243.65325928 C140.20945326 240.5554973 138.34088393 237.46536545 136.47265625 234.375 C136.09512711 233.75011688 135.71759796 233.12523376 135.32862854 232.48141479 C131.75548643 226.57666523 128.10756105 220.71996646 124.4375 214.875 C118.52271386 205.45110941 112.67079348 195.99037086 106.84619141 186.51049805 C102.67955245 179.72914808 98.5037712 172.95365488 94.3125 166.1875 C93.52202271 164.91132813 93.52202271 164.91132813 92.71557617 163.609375 C91.14399846 161.07274239 89.572071 158.53632692 88 156 C78.30153291 140.35281668 68.64320582 124.68129078 59 109 C55.04 102.565 55.04 102.565 51 96 C50.67 151.77 50.34 207.54 50 265 C33.5 265 17 265 0 265 C0 177.55 0 90.1 0 0 Z " fill="#373E4D" transform="translate(865,32)"/>
<path d="M0 0 C0.33 0 0.66 0 1 0 C1 81.84 1 163.68 1 248 C-78.86 248 -158.72 248 -241 248 C-239.36619965 244.7323993 -238.49226042 243.24623204 -236.03833008 240.82714844 C-235.44043167 240.23262878 -234.84253326 239.63810913 -234.22651672 239.02557373 C-233.58071152 238.39322815 -232.93490631 237.76088257 -232.26953125 237.109375 C-231.60088547 236.44593079 -230.93223969 235.78248657 -230.24333191 235.09893799 C-228.10441918 232.97781594 -225.9589638 230.86347832 -223.8125 228.75 C-221.68471241 226.65000293 -219.55846171 224.54850868 -217.43522644 222.44390869 C-216.11572591 221.13647456 -214.79356395 219.83171857 -213.46821594 218.5302124 C-210.40908079 215.50363432 -207.47042981 212.43453711 -204.66674805 209.16894531 C-200.33837856 204.15630916 -195.6398188 199.53417058 -190.9375 194.875 C-189.97748625 193.9194063 -189.01777547 192.96350816 -188.05834961 192.00732422 C-184.53229527 188.49449408 -181.0007571 184.98719427 -177.46936035 181.47973633 C-174.47308792 178.50334483 -171.47897769 175.52480843 -168.48757935 172.54351807 C-167.1011466 171.16346867 -165.71162702 169.78652256 -164.32202148 168.40966797 C-159.97617899 164.08056066 -155.80844584 159.69027056 -151.81298828 155.0378418 C-148.11291386 150.87887045 -144.10954802 147.00987363 -140.15625 143.09375 C-138.7380835 141.68137068 -137.31991993 140.26898839 -135.90192413 138.85643768 C-132.93933555 135.90687976 -129.97215979 132.96193688 -127.00579834 130.01617432 C-124.55418969 127.58122894 -122.10362669 125.14525184 -119.65563965 122.70666504 C-117.82931571 120.88779387 -116.00074639 119.07117348 -114.16955566 117.25720215 C-110.49907959 113.60119831 -106.88976914 109.94489923 -103.51367188 106.01367188 C-99.24511716 101.04584234 -94.58781492 96.48264388 -89.9375 91.875 C-88.97748625 90.9194063 -88.01777547 89.96350816 -87.05834961 89.00732422 C-83.53229527 85.49449408 -80.0007571 81.98719427 -76.46936035 78.47973633 C-73.47308792 75.50334483 -70.47897769 72.52480843 -67.48757935 69.54351807 C-66.1011466 68.16346867 -64.71162702 66.78652256 -63.32202148 65.40966797 C-59.59792575 61.69991317 -55.92973333 57.9935257 -52.50439453 54.00439453 C-48.21848235 49.01382893 -43.53759009 44.43253 -38.8671875 39.8046875 C-37.90238319 38.84430184 -36.93788095 37.88361263 -35.97366333 36.92263794 C-32.94361232 33.9039002 -29.90961121 30.88915261 -26.875 27.875 C-23.3467362 24.37046266 -19.82017957 20.86424084 -16.29782486 17.35376358 C-14.8990969 15.96145056 -13.49729731 14.57222549 -12.09542847 13.18307495 C-7.83140011 8.93546383 -3.8081632 4.65675766 0 0 Z " fill="#645C5C" transform="translate(530,279)"/>
<path d="M0 0 C159.16230366 0 159.16230366 0 182.33203125 22.23828125 C198.07570376 38.62564736 203.41281496 59.02514762 203.3125 81.25 C203.30512817 83.17380493 203.30512817 83.17380493 203.29760742 85.13647461 C203.01042113 108.32492677 195.64940982 127.52048212 179 144 C153.52778093 167.62499707 118.12884644 165.30479602 85.8125 165.125 C75.314375 165.08375 64.81625 165.0425 54 165 C54 198 54 231 54 265 C36.18 265 18.36 265 0 265 C0 177.55 0 90.1 0 0 Z M54 46 C54 70.42 54 94.84 54 120 C97.16984742 123.08941669 97.16984742 123.08941669 137.8125 107.8125 C145.85400316 99.14364553 147.49052536 89.41005274 147.2734375 78.0546875 C146.77845531 67.46402888 141.02392307 60.75950606 133.625 53.75 C122.52110178 46.34740118 110.46656931 45.69134767 97.45703125 45.8046875 C95.7928717 45.80770874 95.7928717 45.80770874 94.09509277 45.81079102 C90.00085236 45.82115512 85.90667146 45.84907663 81.8125 45.875 C72.634375 45.91625 63.45625 45.9575 54 46 Z " fill="#373E4D" transform="translate(1131,32)"/>
<path d="M0 0 C4.95 0 9.9 0 15 0 C19.04975506 7.80969713 22.54829276 15.77616065 25.93139648 23.88916016 C26.82335631 26.02600821 27.72288731 28.1595638 28.62304688 30.29296875 C29.19315821 31.6534574 29.7628362 33.01412775 30.33203125 34.375 C30.60070511 35.01139404 30.86937897 35.64778809 31.14619446 36.3034668 C33 40.77006639 33 40.77006639 33 43 C33.66 43 34.32 43 35 43 C35.52207031 41.2984375 35.52207031 41.2984375 36.0546875 39.5625 C38.36139318 32.64509354 41.29015727 25.97775338 44.15283203 19.27685547 C45.13377701 16.9794439 46.10825389 14.67936375 47.08203125 12.37890625 C47.70274829 10.9191106 48.32382858 9.45946933 48.9453125 8 C49.23697296 7.31156006 49.52863342 6.62312012 49.82913208 5.91381836 C51.8845277 1.1154723 51.8845277 1.1154723 53 0 C57.95 0 62.9 0 68 0 C68 20.46 68 40.92 68 62 C63.71 62 59.42 62 55 62 C54.505 44.675 54.505 44.675 54 27 C53.00097656 29.44277344 52.00195312 31.88554687 50.97265625 34.40234375 C50.00686977 36.75895579 49.0402208 39.11521227 48.07348633 41.47143555 C47.40038132 43.11331764 46.72817821 44.75556976 46.05688477 46.39819336 C45.09366082 48.7547154 44.12723603 51.10990193 43.16015625 53.46484375 C42.85908463 54.20339096 42.558013 54.94193817 42.24781799 55.7028656 C40.11387171 60.88612829 40.11387171 60.88612829 39 62 C35.66672158 62.1424478 32.33546107 62.04222103 29 62 C25.15764675 54.61316638 21.84587127 47.07576592 18.6875 39.375 C17.140625 35.62125 15.59375 31.8675 14 28 C13.67 39.22 13.34 50.44 13 62 C8.71 62 4.42 62 0 62 C0 41.54 0 21.08 0 0 Z " fill="#E98012" transform="translate(865,465)"/>
<path d="M0 0 C4.29 0 8.58 0 13 0 C13.33 1.32 13.66 2.64 14 4 C14.886875 3.34 15.77375 2.68 16.6875 2 C22.10487184 -1.08305715 27.96414867 -0.75169049 34 0 C38.53895427 1.44710051 41.74075972 3.55310649 45 7 C45.47050781 6.57847656 45.94101563 6.15695312 46.42578125 5.72265625 C47.04839844 5.17480469 47.67101563 4.62695312 48.3125 4.0625 C48.92738281 3.51722656 49.54226563 2.97195313 50.17578125 2.41015625 C55.1230836 -1.41420381 62.09183914 -0.48943344 68 0 C73.62435796 1.48432976 76.89625183 4.45542645 80.08984375 9.21875 C82.35411048 13.65010463 82.1314266 18.17274239 82.09765625 23.046875 C82.0962413 23.81807678 82.09482635 24.58927856 82.09336853 25.3838501 C82.08778534 27.83927338 82.07523595 30.29460442 82.0625 32.75 C82.05748283 34.41796743 82.0529203 36.08593629 82.04882812 37.75390625 C82.03782141 41.83597287 82.02056836 45.91797081 82 50 C77.71 50 73.42 50 69 50 C68.96261719 47.98777344 68.92523437 45.97554688 68.88671875 43.90234375 C68.83800704 41.93299881 68.78919177 39.96365502 68.73754883 37.99438477 C68.70449066 36.63577457 68.67640039 35.27703334 68.65356445 33.91821289 C68.71454584 23.4796024 68.71454584 23.4796024 65 14 C62.47935927 12.39164138 59.96861109 12.12199772 57 12 C53.96431877 12.67459583 52.56426248 13.42895573 50.39526367 15.62402344 C48.45254999 18.93224558 48.56409898 21.56941121 48.48828125 25.390625 C48.47033005 26.09523865 48.45237885 26.79985229 48.43388367 27.52581787 C48.37988142 29.76715179 48.34591912 32.00827405 48.3125 34.25 C48.27931782 35.77346689 48.24482731 37.29690589 48.20898438 38.8203125 C48.12170582 42.54690369 48.06155827 46.27254069 48 50 C43.38 50 38.76 50 34 50 C33.97421875 47.74800781 33.9484375 45.49601562 33.921875 43.17578125 C33.88341582 40.98465703 33.83826852 38.79376508 33.79248047 36.6027832 C33.7643283 35.08499315 33.7430851 33.56705807 33.72900391 32.04907227 C33.70749277 29.86138979 33.66080772 27.67544035 33.609375 25.48828125 C33.58842773 24.17384033 33.56748047 22.85939941 33.54589844 21.50512695 C32.9206283 17.49036697 31.87992842 15.81644895 29 13 C24.19021207 11.39673736 20.71402287 12.39723222 16 14 C13.68675585 21.44751775 13.56422293 28.74185986 13.375 36.5 C13.33632812 37.799375 13.29765625 39.09875 13.2578125 40.4375 C13.16406897 43.62477998 13.08096921 46.81236993 13 50 C8.71 50 4.42 50 0 50 C0 33.5 0 17 0 0 Z " fill="#E98012" transform="translate(1782,371)"/>
<path d="M0 0 C14 0 14 0 17.88427734 3.48828125 C18.91887824 5.06420402 19.90119729 6.67537071 20.8359375 8.3125 C21.37102936 9.15594971 21.90612122 9.99939941 22.45742798 10.8684082 C24.14509185 13.55218692 25.7592737 16.2724382 27.375 19 C28.51103141 20.83358319 29.65161579 22.6643538 30.796875 24.4921875 C33.59497637 28.96103925 36.2895187 33.47260267 39 38 C39.33 25.46 39.66 12.92 40 0 C44.62 0 49.24 0 54 0 C54 20.46 54 40.92 54 62 C49.38 62 44.76 62 40 62 C36.4901879 58.21798532 34.4735383 55.38054414 32 51 C30.85343994 49.24123271 29.67195286 47.50982718 28.48547363 45.77778625 C26.45489155 42.81298719 24.48366614 39.80883139 22.5 36.8125 C19.695 32.584375 16.89 28.35625 14 24 C13.67 36.54 13.34 49.08 13 62 C8.71 62 4.42 62 0 62 C0 41.54 0 21.08 0 0 Z " fill="#E98012" transform="translate(865,359)"/>
<path d="M0 0 C4.62 0 9.24 0 14 0 C14 21.78 14 43.56 14 66 C9.38 66 4.76 66 0 66 C-0.33 64.68 -0.66 63.36 -1 62 C-1.9075 62.639375 -2.815 63.27875 -3.75 63.9375 C-9.50570409 67.59015837 -15.43672097 67.77909642 -22.08203125 66.64453125 C-28.33205402 64.80773955 -32.4094885 60.28462608 -36 55 C-39.34709646 47.19735305 -39.60144095 35.89695023 -36.5 27.9375 C-33.37469235 22.1930965 -28.45460962 17.43475922 -22.125 15.5 C-13.72316311 14.01440998 -8.41382383 15.76352924 -1 20 C-0.67 13.4 -0.34 6.8 0 0 Z M-22.3125 32.125 C-24.60707162 36.03427016 -25.20738183 39.48545714 -25 44 C-23.5081215 48.16155582 -21.62500219 51.42434055 -18 54 C-13.33252063 55.38064752 -10.07565636 55.49798905 -5.625 53.4375 C-1.5024942 49.6094589 -0.18306623 46.64759603 0.4375 41.0625 C0.23337074 36.42965321 -1.23448194 33.71161634 -4 30 C-10.94838795 25.51249945 -16.33214461 26.62953829 -22.3125 32.125 Z " fill="#E98012" transform="translate(1098,461)"/>
<path d="M0 0 C4.62 0 9.24 0 14 0 C14 21.78 14 43.56 14 66 C9.38 66 4.76 66 0 66 C-0.33 64.68 -0.66 63.36 -1 62 C-1.928125 62.639375 -2.85625 63.27875 -3.8125 63.9375 C-9.40882657 67.55865249 -14.49701662 67.61550872 -21 67 C-27.57231244 65.21169315 -32.31251757 60.60098682 -36 55 C-39.19345114 47.41688861 -39.41837616 37.815174 -37.08984375 29.91015625 C-34.27008341 23.88076518 -30.77522776 19.81365286 -24.70703125 16.8984375 C-21.58392697 15.86190938 -18.97586043 15.66438156 -15.6875 15.625 C-14.61886719 15.59664063 -13.55023437 15.56828125 -12.44921875 15.5390625 C-9 16 -9 16 -1 20 C-0.67 13.4 -0.34 6.8 0 0 Z M-20 30 C-23.80243189 33.4021759 -24.81711919 36.70427132 -25.1640625 41.65234375 C-24.88163815 45.69370174 -23.38906396 48.7690754 -21 52 C-18.04914315 54.55209241 -16.38843913 54.95838152 -12.5 55.375 C-7.31593728 54.81956471 -5.10026021 53.24894402 -1.6875 49.375 C0.7788395 44.442321 0.9496657 40.26408278 -0.58984375 34.97265625 C-2.34552927 31.14574727 -4.41497143 29.44465314 -8.3125 27.875 C-13.04271765 26.61464596 -15.80257803 27.36632347 -20 30 Z " fill="#E98012" transform="translate(1603,355)"/>
<path d="M0 0 C2.1796875 1.1015625 2.1796875 1.1015625 5.3046875 3.1015625 C5.6346875 1.7815625 5.9646875 0.4615625 6.3046875 -0.8984375 C10.9246875 -0.8984375 15.5446875 -0.8984375 20.3046875 -0.8984375 C20.3046875 15.6015625 20.3046875 32.1015625 20.3046875 49.1015625 C15.6846875 49.1015625 11.0646875 49.1015625 6.3046875 49.1015625 C5.8096875 47.1215625 5.8096875 47.1215625 5.3046875 45.1015625 C4.3765625 45.7409375 3.4484375 46.3803125 2.4921875 47.0390625 C-3.09019886 50.65119485 -8.20451405 50.74087507 -14.6953125 50.1015625 C-21.15625819 48.10355577 -25.65300237 44.09208805 -29.4453125 38.5390625 C-33.17060949 31.27473338 -33.05962468 20.76492267 -30.7890625 13.00390625 C-24.9650469 0.62787311 -13.26547967 -4.42182656 0 0 Z M-13.6953125 13.1015625 C-17.49774439 16.5037384 -18.51243169 19.80583382 -18.859375 24.75390625 C-18.57695065 28.79526424 -17.08437646 31.8706379 -14.6953125 35.1015625 C-11.74445565 37.65365491 -10.08375163 38.05994402 -6.1953125 38.4765625 C-1.01124978 37.92112721 1.20442729 36.35050652 4.6171875 32.4765625 C7.083527 27.5438835 7.2543532 23.36564528 5.71484375 18.07421875 C3.95915823 14.24730977 1.88971607 12.54621564 -2.0078125 10.9765625 C-6.73803015 9.71620846 -9.49789053 10.46788597 -13.6953125 13.1015625 Z " fill="#E98012" transform="translate(1656.6953125,371.8984375)"/>
<path d="M0 0 C2.1796875 1.1015625 2.1796875 1.1015625 5.3046875 3.1015625 C5.6346875 1.7815625 5.9646875 0.4615625 6.3046875 -0.8984375 C10.9246875 -0.8984375 15.5446875 -0.8984375 20.3046875 -0.8984375 C20.3046875 15.6015625 20.3046875 32.1015625 20.3046875 49.1015625 C15.6846875 49.1015625 11.0646875 49.1015625 6.3046875 49.1015625 C5.8096875 47.1215625 5.8096875 47.1215625 5.3046875 45.1015625 C4.3765625 45.7409375 3.4484375 46.3803125 2.4921875 47.0390625 C-3.09744016 50.6558804 -8.19554103 50.82470461 -14.6953125 50.1015625 C-21.77478523 48.02828834 -25.82488505 44.51583059 -29.63671875 38.28515625 C-33.14918846 31.0398774 -33.03141299 20.66849219 -30.7890625 13.00390625 C-24.9650469 0.62787311 -13.26547967 -4.42182656 0 0 Z M-13.6953125 13.1015625 C-17.49774439 16.5037384 -18.51243169 19.80583382 -18.859375 24.75390625 C-18.57695065 28.79526424 -17.08437646 31.8706379 -14.6953125 35.1015625 C-11.74445565 37.65365491 -10.08375163 38.05994402 -6.1953125 38.4765625 C-1.01124978 37.92112721 1.20442729 36.35050652 4.6171875 32.4765625 C7.083527 27.5438835 7.2543532 23.36564528 5.71484375 18.07421875 C3.95915823 14.24730977 1.88971607 12.54621564 -2.0078125 10.9765625 C-6.73803015 9.71620846 -9.49789053 10.46788597 -13.6953125 13.1015625 Z " fill="#E98012" transform="translate(1903.6953125,371.8984375)"/>
<path d="M0 0 C1.90625 1.1015625 1.90625 1.1015625 4.53125 3.1015625 C4.86125 1.7815625 5.19125 0.4615625 5.53125 -0.8984375 C10.15125 -0.8984375 14.77125 -0.8984375 19.53125 -0.8984375 C19.53125 15.6015625 19.53125 32.1015625 19.53125 49.1015625 C14.91125 49.1015625 10.29125 49.1015625 5.53125 49.1015625 C5.03625 47.1215625 5.03625 47.1215625 4.53125 45.1015625 C3.603125 45.7409375 2.675 46.3803125 1.71875 47.0390625 C-3.87757657 50.66021499 -8.96576662 50.71707122 -15.46875 50.1015625 C-22.04106244 48.31325565 -26.78126757 43.70254932 -30.46875 38.1015625 C-33.66220114 30.51845111 -33.88712616 20.9167365 -31.55859375 13.01171875 C-28.74077805 6.98648582 -25.2522339 2.94748371 -19.2109375 0 C-13.33976442 -1.92360372 -5.83435663 -2.1232627 0 0 Z M-14.46875 13.1015625 C-17.97063724 16.32698496 -19.19165725 19.26860639 -19.5703125 24.046875 C-19.34261131 28.65344515 -17.36556254 32.06886928 -14.40625 35.4765625 C-10.78910762 38.51029482 -8.143558 38.41849864 -3.46875 38.1015625 C1.08604418 36.19490447 3.33738412 33.48929425 5.53125 29.1015625 C6.47428937 23.87198052 5.94664433 19.03875673 2.9921875 14.5546875 C-2.23495011 9.3555025 -8.43003585 9.31256538 -14.46875 13.1015625 Z " fill="#E98012" transform="translate(1537.46875,371.8984375)"/>
<path d="M0 0 C1.91796875 1.09375 1.91796875 1.09375 4.54296875 3.09375 C4.87296875 1.77375 5.20296875 0.45375 5.54296875 -0.90625 C10.16296875 -0.90625 14.78296875 -0.90625 19.54296875 -0.90625 C19.54296875 15.59375 19.54296875 32.09375 19.54296875 49.09375 C14.92296875 49.09375 10.30296875 49.09375 5.54296875 49.09375 C5.04796875 47.11375 5.04796875 47.11375 4.54296875 45.09375 C3.61484375 45.733125 2.68671875 46.3725 1.73046875 47.03125 C-3.86135422 50.64948839 -8.95801189 50.71694364 -15.45703125 50.09375 C-22.42420005 48.12011515 -26.86742827 43.44232858 -30.4921875 37.35546875 C-33.67843239 30.43464845 -33.71946909 21.61263007 -31.6953125 14.3671875 C-28.96869623 7.92245813 -25.48474696 2.80501238 -19 -0.17578125 C-12.99800064 -1.89985787 -5.9029575 -2.17724347 0 0 Z M-14.45703125 13.09375 C-17.8175562 16.62660956 -18.72474709 19.40229356 -18.89453125 24.15625 C-18.64503649 29.70335008 -17.0572186 32.40212338 -13.26953125 36.40625 C-10.27429591 38.20339121 -8.03039641 38.7847097 -4.5234375 38.625 C-0.68509218 37.63820423 1.95226431 34.99233526 4.54296875 32.09375 C6.51996361 28.13976028 5.96905936 23.40335219 5.54296875 19.09375 C3.70423967 14.97499685 1.94127594 13.04981674 -2.08203125 11.21875 C-6.99872479 9.57985215 -10.03953593 10.50621933 -14.45703125 13.09375 Z " fill="#E98012" transform="translate(1751.45703125,371.90625)"/>
<path d="M0 0 C1.91796875 1.09375 1.91796875 1.09375 4.54296875 3.09375 C4.87296875 1.77375 5.20296875 0.45375 5.54296875 -0.90625 C10.16296875 -0.90625 14.78296875 -0.90625 19.54296875 -0.90625 C19.54296875 15.59375 19.54296875 32.09375 19.54296875 49.09375 C14.92296875 49.09375 10.30296875 49.09375 5.54296875 49.09375 C5.04796875 47.11375 5.04796875 47.11375 4.54296875 45.09375 C3.61484375 45.733125 2.68671875 46.3725 1.73046875 47.03125 C-3.86135422 50.64948839 -8.95801189 50.71694364 -15.45703125 50.09375 C-22.42420005 48.12011515 -26.86742827 43.44232858 -30.4921875 37.35546875 C-33.86112185 30.03782995 -33.81552791 20.15899721 -31.26953125 12.59375 C-28.27885985 6.81866041 -24.94267391 2.49386018 -18.96484375 -0.2109375 C-12.95521015 -1.8771599 -5.89777826 -2.17533316 0 0 Z M-14.45703125 13.09375 C-17.93184195 16.65765841 -18.7831567 19.68948229 -19.08203125 24.53125 C-18.91456924 29.64581882 -17.52248672 32.25954617 -13.96484375 35.8515625 C-11.04742771 38.2550296 -8.38456281 38.54009141 -4.62890625 38.51953125 C-0.67945165 37.74526767 1.92538962 35.02240376 4.54296875 32.09375 C6.51996361 28.13976028 5.96905936 23.40335219 5.54296875 19.09375 C3.70423967 14.97499685 1.94127594 13.04981674 -2.08203125 11.21875 C-7.0036575 9.57820792 -10.03324366 10.5123862 -14.45703125 13.09375 Z " fill="#E98012" transform="translate(1150.45703125,371.90625)"/>
<path d="M0 0 C2.375 2 2.375 2 3.375 3 C3.705 1.35 4.035 -0.3 4.375 -2 C8.665 -2 12.955 -2 17.375 -2 C17.375 14.5 17.375 31 17.375 48 C13.085 48 8.795 48 4.375 48 C4.045 46.35 3.715 44.7 3.375 43 C2.653125 43.61875 1.93125 44.2375 1.1875 44.875 C-4.45555915 49.13864469 -9.67157696 49.95874483 -16.625 49 C-24.00973553 46.66854899 -28.88939954 42.76587776 -32.625 36 C-35.87998993 28.30638744 -35.82312777 19.33905751 -32.875 11.5625 C-29.74275227 4.74140302 -26.29761331 1.27777496 -19.625 -2 C-13.29204724 -3.65072047 -5.60406835 -3.73152251 0 0 Z M-16.625 12 C-19.88831306 15.52094303 -20.91314732 18.30393216 -21.125 23 C-20.92051484 27.68905622 -19.82896186 30.44966389 -16.625 34 C-13.49224599 36.77472498 -11.18769258 37.22233641 -7.125 37 C-2.57773415 36.29634655 -0.39222654 34.77349074 2.375 31 C4.68373133 26.277595 4.91325528 21.98196227 3.375 17 C1.47992729 13.67813509 -0.78824782 11.44898898 -4.1875 9.625 C-9.26928678 8.32197775 -12.29837032 9.29585645 -16.625 12 Z " fill="#E98012" transform="translate(975.625,479)"/>
<path d="M0 0 C2.05253403 1.16679321 3.89379428 2.45629428 5.5703125 4.1328125 C5.9003125 2.4828125 6.2303125 0.8328125 6.5703125 -0.8671875 C10.8603125 -0.8671875 15.1503125 -0.8671875 19.5703125 -0.8671875 C19.5703125 15.6328125 19.5703125 32.1328125 19.5703125 49.1328125 C15.2803125 49.1328125 10.9903125 49.1328125 6.5703125 49.1328125 C6.0753125 47.1528125 6.0753125 47.1528125 5.5703125 45.1328125 C4.6421875 45.7721875 3.7140625 46.4115625 2.7578125 47.0703125 C-2.84145423 50.69336744 -7.92353877 50.75037475 -14.4296875 50.1328125 C-20.84433662 48.41108919 -24.7269437 45.57802397 -28.4296875 40.1328125 C-33.00203642 32.1312019 -33.59547444 23.95611933 -31.3671875 15.0703125 C-29.24391142 8.64039153 -25.40916393 3.93880799 -19.6328125 0.4375 C-13.64793516 -2.00024272 -6.12553167 -2.18628301 0 0 Z M-15.8046875 15.1328125 C-18.95548684 19.01071938 -18.92048764 23.34296665 -18.4296875 28.1328125 C-16.64680188 33.28337097 -14.29956586 35.69787332 -9.4296875 38.1328125 C-5.16400736 38.74219538 -3.04050055 38.43821902 0.8203125 36.5078125 C4.92444138 32.96333756 6.36900319 30.01169939 6.9453125 24.6328125 C6.39511262 19.49761365 4.89301522 16.42070726 1.1953125 12.8203125 C-5.17235439 8.72681236 -10.09751274 10.32677059 -15.8046875 15.1328125 Z " fill="#E98012" transform="translate(1065.4296875,371.8671875)"/>
<path d="M0 0 C1.7634375 -0.01160156 1.7634375 -0.01160156 3.5625 -0.0234375 C8.27242663 0.52248581 11.64281478 2.01781478 15 5.375 C15.33 3.725 15.66 2.075 16 0.375 C20.29 0.375 24.58 0.375 29 0.375 C29 16.875 29 33.375 29 50.375 C24.71 50.375 20.42 50.375 16 50.375 C15.505 48.395 15.505 48.395 15 46.375 C14.071875 47.014375 13.14375 47.65375 12.1875 48.3125 C6.57900751 51.94152455 1.51411312 51.97670523 -5 51.375 C-11.20479333 49.85998825 -15.23999645 46.94064419 -18.78125 41.6484375 C-23.19900381 33.4076275 -24.14473937 25.36847222 -21.9375 16.375 C-19.82421586 9.90555941 -16.00802824 5.20505914 -10.20703125 1.67578125 C-6.58122329 0.20514294 -3.90138697 -0.02566702 0 0 Z M-4 14.375 C-7.98133861 18.67065481 -9.31804679 21.36881727 -9.2109375 27.28125 C-8.73264509 32.02874504 -6.78684196 34.69545467 -3.25 37.75 C0.61081305 39.68040652 2.73431986 39.98438288 7 39.375 C11.86953166 36.94023417 14.18709505 34.51156401 16 29.375 C16.56138108 24.13544321 15.85632372 20.80722647 13 16.375 C7.16599238 10.6945189 3.11202828 10.49571185 -4 14.375 Z " fill="#E98012" transform="translate(1254,370.625)"/>
<path d="M0 0 C5.34366741 3.35312168 9.37633745 8.05471239 11.875 13.8125 C12.61382305 18.65589558 12.4375 23.60057756 12.4375 28.5 C0.5575 28.5 -11.3225 28.5 -23.5625 28.5 C-20.4618954 35.16763385 -20.4618954 35.16763385 -17.25 37 C-13.68200203 37.66381358 -11.07928096 37.39518061 -7.5625 36.5 C-6.99144531 35.82710938 -6.42039062 35.15421875 -5.83203125 34.4609375 C-2.66035264 31.72051984 0.21139374 32.05457701 4.1875 32.25 C4.88488281 32.26804687 5.58226562 32.28609375 6.30078125 32.3046875 C8.01361539 32.35161446 9.72573824 32.42335395 11.4375 32.5 C8.35603631 40.35773241 5.05545349 44.69102325 -2.5625 48.5 C-10.20035372 50.91785307 -18.58018296 50.35233335 -25.6640625 46.6953125 C-31.21178164 43.20230415 -35.20180005 37.87947136 -37.15234375 31.6015625 C-38.78873949 23.21698244 -37.72602546 14.98042875 -33.5625 7.5 C-25.5263105 -1.84479656 -11.54636305 -5.13676781 0 0 Z M-22.5625 14.5 C-22.8925 15.82 -23.2225 17.14 -23.5625 18.5 C-16.3025 18.5 -9.0425 18.5 -1.5625 18.5 C-2.92146357 12.74932423 -2.92146357 12.74932423 -5.6875 10.625 C-13.03495647 7.74990834 -17.39596583 8.95542674 -22.5625 14.5 Z " fill="#E98012" transform="translate(1403.5625,372.5)"/>
<path d="M0 0 C34.91111111 0 34.91111111 0 41.875 6.8125 C45.54453054 12.31679582 46.5649752 17.25908563 45.59375 23.7265625 C44.34334171 28.51431002 42.17775419 32.44958241 38.1015625 35.3515625 C30.08486978 39.62098889 21.87740308 39.09058575 13 39 C13 46.59 13 54.18 13 62 C8.71 62 4.42 62 0 62 C0 41.54 0 21.08 0 0 Z M13 11 C13 16.61 13 22.22 13 28 C15.5678125 28.061875 15.5678125 28.061875 18.1875 28.125 C19.63189453 28.15980469 19.63189453 28.15980469 21.10546875 28.1953125 C25.04371317 27.92957401 27.88589333 26.96555911 30.875 24.375 C32.32423588 21.31550203 32.07656299 19.20858448 31.71484375 15.90234375 C30.68324524 13.15705153 29.59136392 12.36966054 27 11 C23.49345032 10.63747603 23.49345032 10.63747603 19.75 10.8125 C17.5225 10.874375 15.295 10.93625 13 11 Z " fill="#E98012" transform="translate(1316,359)"/>
<path d="M0 0 C4.95 0 9.9 0 15 0 C19.37335153 10.20448691 23.21292651 20.56644882 27 31 C30.02051984 24.43409307 32.66390309 17.77062585 35.1875 11 C35.88684685 9.12407506 36.58853951 7.24902237 37.29296875 5.375 C37.74965942 4.14910156 37.74965942 4.14910156 38.21557617 2.8984375 C39 1 39 1 40 0 C42.35313555 -0.07271741 44.70833668 -0.08370868 47.0625 -0.0625 C48.35285156 -0.05347656 49.64320312 -0.04445313 50.97265625 -0.03515625 C51.97167969 -0.02355469 52.97070312 -0.01195312 54 0 C51.2675532 8.837914 47.64081929 17.29361177 44.0625 25.8125 C43.39561236 27.40651713 42.72886582 29.00059329 42.06225586 30.59472656 C36.12805812 44.76697759 30.08927192 58.89375369 24 73 C19.05 73 14.1 73 9 73 C9.47050781 71.865625 9.94101563 70.73125 10.42578125 69.5625 C11.05475614 68.04169505 11.68365851 66.52086011 12.3125 65 C12.62123047 64.25621094 12.92996094 63.51242187 13.24804688 62.74609375 C13.55419922 62.00488281 13.86035156 61.26367188 14.17578125 60.5 C14.45333252 59.8296875 14.73088379 59.159375 15.0168457 58.46875 C15.34128662 57.6540625 15.66572754 56.839375 16 56 C16.29398682 55.42374374 16.58797363 54.84748749 16.89086914 54.25376892 C18.71697787 50.32518601 19.32666841 47.8240634 17.91943359 43.65454102 C17.27306632 42.09275027 16.59769723 40.54274244 15.8984375 39.00390625 C15.54617096 38.17092514 15.19390442 37.33794403 14.83096313 36.47972107 C13.70396246 33.82908015 12.54097562 31.19619628 11.375 28.5625 C10.23881733 25.92936887 9.11023016 23.293096 7.98330688 20.6559906 C7.2814596 19.02111427 6.57288998 17.38910048 5.85629272 15.76063538 C3.59357333 10.58523568 1.72047802 5.38109089 0 0 Z " fill="#E98012" transform="translate(1175,371)"/>
<path d="M0 0 C4.0762407 5.73775186 4.8760879 11.649276 4.73046875 18.4609375 C4.72622391 19.22647949 4.72197906 19.99202148 4.71760559 20.78076172 C4.70098328 23.19536437 4.66336506 25.60909261 4.625 28.0234375 C4.60993178 29.67316492 4.59624714 31.32290559 4.58398438 32.97265625 C4.55113417 36.9899137 4.49946973 41.00652802 4.4375 45.0234375 C0.1475 45.0234375 -4.1425 45.0234375 -8.5625 45.0234375 C-8.59988281 43.01121094 -8.63726563 40.99898437 -8.67578125 38.92578125 C-8.72449296 36.95643631 -8.77330823 34.98709252 -8.82495117 33.01782227 C-8.85800934 31.65921207 -8.88609961 30.30047084 -8.90893555 28.94165039 C-8.93754838 18.54200927 -8.93754838 18.54200927 -12.5625 9.0234375 C-15.65870041 6.56783028 -18.71209831 6.70257069 -22.5625 7.0234375 C-25.05567677 7.85449642 -26.18231816 8.45633435 -27.64599609 10.63964844 C-28.89010521 13.8755252 -28.91838501 16.99269831 -28.9765625 20.4140625 C-28.99592865 21.11867615 -29.0152948 21.82328979 -29.0352478 22.54925537 C-29.09482735 24.79052789 -29.14134123 27.03185239 -29.1875 29.2734375 C-29.22569979 30.79689688 -29.26475269 32.32033512 -29.3046875 33.84375 C-29.40211103 37.57019989 -29.48184735 41.29643611 -29.5625 45.0234375 C-34.1825 45.0234375 -38.8025 45.0234375 -43.5625 45.0234375 C-43.5625 28.5234375 -43.5625 12.0234375 -43.5625 -4.9765625 C-38.9425 -4.9765625 -34.3225 -4.9765625 -29.5625 -4.9765625 C-29.2325 -3.9865625 -28.9025 -2.9965625 -28.5625 -1.9765625 C-27.263125 -2.688125 -27.263125 -2.688125 -25.9375 -3.4140625 C-17.08941637 -7.51039751 -7.43151613 -6.42826146 0 0 Z " fill="#E98012" transform="translate(1047.5625,481.9765625)"/>
<path d="M0 0 C4.62 0 9.24 0 14 0 C14.00410889 0.97348389 14.00821777 1.94696777 14.01245117 2.94995117 C14.03428785 6.57532079 14.08862216 10.19961202 14.15258789 13.82446289 C14.17572882 15.39076369 14.19015448 16.95721922 14.19555664 18.52368164 C14.20487588 20.78108703 14.24592233 23.03607221 14.29296875 25.29296875 C14.2890361 25.98899704 14.28510345 26.68502533 14.28105164 27.40214539 C14.39669819 31.28963066 14.91433596 32.89571899 17.4152832 35.94018555 C20.63545538 38.50640758 22.10851336 38.74657003 26.06640625 38.4921875 C29.41987095 37.6385783 30.98027505 35.6929666 33 33 C34.22152258 29.48867337 34.20306564 25.95729068 34.31640625 22.265625 C34.37924805 20.32236328 34.37924805 20.32236328 34.44335938 18.33984375 C34.48316671 16.97656524 34.52287906 15.61328394 34.5625 14.25 C34.60572274 12.87108125 34.64933821 11.49217474 34.69335938 10.11328125 C34.79943899 6.74230694 34.90022365 3.37116677 35 0 C39.29 0 43.58 0 48 0 C48 16.5 48 33 48 50 C43.71 50 39.42 50 35 50 C34.505 48.02 34.505 48.02 34 46 C33.071875 46.639375 32.14375 47.27875 31.1875 47.9375 C25.60904077 51.54709127 20.28144361 51.84542999 13.84375 50.57421875 C8.52232092 48.9061554 4.72283157 45.89936255 2 41 C0.4111418 35.569822 -0.2813155 30.6699893 -0.1953125 25 C-0.1924826 24.2788501 -0.18965271 23.5577002 -0.18673706 22.81469727 C-0.17566696 20.54295253 -0.15058895 18.27162273 -0.125 16 C-0.1149531 14.44662033 -0.10583027 12.8932344 -0.09765625 11.33984375 C-0.07748426 7.55961282 -0.03831348 3.78026312 0 0 Z " fill="#E98012" transform="translate(929,371)"/>
<path d="M0 0 C3.67209475 1.99710416 6.4226484 4.71284729 8.53125 8.28125 C9.12502281 10.98341948 9.34306586 13.50553387 9.53125 16.28125 C7.42883397 16.41621251 5.3239539 16.51322307 3.21875 16.59375 C2.04699219 16.65175781 0.87523437 16.70976562 -0.33203125 16.76953125 C-1.88470703 16.52783203 -1.88470703 16.52783203 -3.46875 16.28125 C-5.203125 13.8203125 -5.203125 13.8203125 -6.46875 11.28125 C-9.77578161 10.22581438 -11.59596302 9.93672882 -14.84375 11.21875 C-15.38 11.569375 -15.91625 11.92 -16.46875 12.28125 C-16.30086981 14.24672857 -16.30086981 14.24672857 -15.46875 16.28125 C-13.56651286 17.38243213 -13.56651286 17.38243213 -11.171875 17.9921875 C-10.2953125 18.26804687 -9.41875 18.54390625 -8.515625 18.828125 C-6.66753168 19.37532582 -4.81858415 19.9196508 -2.96875 20.4609375 C2.9871918 22.34176123 6.16347917 23.928411 9.53125 29.28125 C11.02956609 33.60331564 10.86746158 37.29129369 9.40625 41.59375 C6.01027975 46.46130735 2.32570416 49.01700546 -3.46875 50.28125 C-12.22403782 50.98513068 -18.79811568 50.29121434 -26.28125 45.46875 C-28.83441179 42.91558821 -30.14233381 40.63219618 -31.46875 37.28125 C-31.46875 35.96125 -31.46875 34.64125 -31.46875 33.28125 C-26.84875 33.28125 -22.22875 33.28125 -17.46875 33.28125 C-16.80875 34.60125 -16.14875 35.92125 -15.46875 37.28125 C-13.18169169 38.42477916 -11.87610238 38.38459439 -9.34375 38.34375 C-7.425625 38.3128125 -7.425625 38.3128125 -5.46875 38.28125 C-3.89601432 35.4387646 -3.89601432 35.4387646 -3.46875 32.28125 C-4.21898437 32.11109375 -4.96921875 31.9409375 -5.7421875 31.765625 C-23.16609789 27.64006435 -23.16609789 27.64006435 -28.03125 22.65625 C-30.55776308 18.48201099 -30.97382891 15.12626626 -30.46875 10.28125 C-28.54867355 5.69440069 -25.3658709 3.20409067 -21.46875 0.28125 C-15.25977886 -1.78840705 -6.29125457 -1.83163108 0 0 Z " fill="#E98012" transform="translate(1488.46875,371.71875)"/>
<path d="M0 0 C3.49863378 2.1676318 5.48875428 4.65455873 7.3125 8.375 C8.0625 12.25 8.0625 12.25 8.3125 15.375 C6.21008397 15.50996251 4.1052039 15.60697307 2 15.6875 C0.82824219 15.74550781 -0.34351563 15.80351562 -1.55078125 15.86328125 C-3.10345703 15.62158203 -3.10345703 15.62158203 -4.6875 15.375 C-6.421875 12.9140625 -6.421875 12.9140625 -7.6875 10.375 C-10.99453161 9.31956438 -12.81471302 9.03047882 -16.0625 10.3125 C-16.59875 10.663125 -17.135 11.01375 -17.6875 11.375 C-17.48533488 13.34305611 -17.48533488 13.34305611 -16.6875 15.375 C-14.98161417 16.41151126 -14.98161417 16.41151126 -12.828125 16.9375 C-11.64863281 17.29714844 -11.64863281 17.29714844 -10.4453125 17.6640625 C-9.61773438 17.89867187 -8.79015625 18.13328125 -7.9375 18.375 C3.94950331 21.80902318 3.94950331 21.80902318 7.6015625 27.3203125 C9.39739883 32.51047683 8.99954777 37.76193131 6.875 42.75 C1.65154759 48.10085369 -3.79190396 49.6155054 -11.1875 49.875 C-18.48825984 49.61913225 -24.56686279 47.98862977 -29.6875 42.5625 C-31.89758999 39.04016907 -32.44035693 36.49405113 -32.6875 32.375 C-20.60311756 31.57881082 -20.60311756 31.57881082 -16.8125 34.875 C-16.11125 35.7 -15.41 36.525 -14.6875 37.375 C-11.22605822 37.72701103 -8.82621188 37.94435594 -5.6875 36.375 C-6.1825 33.9 -6.1825 33.9 -6.6875 31.375 C-7.23164551 31.2298999 -7.77579102 31.0847998 -8.33642578 30.93530273 C-10.83617776 30.25309315 -13.3236018 29.53325864 -15.8125 28.8125 C-16.6684375 28.58498047 -17.524375 28.35746094 -18.40625 28.12304688 C-24.51428342 26.31412929 -28.40334762 23.95495347 -31.6875 18.375 C-32.99208467 13.59853678 -32.17271441 9.46673243 -30.1875 5 C-22.55944956 -3.00945296 -10.14450889 -4.52981823 0 0 Z " fill="#E98012" transform="translate(1018.6875,372.625)"/>
<path d="M0 0 C4.29 0 8.58 0 13 0 C13 3.96 13 7.92 13 12 C16.63 12 20.26 12 24 12 C24 15.96 24 19.92 24 24 C20.37 24 16.74 24 13 24 C13.33 32.58 13.66 41.16 14 50 C17.3 50.33 20.6 50.66 24 51 C24 54.63 24 58.26 24 62 C21.62374823 62.10883596 19.25256024 62.18766696 16.875 62.25 C16.20984375 62.28351563 15.5446875 62.31703125 14.859375 62.3515625 C9.70653231 62.45259863 6.89745331 61.32130804 3 58 C0.01510098 53.9905462 -0.35838387 51.11771255 -0.29296875 46.16796875 C-0.28330078 44.87568359 -0.27363281 43.58339844 -0.26367188 42.25195312 C-0.23860985 40.8971293 -0.21321506 39.54231159 -0.1875 38.1875 C-0.17244013 36.81316555 -0.15875401 35.43881532 -0.14648438 34.06445312 C-0.11116628 30.70923368 -0.06183851 27.35481834 0 24 C-1.98 24 -3.96 24 -6 24 C-6 20.04 -6 16.08 -6 12 C-4.02 12 -2.04 12 0 12 C0 8.04 0 4.08 0 0 Z " fill="#E98012" transform="translate(1690,359)"/>
<path d="M0 0 C4.62 0 9.24 0 14 0 C14.06793397 7.96290611 14.12290675 15.92558471 14.15543652 23.88870335 C14.17105375 27.58680094 14.19221911 31.28468899 14.22631836 34.98266602 C14.25905369 38.55532309 14.27688264 42.12777933 14.28463173 45.70057487 C14.29014995 47.05966284 14.30092554 48.41874054 14.31719017 49.77774239 C14.48551087 64.43244867 14.48551087 64.43244867 9.578125 70.86328125 C4.739657 74.34841538 -2.26569741 74.24401288 -8 74 C-8 70.04 -8 66.08 -8 62 C-5.36 61.67 -2.72 61.34 0 61 C0 40.87 0 20.74 0 0 Z " fill="#E98012" transform="translate(1096,371)"/>
<path d="M0 0 C0 4.62 0 9.24 0 14 C-3.75976562 14.73242188 -3.75976562 14.73242188 -7.51953125 15.46484375 C-10.11397171 15.97741153 -10.11397171 15.97741153 -13 17 C-14.41560639 20.45128462 -14.2072395 24.27264604 -14.31640625 27.953125 C-14.33718735 28.61334656 -14.35796844 29.27356812 -14.37937927 29.95379639 C-14.44450147 32.05243015 -14.50358502 34.15118372 -14.5625 36.25 C-14.60572079 37.67709547 -14.6493362 39.10417905 -14.69335938 40.53125 C-14.80088351 44.02071259 -14.90023285 47.51027257 -15 51 C-19.62 51 -24.24 51 -29 51 C-29 34.5 -29 18 -29 1 C-24.38 1 -19.76 1 -15 1 C-14.67 2.32 -14.34 3.64 -14 5 C-12.948125 4.360625 -11.89625 3.72125 -10.8125 3.0625 C-7.24769435 1.02031376 -4.14169733 0 0 0 Z " fill="#E98012" transform="translate(1176,476)"/>
<path d="M0 0 C4.29 0 8.58 0 13 0 C13.33 1.65 13.66 3.3 14 5 C14.639375 4.360625 15.27875 3.72125 15.9375 3.0625 C20.06693371 0.28145281 23.06567216 0.29458674 28 0 C28 4.62 28 9.24 28 14 C25.89625 14.12375 25.89625 14.12375 23.75 14.25 C20.50252118 14.61253301 19.2034381 14.85250737 16.5 16.8125 C13.80282209 20.74588445 13.8383944 24.60862688 13.68359375 29.296875 C13.64169922 30.50214844 13.59980469 31.70742188 13.55664062 32.94921875 C13.51732422 34.20347656 13.47800781 35.45773437 13.4375 36.75 C13.39431641 38.01972656 13.35113281 39.28945313 13.30664062 40.59765625 C13.20060345 43.7316438 13.09980152 46.86580768 13 50 C8.71 50 4.42 50 0 50 C0 33.5 0 17 0 0 Z " fill="#E98012" transform="translate(1424,371)"/>
<path d="M0 0 C1.98 0 3.96 0 6 0 C10.51209236 8.9234184 14.96636417 17.84674946 19 27 C19.33 27 19.66 27 20 27 C20.11593506 26.2886792 20.23187012 25.5773584 20.35131836 24.84448242 C20.8775008 21.62506633 21.40745549 18.40628239 21.9375 15.1875 C22.11990234 14.06794922 22.30230469 12.94839844 22.49023438 11.79492188 C22.66748047 10.72177734 22.84472656 9.64863281 23.02734375 8.54296875 C23.18968506 7.55321045 23.35202637 6.56345215 23.51928711 5.54370117 C24 3 24 3 25 0 C26.98 0 28.96 0 31 0 C29.9166457 9.69317008 28.52326198 19.31396078 26.9375 28.9375 C26.7631543 30.01 26.58880859 31.0825 26.40917969 32.1875 C26.24192383 33.18652344 26.07466797 34.18554688 25.90234375 35.21484375 C25.67792603 36.56243774 25.67792603 36.56243774 25.44897461 37.93725586 C25 40 25 40 24 41 C22.00041636 41.04080783 19.99954746 41.04254356 18 41 C16.20569714 37.27209617 14.41502304 33.54246051 12.625 29.8125 C12.11710937 28.75740234 11.60921875 27.70230469 11.0859375 26.61523438 C10.59609375 25.59365234 10.10625 24.57207031 9.6015625 23.51953125 C8.92601318 22.11344604 8.92601318 22.11344604 8.23681641 20.67895508 C7.06829444 18.14792635 6.00952378 15.59797853 5 13 C4.88930176 13.59949463 4.77860352 14.19898926 4.66455078 14.81665039 C4.15484636 17.56592494 3.63996278 20.31420574 3.125 23.0625 C2.95097656 24.00544922 2.77695313 24.94839844 2.59765625 25.91992188 C1.63395564 31.04181215 0.53392033 36.0182137 -1 41 C-2.98 41 -4.96 41 -7 41 C-6.16710438 35.64262987 -5.33084446 30.2857999 -4.49145508 24.92944336 C-4.20634795 23.10699706 -3.92216256 21.28440632 -3.63891602 19.46166992 C-3.23175107 16.84255109 -2.82127996 14.22396871 -2.41015625 11.60546875 C-2.28407486 10.78974899 -2.15799347 9.97402924 -2.02809143 9.1335907 C-1.53139671 5.98681581 -1.00941346 3.02824037 0 0 Z " fill="#000000" transform="translate(1683,185)"/>
<path d="M0 0 C2.31 0 4.62 0 7 0 C6.34 4.62 5.68 9.24 5 14 C6.65 13.01 8.3 12.02 10 11 C15.05928923 10.1931306 19.54019595 10.19561817 24.0625 12.6875 C27.56612904 16.86925079 28.40924146 20.39430168 28.25390625 25.8828125 C27.41601632 32.86952543 24.18617304 38.20002975 18.9375 42.8125 C14.43362549 44.63321523 9.78943915 44.72805185 5 44 C2.66015625 42.4765625 2.66015625 42.4765625 1 41 C0.34 41.99 -0.32 42.98 -1 44 C-4.125 44.1875 -4.125 44.1875 -7 44 C-6.16415145 38.69802684 -5.32795947 33.396108 -4.49145508 28.09423828 C-4.20718191 26.29216969 -3.9230011 24.49008653 -3.63891602 22.68798828 C-3.22957496 20.09143256 -2.81989719 17.49493015 -2.41015625 14.8984375 C-2.28407486 14.0982016 -2.15799347 13.2979657 -2.02809143 12.47348022 C-1.37108773 8.31231902 -0.70011119 4.15418673 0 0 Z M5 20 C1.70872299 24.67148995 1.37583549 28.4716858 2 34 C4.0174608 37.0261912 5.45522464 37.81051292 8.875 39 C13.0919165 39 14.80997288 37.69380068 18 35 C20.67870526 31.48997241 21.7246335 28.40586407 22 24 C21.19079514 20.52041908 20.44546306 19.33124177 17.5625 17.1875 C12.58476111 14.88074295 9.09826528 16.88028033 5 20 Z " fill="#000000" transform="translate(1814,113)"/>
<path d="M0 0 C1.98 0 3.96 0 6 0 C5.41178175 9.54206355 3.69624749 18.80987868 1.9375 28.1875 C1.65253963 29.72712937 1.36803116 31.26684245 1.08398438 32.80664062 C0.39452175 36.53874462 -0.30102117 40.26966708 -1 44 C-2.98 44 -4.96 44 -7 44 C-7.33 43.01 -7.66 42.02 -8 41 C-8.639375 41.495 -9.27875 41.99 -9.9375 42.5 C-14.06131943 44.51982993 -17.48404628 44.72350667 -22 44 C-26.08668379 41.91950644 -28.32451311 40.24557763 -30 36 C-30.94526266 28.92152145 -30.28925659 22.81206958 -26 17 C-22.68271066 13.06394166 -19.58549247 10.75216548 -14.4375 9.9375 C-10.27449844 9.7168965 -7.52875473 10.70630942 -4 13 C-3.67 13.33 -3.34 13.66 -3 14 C-2.01 9.38 -1.02 4.76 0 0 Z M-21 20 C-23.42502491 24.36504484 -24.75936885 28.00986185 -24 33 C-22.65884601 36.00979883 -22.65884601 36.00979883 -20 38 C-15.39526962 38.65781863 -13.23409333 38.6856074 -9.1875 36.4375 C-5.51914243 32.34990157 -3.96900142 28.82891634 -4.0625 23.3125 C-5.10639856 19.6240584 -5.83043654 18.14159693 -9 16 C-14.18540839 15.09818984 -17.09152568 16.61265559 -21 20 Z " fill="#000000" transform="translate(1794,252)"/>
<path d="M0 0 C4.29 0 8.58 0 13 0 C13 16.5 13 33 13 50 C8.71 50 4.42 50 0 50 C0 33.5 0 17 0 0 Z " fill="#E98012" transform="translate(1183,477)"/>
<path d="M0 0 C4.29 0 8.58 0 13 0 C13 16.5 13 33 13 50 C8.71 50 4.42 50 0 50 C0 33.5 0 17 0 0 Z " fill="#E98012" transform="translate(1123,477)"/>
<path d="M0 0 C3.06345144 -0.10822792 6.1230601 -0.18741479 9.1875 -0.25 C10.05181641 -0.28351563 10.91613281 -0.31703125 11.80664062 -0.3515625 C16.0611794 -0.41676616 18.35727716 -0.39830711 22.05078125 1.890625 C24.5689898 4.61574046 24.96161982 5.50105763 25.25 9.25 C24.92299651 14.15505241 23.81297962 17.23939535 20.2421875 20.70703125 C18.52852955 22.18827 16.79221437 23.61533027 15 25 C15.3609375 25.90363281 15.721875 26.80726563 16.09375 27.73828125 C16.5578125 28.91777344 17.021875 30.09726563 17.5 31.3125 C17.9640625 32.48425781 18.428125 33.65601563 18.90625 34.86328125 C20 38 20 38 20 41 C17.69 41 15.38 41 13 41 C11.99580363 38.5433053 10.99649499 36.08481647 10 33.625 C9.57074219 32.57699219 9.57074219 32.57699219 9.1328125 31.5078125 C7 26.2265625 7 26.2265625 7 24 C5.35 24 3.7 24 2 24 C1.86722656 25.14339844 1.73445313 26.28679687 1.59765625 27.46484375 C1.4194969 28.9557562 1.24109918 30.44664018 1.0625 31.9375 C0.97548828 32.69224609 0.88847656 33.44699219 0.79882812 34.22460938 C0.11328125 39.88671875 0.11328125 39.88671875 -1 41 C-2.99958364 41.04080783 -5.00045254 41.04254356 -7 41 C-6.16710438 35.64262987 -5.33084446 30.2857999 -4.49145508 24.92944336 C-4.20634795 23.10699706 -3.92216256 21.28440632 -3.63891602 19.46166992 C-3.23175107 16.84255109 -2.82127996 14.22396871 -2.41015625 11.60546875 C-2.28407486 10.78974899 -2.15799347 9.97402924 -2.02809143 9.1335907 C-1.53139671 5.98681581 -1.00941346 3.02824037 0 0 Z M5 5 C4.34 9.62 3.68 14.24 3 19 C9.80921428 19.5126896 9.80921428 19.5126896 16.0625 17.375 C18.43786161 14.46326642 19 12.75127126 19 9 C17.94453949 6.73123063 17.94453949 6.73123063 16 5 C13.2613775 4.51659568 13.2613775 4.51659568 10.3125 4.75 C8.559375 4.8325 6.80625 4.915 5 5 Z " fill="#000000" transform="translate(1683,116)"/>
<path d="M0 0 C0.95648437 -0.02578125 1.91296875 -0.0515625 2.8984375 -0.078125 C6.00392147 0.29560086 7.33036066 1.18373709 9.625 3.25 C9.955 2.26 10.285 1.27 10.625 0.25 C12.605 0.25 14.585 0.25 16.625 0.25 C16.16132084 11.44785165 13.84068312 22.2932237 11.625 33.25 C9.645 33.25 7.665 33.25 5.625 33.25 C5.295 32.59 4.965 31.93 4.625 31.25 C4.07585937 31.57097656 3.52671875 31.89195312 2.9609375 32.22265625 C-1.322128 34.10634559 -5.8006381 33.91103496 -10.375 33.25 C-14.0467213 31.39990787 -16.05695684 29.20412948 -17.375 25.25 C-18.07761658 18.12016947 -17.7435383 12.12355301 -13.375 6.25 C-9.19721748 1.976299 -5.96068247 0.09588229 0 0 Z M-8.625 10.375 C-10.98954696 14.25961286 -11.71203306 17.7123842 -11.375 22.25 C-9.48915947 25.87081381 -8.2914546 26.93801546 -4.4375 28.25 C0.36214892 28.25 2.52460082 26.31983253 5.875 23.0625 C8.10590608 19.47711523 8.84687827 16.4656871 8.625 12.25 C7.35841135 9.18352221 6.38786591 7.75063076 3.625 5.9375 C-1.67474787 4.11571167 -4.86178562 6.82085309 -8.625 10.375 Z " fill="#000000" transform="translate(1788.375,123.75)"/>
<path d="M0 0 C4.07713357 2.07563163 6.34315368 3.75148122 8 8 C8.23046875 10.54296875 8.23046875 10.54296875 8.1875 13.1875 C8.18105469 14.06792969 8.17460938 14.94835937 8.16796875 15.85546875 C8 18 8 18 7 19 C5.21928754 19.08726223 3.4351686 19.10699041 1.65234375 19.09765625 C0.57275391 19.09443359 -0.50683594 19.09121094 -1.61914062 19.08789062 C-2.75544922 19.07951172 -3.89175781 19.07113281 -5.0625 19.0625 C-6.20267578 19.05798828 -7.34285156 19.05347656 -8.51757812 19.04882812 C-11.34510351 19.03699747 -14.1725264 19.0205141 -17 19 C-15.48134786 23.29888613 -15.48134786 23.29888613 -13 27 C-9.71073505 27.50196294 -9.71073505 27.50196294 -6 27 C-3.9832342 25.35366057 -1.98260426 23.68732277 0 22 C3.375 21.6875 3.375 21.6875 6 22 C5.41909101 25.92113569 3.74317959 28.18463148 1 31 C-3.79794146 33.62528873 -7.55154139 34.5943773 -13 34 C-16.59470303 32.54829301 -19.5695997 31.06997933 -22 28 C-24.04895663 21.8531301 -23.50057258 15.71775937 -20.9765625 9.78515625 C-16.60196295 1.78838828 -8.7147725 -1.4186839 0 0 Z M-15 11 C-15.33 11.99 -15.66 12.98 -16 14 C-10.06 14 -4.12 14 2 14 C1.67 12.02 1.34 10.04 1 8 C-5.52950394 3.64699737 -10.06117278 5.94358166 -15 11 Z " fill="#000000" transform="translate(1813,193)"/>
<path d="M0 0 C2.70552388 2.19823815 4.44778333 3.89556667 6 7 C6.0955931 8.66444461 6.12984645 10.33281963 6.125 12 C6.12886719 13.3303125 6.12886719 13.3303125 6.1328125 14.6875 C6 17 6 17 5 19 C-2.92 19 -10.84 19 -19 19 C-18.34 21.31 -17.68 23.62 -17 26 C-12.90117075 26.90174243 -10.58755072 27.22849195 -6.625 25.6875 C-3.91910872 24.2636664 -3.91910872 24.2636664 -3 22 C-0.69 22 1.62 22 4 22 C2.56179187 27.03372844 0.09754485 28.98955889 -4 32 C-9.66176365 33.88725455 -15.10995202 33.91127314 -20.5 31.3125 C-24.37708191 27.72619923 -25.09176527 24.82620447 -25.3125 19.6875 C-25.14779473 14.17902369 -24.16016434 9.46018717 -20.453125 5.23828125 C-14.3750041 -0.31540001 -8.04501608 -2.34090707 0 0 Z M-16 9 C-16.66 10.65 -17.32 12.3 -18 14 C-12.06 14 -6.12 14 0 14 C0.46654784 9.22534261 0.46654784 9.22534261 -1.5625 6.6875 C-6.9458591 2.96055909 -11.74080686 4.49742439 -16 9 Z " fill="#000000" transform="translate(1894,263)"/>
<path d="M0 0 C2.85964942 2.58290915 3.84602063 4.65379811 4.16796875 8.51171875 C4.14669922 9.95998047 4.14669922 9.95998047 4.125 11.4375 C4.11855469 12.41074219 4.11210938 13.38398438 4.10546875 14.38671875 C3.9375 16.75 3.9375 16.75 2.9375 17.75 C1.15678754 17.83726223 -0.6273314 17.85699041 -2.41015625 17.84765625 C-3.48974609 17.84443359 -4.56933594 17.84121094 -5.68164062 17.83789062 C-6.81794922 17.82951172 -7.95425781 17.82113281 -9.125 17.8125 C-10.26517578 17.80798828 -11.40535156 17.80347656 -12.58007812 17.79882812 C-15.40760351 17.78699747 -18.2350264 17.7705141 -21.0625 17.75 C-19.53694034 22.56122847 -19.53694034 22.56122847 -16.0625 25.75 C-13.23176564 26.25169415 -13.23176564 26.25169415 -10.0625 25.75 C-9.0725 24.925 -8.0825 24.1 -7.0625 23.25 C-4.0625 20.75 -4.0625 20.75 -0.6875 20.4375 C0.17875 20.540625 1.045 20.64375 1.9375 20.75 C1.46341957 25.01672384 -0.94557122 26.9955048 -4.0625 29.75 C-8.95438046 32.81274255 -14.49439999 32.36698509 -20.0625 31.75 C-23.38429766 29.95622926 -24.54158215 28.66780764 -26.375 25.4375 C-28.0968698 18.70655441 -26.78750489 12.97189957 -24.0625 6.75 C-18.73955095 -1.69329849 -9.05262807 -3.69495023 0 0 Z M-17.875 8.25 C-19.37285147 9.823164 -19.37285147 9.823164 -19.0625 12.75 C-13.4525 12.75 -7.8425 12.75 -2.0625 12.75 C-1.48137087 7.80952538 -1.48137087 7.80952538 -4.3125 5.4375 C-9.82560647 2.05445739 -13.39512784 4.5425196 -17.875 8.25 Z " fill="#000000" transform="translate(1885.0625,125.25)"/>
<path d="M0 0 C3.67435174 1.8407294 5.68333826 4.05001479 7 8 C7.09203743 9.51861755 7.13001284 11.04110426 7.125 12.5625 C7.12886719 13.74005859 7.12886719 13.74005859 7.1328125 14.94140625 C7 17 7 17 6 19 C-1.92 19 -9.84 19 -18 19 C-15.98848737 25.77489892 -15.98848737 25.77489892 -13 27 C-10.12693772 27.50095023 -10.12693772 27.50095023 -7 27 C-5.7934375 25.7625 -5.7934375 25.7625 -4.5625 24.5 C-2 22 -2 22 1.8125 21.6875 C2.864375 21.790625 3.91625 21.89375 5 22 C3.56314642 27.02898754 1.05763331 28.95677502 -3 32 C-7.17562276 34.08781138 -12.45183942 33.44327867 -17 33 C-20.74710661 30.9016203 -22.36238464 28.88933648 -24 25 C-25.03379431 18.03991969 -23.81383449 11.91319292 -20 6 C-14.38630141 -0.14135695 -7.98447133 -1.03650056 0 0 Z M-15 9 C-15.66 10.65 -16.32 12.3 -17 14 C-11.06 14 -5.12 14 1 14 C0.62145529 8.31949112 0.62145529 8.31949112 -1.75 6.125 C-7.16825602 3.41587199 -10.52563443 5.3210772 -15 9 Z " fill="#000000" transform="translate(1734,124)"/>
<path d="M0 0 C1.98 0 3.96 0 6 0 C5.01 7.26 4.02 14.52 3 22 C4.464375 20.35 5.92875 18.7 7.4375 17 C12.1701987 12.20653912 12.1701987 12.20653912 15.66796875 11.3359375 C18.125 11.375 18.125 11.375 22 12 C11.21052632 24.89473684 11.21052632 24.89473684 7 27 C8.43708955 31.14486881 10.49035687 34.25602883 13.125 37.75 C17 42.90747331 17 42.90747331 17 44 C12.06735751 44.96891192 12.06735751 44.96891192 9 44 C5.83131402 40.64397616 3.40002153 36.93195016 1 33 C0.34 36.63 -0.32 40.26 -1 44 C-3.31 44 -5.62 44 -8 44 C-7.02657255 37.89361038 -6.04787809 31.7880978 -5.06420898 25.68334961 C-4.73006192 23.60480852 -4.3973766 21.5260319 -4.06616211 19.44702148 C-3.59088605 16.46535687 -3.11042529 13.48456818 -2.62890625 10.50390625 C-2.4069735 9.10078941 -2.4069735 9.10078941 -2.18055725 7.66932678 C-2.04048752 6.80850998 -1.90041779 5.94769318 -1.75610352 5.06079102 C-1.63396988 4.29912125 -1.51183624 3.53745148 -1.38600159 2.75270081 C-1 1 -1 1 0 0 Z " fill="#000000" transform="translate(1769,182)"/>
<path d="M0 0 C2.5215021 -0.08172936 5.04029917 -0.14083373 7.5625 -0.1875 C8.26697266 -0.21263672 8.97144531 -0.23777344 9.69726562 -0.26367188 C14.87574696 -0.33526378 18.45368022 0.4487865 23 3 C25.80000008 6.64000011 25.0930365 10.25267247 24.53125 14.59375 C23.77617598 18.01379115 22.64131209 19.70622897 20 22 C14.09537534 25.49457378 8.74374033 25.32926038 2 25 C1.86722656 26.05960937 1.73445313 27.11921875 1.59765625 28.2109375 C1.41946125 29.59898279 1.2410654 30.98700231 1.0625 32.375 C0.97548828 33.07367188 0.88847656 33.77234375 0.79882812 34.4921875 C0.11328125 39.7734375 0.11328125 39.7734375 -1 42 C-2.98 42 -4.96 42 -7 42 C-5.41466617 27.87396573 -2.66117281 13.9551902 0 0 Z M5 5 C4.34 9.95 3.68 14.9 3 20 C8.47383556 20.28312943 12.40734105 20.3898197 17 17 C18.61653773 13.06408206 19.3580566 11.0741698 18 7 C13.73245628 4.54292937 9.7785882 4.83801396 5 5 Z " fill="#000000" transform="translate(1683,254)"/>
<path d="M0 0 C3.19972296 2.51893084 5.76680802 5.07620734 7 9 C7.48638129 14.83657548 7.08537432 19.90507267 4 25 C0.1674925 29.13591435 -3.47923096 32.68969493 -9.3046875 33.203125 C-18.29618594 33.36710369 -18.29618594 33.36710369 -22 30 C-25.54421053 24.98921959 -25.81517084 19.9260172 -25 14 C-23.17956307 8.08615122 -20.06057511 4.44119108 -15 1 C-10.03315737 -1.42823417 -5.26781308 -1.51619712 0 0 Z M-16 9 C-18.83755525 13.40310297 -19.66347937 16.7869478 -19 22 C-17.17932723 25.10188694 -15.94634508 26.60153891 -12.625 28 C-8.9614954 28 -7.05201292 27.0130298 -4 25 C-0.50105076 20.83908739 0.80247968 17.43180883 1 12 C-0.0351799 8.11807539 -0.58374862 7.27750092 -4 5 C-9.48245114 4.39083876 -12.18066675 4.96848157 -16 9 Z " fill="#000000" transform="translate(1754,263)"/>
<path d="M0 0 C1.98 0 3.96 0 6 0 C5.8547445 1.77088083 5.70875402 3.54170136 5.5625 5.3125 C5.43101563 6.94445312 5.43101563 6.94445312 5.296875 8.609375 C5.10602514 10.78908134 4.88937514 12.96676512 4.640625 15.140625 C4.53234375 16.10484375 4.4240625 17.0690625 4.3125 18.0625 C4.20550781 18.94035156 4.09851562 19.81820313 3.98828125 20.72265625 C3.79254891 23.28510232 3.79254891 23.28510232 6 26 C10.10050827 26.61894464 12.17824837 26.58962542 15.5859375 24.14453125 C18.95410299 19.75719595 19.47768165 15.56864509 20.3125 10.1875 C20.48072266 9.20845703 20.64894531 8.22941406 20.82226562 7.22070312 C21.23278901 4.816209 21.62467053 2.41019457 22 0 C23.98 0 25.96 0 28 0 C27.53632084 11.19785165 25.21568312 22.0432237 23 33 C21.02 33 19.04 33 17 33 C16.67 32.34 16.34 31.68 16 31 C15.505 31.33 15.01 31.66 14.5 32 C10.99908915 33.40036434 7.69223681 33.47712802 4 33 C0.12694268 31.31606204 -1.39512743 29.83896831 -3 26 C-3.74580498 17.19950118 -1.65993644 8.60597998 0 0 Z " fill="#000000" transform="translate(1805,263)"/>
<path d="M0 0 C3.54886586 2.58771469 4.76530668 4.04317337 5.8125 8.3125 C5.874375 9.199375 5.93625 10.08625 6 11 C3.69 11 1.38 11 -1 11 C-1.28875 10.360625 -1.5775 9.72125 -1.875 9.0625 C-2.82823451 6.84793921 -2.82823451 6.84793921 -5 6 C-8.69243155 5.58972983 -10.51957129 5.71611031 -13.75 7.625 C-16.92720797 10.97871953 -17.96872616 13.68182648 -18.03125 18.31640625 C-17.83362805 21.72031637 -17.83362805 21.72031637 -17 25 C-14.40759168 26.76262072 -13.18211816 27.00379413 -10 26.9375 C-6.80488717 26.25814761 -6.80488717 26.25814761 -5.0625 23.4375 C-4.381875 22.633125 -3.70125 21.82875 -3 21 C0.75 20.6875 0.75 20.6875 4 21 C2.42497404 26.01144623 -0.34113976 29.38789105 -4.85546875 32.125 C-9.6555842 34.08351705 -15.19930035 33.72794241 -19.9375 31.8125 C-23.17810591 28.96469481 -24.75648877 26.89166653 -25.3203125 22.51171875 C-25.65724074 14.39174824 -23.71524178 9.375706 -18.6875 3.125 C-13.10698974 -1.28749649 -6.72278503 -1.9387807 0 0 Z " fill="#000000" transform="translate(1861,263)"/>
<path d="M0 0 C2.7409688 1.82731254 3.70750309 2.63051051 4.625 5.75 C4.75 8.5 4.75 8.5 4.625 10.75 C1.8125 11.0625 1.8125 11.0625 -1.375 10.75 C-2.055625 9.5125 -2.055625 9.5125 -2.75 8.25 C-3.28625 7.425 -3.8225 6.6 -4.375 5.75 C-8.82999798 5.11357172 -11.07251376 4.82454925 -14.75 7.4375 C-18.38078135 12.60438116 -18.67351703 16.58064804 -18.375 22.75 C-18.045 23.74 -17.715 24.73 -17.375 25.75 C-14.32077585 26.04943374 -11.41969471 26.18790025 -8.375 25.75 C-6.66819053 24.12446717 -4.99839805 22.45884005 -3.375 20.75 C0.4375 20.4375 0.4375 20.4375 3.625 20.75 C1.22544417 26.30686612 -1.40659291 29.18768048 -6.75 32 C-11.4079263 33.33083608 -15.07574213 33.22472884 -19.625 31.5625 C-22.73919621 29.50996159 -23.73901335 28.0691199 -25.375 24.75 C-26.3727956 18.23286655 -25.95603526 12.10011971 -22.578125 6.3671875 C-17.0225018 -1.10043589 -8.53607949 -3.16151092 0 0 Z " fill="#000000" transform="translate(1754.375,194.25)"/>
<path d="M0 0 C2.31 0 4.62 0 7 0 C6.02657255 6.10638962 5.04787809 12.2119022 4.06420898 18.31665039 C3.73006192 20.39519148 3.3973766 22.4739681 3.06616211 24.55297852 C2.59088605 27.53464313 2.11042529 30.51543182 1.62890625 33.49609375 C1.48095108 34.43150497 1.33299591 35.3669162 1.18055725 36.33067322 C1.04048752 37.19149002 0.90041779 38.05230682 0.75610352 38.93920898 C0.63396988 39.70087875 0.51183624 40.46254852 0.38600159 41.24729919 C0 43 0 43 -1 44 C-2.99958364 44.04080783 -5.00045254 44.04254356 -7 44 C-6.16415145 38.69802684 -5.32795947 33.396108 -4.49145508 28.09423828 C-4.20718191 26.29216969 -3.9230011 24.49008653 -3.63891602 22.68798828 C-3.22957496 20.09143256 -2.81989719 17.49493015 -2.41015625 14.8984375 C-2.28407486 14.0982016 -2.15799347 13.2979657 -2.02809143 12.47348022 C-1.37108773 8.31231902 -0.70011119 4.15418673 0 0 Z " fill="#000000" transform="translate(1851,113)"/>
<path d="M0 0 C1.4540625 0.0309375 1.4540625 0.0309375 2.9375 0.0625 C2.10165145 5.36447316 1.26545947 10.666392 0.42895508 15.96826172 C0.14468191 17.77033031 -0.1394989 19.57241347 -0.42358398 21.37451172 C-0.83292504 23.97106744 -1.24260281 26.56756985 -1.65234375 29.1640625 C-1.77842514 29.9642984 -1.90450653 30.7645343 -2.03440857 31.58901978 C-2.69141227 35.75018098 -3.36238881 39.90831327 -4.0625 44.0625 C-6.3725 44.0625 -8.6825 44.0625 -11.0625 44.0625 C-10.08907255 37.95611038 -9.11037809 31.8505978 -8.12670898 25.74584961 C-7.79256192 23.66730852 -7.4598766 21.5885319 -7.12866211 19.50952148 C-6.65338605 16.52785687 -6.17292529 13.54706818 -5.69140625 10.56640625 C-5.4694735 9.16328941 -5.4694735 9.16328941 -5.24305725 7.73182678 C-5.10298752 6.87100998 -4.96291779 6.01019318 -4.81860352 5.12329102 C-4.69646988 4.36162125 -4.57433624 3.59995148 -4.44850159 2.81520081 C-3.77316805 -0.25125715 -3.28481359 0.06703701 0 0 Z " fill="#000000" transform="translate(1754.0625,112.9375)"/>
<path d="M0 0 C-0.33 2.31 -0.66 4.62 -1 7 C-2.093125 7.226875 -3.18625 7.45375 -4.3125 7.6875 C-7.97949983 8.63640358 -7.97949983 8.63640358 -9.59375 10.9375 C-11.58011859 15.26336938 -12.3402207 19.64751862 -13.1875 24.3125 C-13.36474609 25.24384766 -13.54199219 26.17519531 -13.72460938 27.13476562 C-14.15853595 29.42167595 -14.5833558 31.70988924 -15 34 C-16.98 34 -18.96 34 -21 34 C-20.43779003 26.32897817 -19.37685564 18.86530258 -17.9375 11.3125 C-17.75123047 10.31283203 -17.56496094 9.31316406 -17.37304688 8.28320312 C-16.91986013 5.85458699 -16.46213408 3.42692649 -16 1 C-14.02 1 -12.04 1 -10 1 C-9.67 1.66 -9.34 2.32 -9 3 C-8.071875 2.505 -7.14375 2.01 -6.1875 1.5 C-3 0 -3 0 0 0 Z " fill="#000000" transform="translate(1729,262)"/>
<path d="M0 0 C1.98 0 3.96 0 6 0 C4.62301523 9.98946946 3.05346077 19.93278801 1.375 29.875 C1.14307433 31.25648443 0.91130283 32.63799475 0.6796875 34.01953125 C0.12129663 37.34661021 -0.4386203 40.67342428 -1 44 C-2.98 44 -4.96 44 -7 44 C-6.46008173 34.46983823 -5.1746777 25.2050495 -3.5 15.8125 C-3.27165163 14.49162 -3.04378493 13.17065664 -2.81640625 11.84960938 C-1.13940917 2.27881834 -1.13940917 2.27881834 0 0 Z " fill="#000000" transform="translate(1831,182)"/>
<path d="M0 0 C-0.33 2.31 -0.66 4.62 -1 7 C-2.258125 7.185625 -3.51625 7.37125 -4.8125 7.5625 C-7.0245297 7.76178577 -7.0245297 7.76178577 -9 9 C-11.8977454 14.24874638 -12.82009416 19.55525606 -13.6875 25.4375 C-13.88182617 26.67790039 -13.88182617 26.67790039 -14.08007812 27.94335938 C-14.3949653 29.9609698 -14.69865138 31.9803231 -15 34 C-16.98 34 -18.96 34 -21 34 C-20.60770439 26.34347187 -19.75952993 18.86967956 -18.5 11.3125 C-18.36940186 10.52246582 -18.23880371 9.73243164 -18.10424805 8.91845703 C-17.13244507 3.26489015 -17.13244507 3.26489015 -16 1 C-14.02 1 -12.04 1 -10 1 C-9.67 1.66 -9.34 2.32 -9 3 C-8.34 2.34 -7.68 1.68 -7 1 C-4.49940039 0.19335496 -2.66053211 0 0 0 Z " fill="#000000" transform="translate(1924,262)"/>
<path d="M0 0 C2.375 1.125 2.375 1.125 4 3 C5.20362584 6.69111926 5.34418291 8.29598951 3.625 11.8125 C2 14 2 14 1 15 C-2.05409193 15.43364388 -4.94916832 15.46321528 -8 15 C-10.625 12.9375 -10.625 12.9375 -12 10 C-12 6.22089384 -11.83289714 3.99306967 -9.375 1.0625 C-6.05609564 -0.422273 -3.59655194 -0.38534485 0 0 Z " fill="#E98012" transform="translate(1133,457)"/>
<path d="M0 0 C3.8425303 0.72047443 5.45767292 1.57152696 8 4.5625 C8.7501664 8.07978963 8.72677685 11.31082876 6.875 14.5 C4.15482571 16.0414321 2.13288023 16.43964195 -1 16.5625 C-6.61176471 14.33897059 -6.61176471 14.33897059 -8 11.5625 C-8.54035146 7.50986402 -8.34199395 6.02519769 -5.875 2.6875 C-3 0.5625 -3 0.5625 0 0 Z " fill="#E98012" transform="translate(1103,350.4375)"/>
<path d="M0 0 C3.42123173 2.47493359 4.79477021 3.88263781 5.5625 8.0625 C5 11 5 11 3.5 13.375 C-0.028368 15.6684392 -2.90611106 15.66274022 -7 15 C-9.5 14 -9.5 14 -11 12 C-11.56153595 7.57790439 -11.79893062 5.27828899 -9.4375 1.5 C-6.00863886 -0.61006839 -3.95779649 -0.62491523 0 0 Z " fill="#E98012" transform="translate(1193,457)"/>
<path d="M0 0 C1.98 0 3.96 0 6 0 C5.53632084 11.19785165 3.21568312 22.0432237 1 33 C-0.98 33 -2.96 33 -5 33 C-3.73201021 21.91627746 -2.0361826 10.96823696 0 0 Z " fill="#000000" transform="translate(1762,124)"/>
<path d="M0 0 C1.98 0 3.96 0 6 0 C4.78254331 10.77091097 3.12034881 21.36998463 1 32 C-0.98 32 -2.96 32 -5 32 C-4.49279908 21.17126036 -2.12424249 10.60054575 0 0 Z " fill="#000000" transform="translate(1720,194)"/>
<path d="M0 0 C2.625 0.375 2.625 0.375 5 1 C5.625 2.8125 5.625 2.8125 6 5 C5.01 6.485 5.01 6.485 4 8 C1.4375 8.25 1.4375 8.25 -1 8 C-2 7 -2 7 -2.1875 4.5625 C-2 2 -2 2 0 0 Z " fill="#000000" transform="translate(1765,112)"/>
<path d="M0 0 C2.625 0.375 2.625 0.375 5 1 C5.04254356 2.99954746 5.04080783 5.00041636 5 7 C4 8 4 8 0.9375 8.0625 C-0.031875 8.041875 -1.00125 8.02125 -2 8 C-2.125 5.125 -2.125 5.125 -2 2 C-1.34 1.34 -0.68 0.68 0 0 Z " fill="#000000" transform="translate(1723,181)"/>
</svg>
