<?xml version="1.0" encoding="UTF-8"?>
<svg version="1.1" xmlns="http://www.w3.org/2000/svg" width="1667" height="1667">
<path d="M0 0 C3.15426625 1.49766614 6.31576604 2.97926158 9.47802734 4.45996094 C23.30306845 10.97121165 36.77396578 17.97630952 50.09130859 25.46777344 C51.40542725 26.20229736 51.40542725 26.20229736 52.74609375 26.95166016 C94.61413823 50.38509416 134.38210938 77.55448188 171.39990234 108.07617188 C173.8280846 110.07395462 176.27417274 112.04958767 178.71630859 114.03027344 C189.82740761 123.15132487 200.52384744 132.62498937 210.97436523 142.49438477 C213.52314474 144.8703258 216.10802984 147.20493125 218.68896484 149.54589844 C225.01926783 155.31835479 231.10170529 161.32581666 237.14770508 167.39379883 C238.91618079 169.16768347 240.69000903 170.93609121 242.46435547 172.70410156 C247.67499257 177.91168976 252.81768519 183.11957467 257.59887695 188.73022461 C260.12414705 191.67024543 262.80748267 194.46155178 265.46630859 197.28027344 C270.11770037 202.25096298 274.5428091 207.32998536 278.79833984 212.64746094 C280.92592609 215.26435577 283.11120625 217.81228914 285.32714844 220.35375977 C292.0559293 228.08176784 298.29169721 236.12458398 304.45458984 244.30761719 C306.05864828 246.42466807 307.68047383 248.52657736 309.31005859 250.62402344 C364.0223242 321.15350036 406.17602378 402.24428405 463.09130859 595.46777344 C463.23097046 596.19744324 463.37063232 596.92711304 463.51452637 597.67889404 C468.01091538 621.29318965 471.31999803 645.04835122 473.82702637 668.95349121 C473.99790689 670.57918455 474.17131808 672.20461475 474.34777832 673.82971191 C480.05052454 726.43229146 479.69685448 781.87676073 474.09130859 834.46777344 C474.00409546 835.30693298 473.91688232 836.14609253 473.82702637 837.01068115 C465.70955422 914.97231249 447.217065 991.82922057 370.64404297 1161.76806641 C369.11998994 1164.41790578 367.62477706 1167.08192415 366.13818359 1169.75292969 C359.23695095 1182.10638993 351.73379062 1193.97950415 343.89453125 1205.7578125 C342.19627677 1208.31002272 340.5075833 1210.86826736 338.82177734 1213.42871094 C333.21196713 1221.92777763 327.48207299 1230.32318249 321.48535156 1238.55419922 C320.48986923 1239.92067742 319.49699161 1241.28905472 318.50585938 1242.65869141 C310.81242241 1253.2829615 302.8816302 1263.6413059 294.51513672 1273.74414062 C292.50290387 1276.18007409 290.5182311 1278.63819819 288.52880859 1281.09277344 C280.48003071 1290.90727956 272.17780192 1300.47002814 263.55615234 1309.78417969 C261.44314712 1312.08470994 259.38025825 1314.41436526 257.34130859 1316.78027344 C254.66863662 1319.86657321 251.84456408 1322.73901934 248.93041992 1325.59619141 C247.16813534 1327.38959026 245.53147386 1329.2391111 243.89990234 1331.15136719 C240.00084221 1335.63410043 235.86486214 1339.84196185 231.65380859 1344.03027344 C230.58549805 1345.10438477 230.58549805 1345.10438477 229.49560547 1346.20019531 C225.42327612 1350.26512715 221.25959734 1354.15638042 216.88208008 1357.89135742 C215.0383484 1359.51439429 213.31061808 1361.21417058 211.59130859 1362.96777344 C208.60258523 1366.00372268 205.4742438 1368.81286003 202.24755859 1371.59277344 C199.89167902 1373.64136437 197.58623399 1375.73980345 195.27880859 1377.84277344 C190.96356283 1381.73701961 186.52039104 1385.43432068 182.00146484 1389.08886719 C179.42215664 1391.19732181 176.88171184 1393.34108433 174.35107422 1395.50708008 C168.00362506 1400.93596917 161.51012889 1406.11841266 154.84082031 1411.14794922 C152.99505889 1412.5403838 151.15455567 1413.93960675 149.31396484 1415.33886719 C89.16722258 1460.9197545 22.57459086 1499.2892993 -47.90869141 1526.46777344 C-48.89709015 1526.84902374 -48.89709015 1526.84902374 -49.90545654 1527.23797607 C-128.44579623 1557.47562603 -210.30777885 1576.11978753 -350.68655777 1583.78583145 C-353.26405144 1583.78017945 -355.84153849 1583.77736625 -358.41903687 1583.77474976 C-383.21620423 1583.73817987 -407.88896122 1583.39193223 -432.56616211 1580.7210083 C-435.01622382 1580.45614884 -437.46723257 1580.20161136 -439.91845703 1579.94775391 C-525.29255071 1570.98824963 -609.68378272 1549.470535 -770.90869141 1472.46777344 C-771.73079102 1471.98711426 -772.55289062 1471.50645508 -773.39990234 1471.01123047 C-793.07222118 1459.494873 -812.40803232 1447.32202716 -830.86962891 1433.94189453 C-833.01052375 1432.3941547 -835.16179129 1430.86169221 -837.31494141 1429.33105469 C-861.38475568 1412.16657898 -884.57298378 1393.6099362 -906.43212891 1373.69824219 C-908.52735901 1371.81121318 -910.64185372 1369.95240743 -912.76806641 1368.10058594 C-924.45534263 1357.88678109 -935.4885201 1346.98966903 -946.47119141 1336.03027344 C-947.03553894 1335.4685141 -947.59988647 1334.90675476 -948.18133545 1334.32797241 C-953.75474666 1328.77473195 -959.27762306 1323.21950232 -964.38989258 1317.23168945 C-966.9268516 1314.28529355 -969.6162948 1311.48308119 -972.28369141 1308.65527344 C-976.93184674 1303.68804251 -981.35347677 1298.61201311 -985.60791016 1293.29980469 C-988.26779518 1290.02575266 -991.02140519 1286.84279654 -993.78369141 1283.65527344 C-999.72342193 1276.7643638 -1005.3599356 1269.6753831 -1010.90869141 1262.46777344 C-1011.52292969 1261.67419434 -1012.13716797 1260.88061523 -1012.77001953 1260.06298828 C-1020.94699606 1249.4900697 -1028.9601071 1238.85960846 -1036.38623047 1227.74414062 C-1038.14293952 1225.11752818 -1039.91289177 1222.50002509 -1041.68212891 1219.88183594 C-1050.40567055 1206.93095801 -1058.85602336 1193.84634507 -1066.90869141 1180.46777344 C-1067.4463916 1179.57783691 -1067.9840918 1178.68790039 -1068.53808594 1177.77099609 C-1111.62627082 1106.14371853 -1143.12666139 1027.86883754 -1160.09619141 549.21777344 C-1155.37759615 530.42808925 -1149.89859758 511.8890615 -1143.90869141 493.46777344 C-1143.68310547 492.7738147 -1143.45751953 492.07985596 -1143.22509766 491.36486816 C-1125.04298137 435.62662411 -1100.56371359 381.67570182 -1070.58740234 331.29443359 C-1069.01935152 328.65410601 -1067.46596485 326.00575753 -1065.91650391 323.35449219 C-1058.09523579 310.0472349 -1049.60398268 297.2175622 -1040.90869141 284.46777344 C-1040.30766602 283.58557129 -1039.70664063 282.70336914 -1039.08740234 281.79443359 C-1030.12241954 268.68733841 -1020.63558461 256.01708595 -1010.90869141 243.46777344 C-1010.38114258 242.78424805 -1009.85359375 242.10072266 -1009.31005859 241.39648438 C-1003.18382326 233.46530645 -996.8572036 225.73349588 -990.33105469 218.12841797 C-988.86052141 216.41153377 -987.39772217 214.68828662 -985.93603516 212.96386719 C-979.91920658 205.88135599 -973.76546467 198.959397 -967.44488525 192.14674377 C-966.27807541 190.87148863 -965.12303981 189.58544866 -963.97357178 188.29454041 C-958.81110221 182.49715379 -953.49427072 176.90589594 -947.99853516 171.42480469 C-947.18679337 170.61210617 -946.37505157 169.79940765 -945.53871155 168.96208191 C-943.83831422 167.26100992 -942.13667695 165.56117654 -940.43383789 163.86254883 C-937.84552486 161.27960828 -935.2626158 158.69135003 -932.68017578 156.10253906 C-931.01578287 154.43880679 -929.35107987 152.77538465 -927.68603516 151.11230469 C-926.5435154 149.96674858 -926.5435154 149.96674858 -925.37791443 148.79804993 C-921.2512371 144.68916404 -917.04083643 140.74027022 -912.62362671 136.94459534 C-910.22955411 134.88293223 -907.91675223 132.73649525 -905.59619141 130.59277344 C-901.13480796 126.52359952 -896.54924423 122.66799527 -891.85009766 118.87792969 C-889.13208599 116.65082053 -886.46824095 114.37563622 -883.81396484 112.07373047 C-877.33994054 106.460897 -870.71299616 101.11478748 -863.87011719 95.95654297 C-861.59987546 94.23337467 -859.34606128 92.48976375 -857.09228516 90.74511719 C-846.31710589 82.42803512 -835.38054733 74.46791121 -824.06201172 66.90673828 C-822.05539595 65.56580933 -820.05532413 64.21573645 -818.05712891 62.86230469 C-745.58855893 13.93662784 -665.74932022 -23.04871961 -398.90869141 -77.53222656 C-397.87292969 -77.59007324 -396.83716797 -77.64791992 -395.77001953 -77.70751953 C-309.79991259 -82.32382387 -223.10952569 -72.97097396 0 0 Z " fill="#FEFEFE" transform="translate(1186.90869140625,80.5322265625)"/>
<path d="M0 0 C0.33 66.33 0.66 132.66 1 201 C9.38218621 192.66586076 9.38218621 192.66586076 17.20654297 184.02050781 C20.96416145 179.78717667 25.04311853 175.85749984 29.0625 171.875 C30.02251375 170.9194063 30.98222453 169.96350816 31.94165039 169.00732422 C35.46770473 165.49449408 38.9992429 161.98719427 42.53063965 158.47973633 C45.52691208 155.50334483 48.52102231 152.52480843 51.51242065 149.54351807 C52.8988534 148.16346867 54.28837298 146.78652256 55.67797852 145.40966797 C59.40353344 141.6984596 63.0730004 137.99041733 66.5 134 C70.76310997 129.03601111 75.41679096 124.47808026 80.0625 119.875 C81.02251375 118.9194063 81.98222453 117.96350816 82.94165039 117.00732422 C86.46770473 113.49449408 89.9992429 109.98719427 93.53063965 106.47973633 C96.52691208 103.50334483 99.52102231 100.52480843 102.51242065 97.54351807 C103.8988534 96.16346867 105.28837298 94.78652256 106.67797852 93.40966797 C111.0760683 89.02851457 115.30466658 84.58622021 119.34814453 79.87670898 C122.16118212 76.6807557 125.18916926 73.70778148 128.21875 70.71875 C129.21110657 69.73207336 129.21110657 69.73207336 130.22351074 68.72546387 C133.01578144 65.94933442 135.81405416 63.17928463 138.61181641 60.40869141 C140.67040898 58.3683292 142.72587903 56.32485669 144.78125 54.28125 C145.40124878 53.66954956 146.02124756 53.05784912 146.66003418 52.4276123 C149.68592604 49.41844822 152.59232874 46.36112865 155.37744141 43.12695312 C159.43339309 38.43341732 163.78952875 34.06673891 168.1796875 29.6875 C169.45974167 28.40601074 169.45974167 28.40601074 170.76565552 27.09863281 C172.55445639 25.30915572 174.34450353 23.52092363 176.13574219 21.73388672 C178.89114281 18.98388884 181.64110697 16.22853437 184.390625 13.47265625 C186.13249153 11.73144969 187.8746678 9.9905529 189.6171875 8.25 C190.44314423 7.42201904 191.26910095 6.59403809 192.12008667 5.7409668 C193.2572966 4.60848511 193.2572966 4.60848511 194.41748047 3.453125 C195.42172562 2.45007324 195.42172562 2.45007324 196.44625854 1.42675781 C198 0 198 0 199 0 C199 133.98 199 267.96 199 406 C1.99 406 -195.02 406 -398 406 C-391.2617692 398.13873073 -391.2617692 398.13873073 -388.59765625 395.53515625 C-387.72657227 394.67567383 -387.72657227 394.67567383 -386.83789062 393.79882812 C-385.65824609 392.64513836 -384.47855887 391.49149223 -383.29882812 390.33789062 C-380.37587186 387.45377763 -377.56771278 384.53776718 -374.90795898 381.40795898 C-370.48487256 376.32777036 -365.72037525 371.61398784 -360.9375 366.875 C-359.97748625 365.9194063 -359.01777547 364.96350816 -358.05834961 364.00732422 C-354.53229527 360.49449408 -351.0007571 356.98719427 -347.46936035 353.47973633 C-344.47308792 350.50334483 -341.47897769 347.52480843 -338.48757935 344.54351807 C-337.1011466 343.16346867 -335.71162702 341.78652256 -334.32202148 340.40966797 C-330.59646656 336.6984596 -326.9269996 332.99041733 -323.5 329 C-319.23689003 324.03601111 -314.58320904 319.47808026 -309.9375 314.875 C-308.97748625 313.9194063 -308.01777547 312.96350816 -307.05834961 312.00732422 C-303.53229527 308.49449408 -300.0007571 304.98719427 -296.46936035 301.47973633 C-293.47308792 298.50334483 -290.47897769 295.52480843 -287.48757935 292.54351807 C-286.1011466 291.16346867 -284.71162702 289.78652256 -283.32202148 288.40966797 C-278.97617899 284.08056066 -274.80844584 279.69027056 -270.81298828 275.0378418 C-267.11291386 270.87887045 -263.10954802 267.00987363 -259.15625 263.09375 C-257.7380835 261.68137068 -256.31991993 260.26898839 -254.90192413 258.85643768 C-251.93933555 255.90687976 -248.97215979 252.96193688 -246.00579834 250.01617432 C-243.55418969 247.58122894 -241.10362669 245.14525184 -238.65563965 242.70666504 C-236.82931571 240.88779387 -235.00074639 239.07117348 -233.16955566 237.25720215 C-229.49907959 233.60119831 -225.88976914 229.94489923 -222.51367188 226.01367188 C-218.24511716 221.04584234 -213.58781492 216.48264388 -208.9375 211.875 C-207.97748625 210.9194063 -207.01777547 209.96350816 -206.05834961 209.00732422 C-202.53229527 205.49449408 -199.0007571 201.98719427 -195.46936035 198.47973633 C-192.47308792 195.50334483 -189.47897769 192.52480843 -186.48757935 189.54351807 C-185.1011466 188.16346867 -183.71162702 186.78652256 -182.32202148 185.40966797 C-178.59646656 181.6984596 -174.9269996 177.99041733 -171.5 174 C-167.23689003 169.03601111 -162.58320904 164.47808026 -157.9375 159.875 C-156.97748625 158.9194063 -156.01777547 157.96350816 -155.05834961 157.00732422 C-151.53229527 153.49449408 -148.0007571 149.98719427 -144.46936035 146.47973633 C-141.47308792 143.50334483 -138.47897769 140.52480843 -135.48757935 137.54351807 C-134.1011466 136.16346867 -132.71162702 134.78652256 -131.32202148 133.40966797 C-126.97617899 129.08056066 -122.80844584 124.69027056 -118.81298828 120.0378418 C-115.11291386 115.87887045 -111.10954802 112.00987363 -107.15625 108.09375 C-105.7380835 106.68137068 -104.31991993 105.26898839 -102.90192413 103.85643768 C-99.93933555 100.90687976 -96.97215979 97.96193688 -94.00579834 95.01617432 C-91.55418969 92.58122894 -89.10362669 90.14525184 -86.65563965 87.70666504 C-84.82931571 85.88779387 -83.00074639 84.07117348 -81.16955566 82.25720215 C-77.49907959 78.60119831 -73.88976914 74.94489923 -70.51367188 71.01367188 C-66.24511716 66.04584234 -61.58781492 61.48264388 -56.9375 56.875 C-55.97748625 55.9194063 -55.01777547 54.96350816 -54.05834961 54.00732422 C-50.53229527 50.49449408 -47.0007571 46.98719427 -43.46936035 43.47973633 C-40.47308792 40.50334483 -37.47897769 37.52480843 -34.48757935 34.54351807 C-33.1011466 33.16346867 -31.71162702 31.78652256 -30.32202148 30.40966797 C-25.85962544 25.96445594 -21.55289991 21.45947592 -17.45037842 16.6796875 C-15.73066362 14.68808075 -13.9289188 12.79968743 -12.0703125 10.9375 C-11.420625 10.28652344 -10.7709375 9.63554688 -10.1015625 8.96484375 C-9.44929688 8.31644531 -8.79703125 7.66804687 -8.125 7 C-7.44953125 6.32066406 -6.7740625 5.64132812 -6.078125 4.94140625 C-5.43617188 4.30074219 -4.79421875 3.66007813 -4.1328125 3 C-3.26487061 2.13375 -3.26487061 2.13375 -2.37939453 1.25 C-1 0 -1 0 0 0 Z " fill="#5B636E" transform="translate(461,630)"/>
<path d="M0 0 C0.87028898 25.82571478 1.5196012 51.64918897 1.91705036 77.48668957 C2.10664322 89.48877205 2.36521331 101.48158274 2.79125977 113.4777832 C5.83785885 200.9346831 5.83785885 200.9346831 -10.56771946 220.31363773 C-17.12112382 227.17987825 -24.57669922 232.72020912 -32.84553528 237.34272766 C-37.55982309 240.0855675 -40.59207886 243.81469896 -44 248 C-45.52393362 249.59521352 -47.06525183 251.17418205 -48.63085938 252.72851562 C-49.46862915 253.56298218 -50.30639893 254.39744873 -51.16955566 255.25720215 C-52.05203979 256.13138794 -52.93452393 257.00557373 -53.84375 257.90625 C-55.2619165 259.31862932 -56.68008007 260.73101161 -58.09807587 262.14356232 C-61.06066445 265.09312024 -64.02784021 268.03806312 -66.99420166 270.98382568 C-69.44581031 273.41877106 -71.89637331 275.85474816 -74.34436035 278.29333496 C-76.17068429 280.11220613 -77.99925361 281.92882652 -79.83044434 283.74279785 C-83.50092041 287.39880169 -87.11023086 291.05510077 -90.48632812 294.98632812 C-94.75488284 299.95415766 -99.41218508 304.51735612 -104.0625 309.125 C-105.02251375 310.0805937 -105.98222453 311.03649184 -106.94165039 311.99267578 C-110.46770473 315.50550592 -113.9992429 319.01280573 -117.53063965 322.52026367 C-120.52691208 325.49665517 -123.52102231 328.47519157 -126.51242065 331.45648193 C-127.8988534 332.83653133 -129.28837298 334.21347744 -130.67797852 335.59033203 C-134.40353344 339.3015404 -138.0730004 343.00958267 -141.5 347 C-145.76310997 351.96398889 -150.41679096 356.52191974 -155.0625 361.125 C-156.02251375 362.0805937 -156.98222453 363.03649184 -157.94165039 363.99267578 C-161.46770473 367.50550592 -164.9992429 371.01280573 -168.53063965 374.52026367 C-171.52691208 377.49665517 -174.52102231 380.47519157 -177.51242065 383.45648193 C-178.8988534 384.83653133 -180.28837298 386.21347744 -181.67797852 387.59033203 C-186.17867063 392.07369265 -190.5012254 396.59257913 -194.52954102 401.50830078 C-196 403 -196 403 -199 404 C-199 404.66 -199 405.32 -199 406 C-264.67 406 -330.34 406 -398 406 C-391.2617692 398.13873073 -391.2617692 398.13873073 -388.59765625 395.53515625 C-387.72657227 394.67567383 -387.72657227 394.67567383 -386.83789062 393.79882812 C-385.65824609 392.64513836 -384.47855887 391.49149223 -383.29882812 390.33789062 C-380.37587186 387.45377763 -377.56771278 384.53776718 -374.90795898 381.40795898 C-370.48487256 376.32777036 -365.72037525 371.61398784 -360.9375 366.875 C-359.97748625 365.9194063 -359.01777547 364.96350816 -358.05834961 364.00732422 C-354.53229527 360.49449408 -351.0007571 356.98719427 -347.46936035 353.47973633 C-344.47308792 350.50334483 -341.47897769 347.52480843 -338.48757935 344.54351807 C-337.1011466 343.16346867 -335.71162702 341.78652256 -334.32202148 340.40966797 C-330.59646656 336.6984596 -326.9269996 332.99041733 -323.5 329 C-319.23689003 324.03601111 -314.58320904 319.47808026 -309.9375 314.875 C-308.97748625 313.9194063 -308.01777547 312.96350816 -307.05834961 312.00732422 C-303.53229527 308.49449408 -300.0007571 304.98719427 -296.46936035 301.47973633 C-293.47308792 298.50334483 -290.47897769 295.52480843 -287.48757935 292.54351807 C-286.1011466 291.16346867 -284.71162702 289.78652256 -283.32202148 288.40966797 C-278.97617899 284.08056066 -274.80844584 279.69027056 -270.81298828 275.0378418 C-267.11291386 270.87887045 -263.10954802 267.00987363 -259.15625 263.09375 C-257.7380835 261.68137068 -256.31991993 260.26898839 -254.90192413 258.85643768 C-251.93933555 255.90687976 -248.97215979 252.96193688 -246.00579834 250.01617432 C-243.55418969 247.58122894 -241.10362669 245.14525184 -238.65563965 242.70666504 C-236.82931571 240.88779387 -235.00074639 239.07117348 -233.16955566 237.25720215 C-229.49907959 233.60119831 -225.88976914 229.94489923 -222.51367188 226.01367188 C-218.24511716 221.04584234 -213.58781492 216.48264388 -208.9375 211.875 C-207.97748625 210.9194063 -207.01777547 209.96350816 -206.05834961 209.00732422 C-202.53229527 205.49449408 -199.0007571 201.98719427 -195.46936035 198.47973633 C-192.47308792 195.50334483 -189.47897769 192.52480843 -186.48757935 189.54351807 C-185.1011466 188.16346867 -183.71162702 186.78652256 -182.32202148 185.40966797 C-178.59646656 181.6984596 -174.9269996 177.99041733 -171.5 174 C-167.23689003 169.03601111 -162.58320904 164.47808026 -157.9375 159.875 C-156.97748625 158.9194063 -156.01777547 157.96350816 -155.05834961 157.00732422 C-151.53229527 153.49449408 -148.0007571 149.98719427 -144.46936035 146.47973633 C-141.47308792 143.50334483 -138.47897769 140.52480843 -135.48757935 137.54351807 C-134.1011466 136.16346867 -132.71162702 134.78652256 -131.32202148 133.40966797 C-126.97617899 129.08056066 -122.80844584 124.69027056 -118.81298828 120.0378418 C-115.11291386 115.87887045 -111.10954802 112.00987363 -107.15625 108.09375 C-105.7380835 106.68137068 -104.31991993 105.26898839 -102.90192413 103.85643768 C-99.93933555 100.90687976 -96.97215979 97.96193688 -94.00579834 95.01617432 C-91.55418969 92.58122894 -89.10362669 90.14525184 -86.65563965 87.70666504 C-84.82931571 85.88779387 -83.00074639 84.07117348 -81.16955566 82.25720215 C-77.49907959 78.60119831 -73.88976914 74.94489923 -70.51367188 71.01367188 C-66.24511716 66.04584234 -61.58781492 61.48264388 -56.9375 56.875 C-55.97748625 55.9194063 -55.01777547 54.96350816 -54.05834961 54.00732422 C-50.53229527 50.49449408 -47.0007571 46.98719427 -43.46936035 43.47973633 C-40.47308792 40.50334483 -37.47897769 37.52480843 -34.48757935 34.54351807 C-33.1011466 33.16346867 -31.71162702 31.78652256 -30.32202148 30.40966797 C-25.85962544 25.96445594 -21.55289991 21.45947592 -17.45037842 16.6796875 C-15.73066362 14.68808075 -13.9289188 12.79968743 -12.0703125 10.9375 C-11.420625 10.28652344 -10.7709375 9.63554688 -10.1015625 8.96484375 C-9.44929688 8.31644531 -8.79703125 7.66804687 -8.125 7 C-7.44953125 6.32066406 -6.7740625 5.64132812 -6.078125 4.94140625 C-5.43617188 4.30074219 -4.79421875 3.66007813 -4.1328125 3 C-3.26487061 2.13375 -3.26487061 2.13375 -2.37939453 1.25 C-1 0 -1 0 0 0 Z " fill="#EC8429" transform="translate(461,630)"/>
<path d="M0 0 C21.78 0 43.56 0 66 0 C68.31664783 7.52910544 70.55921654 14.87226389 72.375 22.5 C74.00412363 29.17128957 75.76044978 35.78386209 77.6875 42.375 C80.65237627 52.55861897 83.36733936 62.80496514 86.0625 73.0625 C86.28211395 73.89810455 86.50172791 74.73370911 86.72799683 75.59463501 C89.32494785 85.48791318 91.87820433 95.38913074 94.30224609 105.32641602 C95.76906367 111.2665676 97.46677179 117.12903677 99.1875 123 C101.32590404 130.29919279 103.09120501 137.43193134 104 145 C104.66 145 105.32 145 106 145 C106.12761719 144.17371094 106.25523438 143.34742188 106.38671875 142.49609375 C107.06144028 138.64975125 107.90991141 134.86007726 108.8125 131.0625 C108.98918213 130.31597168 109.16586426 129.56944336 109.34790039 128.80029297 C110.93149712 122.17236127 112.67284912 115.59130474 114.45703125 109.01464844 C115.46778064 105.26433189 116.45117527 101.50679957 117.4375 97.75 C117.81117997 96.32812028 118.18487863 94.90624548 118.55859375 93.484375 C118.77660645 92.65470215 118.99461914 91.8250293 119.21923828 90.97021484 C120.61060327 85.67711087 122.00344246 80.38439542 123.39672852 75.09179688 C124.43989134 71.12901914 125.48221111 67.16602055 126.52408504 63.20290375 C128.47927408 55.76609101 130.43744337 48.33007033 132.39906216 40.89495087 C133.43748168 36.95860722 134.47453946 33.02191417 135.50878906 29.08447266 C136.52305016 25.22332996 137.54061083 21.36307117 138.56053925 17.50342178 C138.94609211 16.04203734 139.33044321 14.58033529 139.71356964 13.11831284 C140.24370614 11.09609048 140.77805752 9.07502826 141.31347656 7.05419922 C141.61594299 5.90571503 141.91840942 4.75723083 142.2300415 3.57394409 C143 1 143 1 144 0 C165.78 0 187.56 0 210 0 C210 71.61 210 143.22 210 217 C196.47 217 182.94 217 169 217 C168.67 163.21 168.34 109.42 168 54 C164.04 69.84 160.08 85.68 156 102 C153.525 110.91 153.525 110.91 151 120 C150.05676464 123.64662096 149.12569025 127.29015689 148.22924805 130.94775391 C147.99443222 131.89647873 147.75961639 132.84520355 147.51768494 133.82267761 C146.76324589 136.87337351 146.0124282 139.92494692 145.26171875 142.9765625 C144.73100624 145.1256563 144.2000622 147.27469295 143.66889954 149.42367554 C142.28736588 155.01571127 140.90892885 160.6085056 139.53118896 166.20147705 C137.86898483 172.94637267 136.20284122 179.69029614 134.5373764 186.43438721 C132.02193844 196.62219293 129.51143229 206.81120233 127 217 C112.48 217 97.96 217 83 217 C75.51565282 187.89079725 68.18141994 158.75106456 60.99078369 129.5682373 C59.0080623 121.52332525 57.02172737 113.47930423 55.03600311 105.43513298 C54.36268036 102.70644432 53.69006652 99.97758191 53.01763916 97.24867249 C49.37797074 82.49064006 45.68666323 67.74665291 42 53 C41.67 107.12 41.34 161.24 41 217 C27.47 217 13.94 217 0 217 C0 145.39 0 73.78 0 0 Z " fill="#313C4C" transform="translate(1155,630)"/>
<path d="M0 0 C14.19 0 28.38 0 43 0 C49.74335323 10.11502984 49.74335323 10.11502984 52.19140625 14.171875 C52.73667969 15.07228516 53.28195312 15.97269531 53.84375 16.90039062 C54.4109375 17.84076172 54.978125 18.78113281 55.5625 19.75 C60.17079054 27.35710382 64.80669367 34.94504449 69.5 42.5 C74.56562363 50.65983187 79.57300428 58.85356522 84.55859375 67.0625 C89.6809321 75.49066464 94.84992918 83.88963195 100.02514648 92.28540039 C105.03434759 100.41707841 110.01093368 108.56806082 114.95703125 116.73828125 C119.89427363 124.87672817 124.95305684 132.92489094 130 141 C130.495 71.205 130.495 71.205 131 0 C144.86 0 158.72 0 173 0 C173 71.94 173 143.88 173 218 C158.15 218 143.3 218 128 218 C117.04197473 205.29706625 117.04197473 205.29706625 114.984375 199.421875 C112.1640259 191.97109468 108.24601458 185.55195559 103.9375 178.875 C102.60084262 176.71248801 101.26877975 174.54712917 99.94140625 172.37890625 C95.49734274 165.17305728 91.00064951 158.0005223 86.50366211 150.82763672 C82.28278686 144.08334572 78.12428188 137.30372945 74 130.5 C66.78218936 118.59378443 59.3977515 106.79496271 52 95 C48.7 89.72 45.4 84.44 42 79 C41.67 124.54 41.34 170.08 41 217 C27.47 217 13.94 217 0 217 C0 145.39 0 73.78 0 0 Z " fill="#323D4D" transform="translate(735,630)"/>
<path d="M0 0 C130.86217949 0 130.86217949 0 148.82421875 17.66015625 C149.54222656 18.43230469 150.26023437 19.20445312 151 20 C151.72832031 20.78246094 152.45664063 21.56492187 153.20703125 22.37109375 C166.64593021 37.95423262 168.21863085 58.28187585 167 78 C164.73323605 94.06735626 157.64592752 109.5136763 145 120 C121.65770887 137.25456397 93.71347697 136.17977168 66 136.0625 C59.07 136.041875 52.14 136.02125 45 136 C45 163.06 45 190.12 45 218 C30.15 218 15.3 218 0 218 C0 146.06 0 74.12 0 0 Z " fill="#333E4E" transform="translate(953,630)"/>
<path d="M0 0 C0 66.66 0 133.32 0 202 C-65.34 202 -130.68 202 -198 202 C-189.95618594 192.61555027 -181.74157935 183.59553434 -172.9609375 174.8984375 C-171.54711534 173.49040244 -170.13329611 172.08236443 -168.71964455 170.6741581 C-166.27360014 168.23892047 -163.82420619 165.807057 -161.375 163.375 C-158.43857046 160.4590771 -155.50279763 157.54251286 -152.57095337 154.62197876 C-150.75576181 152.8142326 -148.93832649 151.00873559 -147.11825562 149.2059021 C-143.46624306 145.56840079 -139.8771249 141.92943316 -136.51806641 138.01806641 C-132.24776295 133.04900152 -127.58929523 128.4841106 -122.9375 123.875 C-121.97748625 122.9194063 -121.01777547 121.96350816 -120.05834961 121.00732422 C-116.53229527 117.49449408 -113.0007571 113.98719427 -109.46936035 110.47973633 C-106.47308792 107.50334483 -103.47897769 104.52480843 -100.48757935 101.54351807 C-99.1011466 100.16346867 -97.71162702 98.78652256 -96.32202148 97.40966797 C-91.97617899 93.08056066 -87.80844584 88.69027056 -83.81298828 84.0378418 C-80.11291386 79.87887045 -76.10954802 76.00987363 -72.15625 72.09375 C-70.7380835 70.68137068 -69.31991993 69.26898839 -67.90192413 67.85643768 C-64.93933555 64.90687976 -61.97215979 61.96193688 -59.00579834 59.01617432 C-56.55418969 56.58122894 -54.10362669 54.14525184 -51.65563965 51.70666504 C-49.82931571 49.88779387 -48.00074639 48.07117348 -46.16955566 46.25720215 C-41.83020864 41.93496463 -37.66337699 37.54756802 -33.6729126 32.90222168 C-30.77797021 29.61046443 -27.67386141 26.53121471 -24.5703125 23.4375 C-23.89451141 22.76074219 -23.21871033 22.08398438 -22.52243042 21.38671875 C-21.11025626 19.97387005 -19.69684251 18.56225932 -18.28222656 17.15185547 C-16.10624195 14.98128865 -13.93572517 12.8053546 -11.765625 10.62890625 C-10.38834188 9.25228289 -9.01074915 7.8759692 -7.6328125 6.5 C-6.65636276 5.52051392 -6.65636276 5.52051392 -5.66018677 4.52124023 C-1.11498696 0 -1.11498696 0 0 0 Z " fill="#5D595B" transform="translate(461,833)"/>
<path d="M0 0 C3.15426625 1.49766614 6.31576604 2.97926158 9.47802734 4.45996094 C23.30306845 10.97121165 36.77396578 17.97630952 50.09130859 25.46777344 C51.40542725 26.20229736 51.40542725 26.20229736 52.74609375 26.95166016 C94.61413823 50.38509416 134.38210938 77.55448188 171.39990234 108.07617188 C173.8280846 110.07395462 176.27417274 112.04958767 178.71630859 114.03027344 C189.82740761 123.15132487 200.52384744 132.62498937 210.97436523 142.49438477 C213.52314474 144.8703258 216.10802984 147.20493125 218.68896484 149.54589844 C225.01926783 155.31835479 231.10170529 161.32581666 237.14770508 167.39379883 C238.91618079 169.16768347 240.69000903 170.93609121 242.46435547 172.70410156 C247.67499257 177.91168976 252.81768519 183.11957467 257.59887695 188.73022461 C260.12414705 191.67024543 262.80748267 194.46155178 265.46630859 197.28027344 C270.11770037 202.25096298 274.5428091 207.32998536 278.79833984 212.64746094 C280.92592609 215.26435577 283.11120625 217.81228914 285.32714844 220.35375977 C292.0559293 228.08176784 298.29169721 236.12458398 304.45458984 244.30761719 C306.05864828 246.42466807 307.68047383 248.52657736 309.31005859 250.62402344 C364.0223242 321.15350036 406.17602378 402.24428405 463.09130859 595.46777344 C463.23097046 596.19744324 463.37063232 596.92711304 463.51452637 597.67889404 C468.01091538 621.29318965 471.31999803 645.04835122 473.82702637 668.95349121 C473.99790689 670.57918455 474.17131808 672.20461475 474.34777832 673.82971191 C480.05052454 726.43229146 479.69685448 781.87676073 474.09130859 834.46777344 C474.00409546 835.30693298 473.91688232 836.14609253 473.82702637 837.01068115 C465.70955422 914.97231249 447.217065 991.82922057 370.64404297 1161.76806641 C369.11998994 1164.41790578 367.62477706 1167.08192415 366.13818359 1169.75292969 C359.23695095 1182.10638993 351.73379062 1193.97950415 343.89453125 1205.7578125 C342.19627677 1208.31002272 340.5075833 1210.86826736 338.82177734 1213.42871094 C333.21196713 1221.92777763 327.48207299 1230.32318249 321.48535156 1238.55419922 C320.48986923 1239.92067742 319.49699161 1241.28905472 318.50585938 1242.65869141 C310.81242241 1253.2829615 302.8816302 1263.6413059 294.51513672 1273.74414062 C292.50290387 1276.18007409 290.5182311 1278.63819819 288.52880859 1281.09277344 C280.48003071 1290.90727956 272.17780192 1300.47002814 263.55615234 1309.78417969 C261.44314712 1312.08470994 259.38025825 1314.41436526 257.34130859 1316.78027344 C254.66863662 1319.86657321 251.84456408 1322.73901934 248.93041992 1325.59619141 C247.16813534 1327.38959026 245.53147386 1329.2391111 243.89990234 1331.15136719 C240.00084221 1335.63410043 235.86486214 1339.84196185 231.65380859 1344.03027344 C230.58549805 1345.10438477 230.58549805 1345.10438477 229.49560547 1346.20019531 C225.42327612 1350.26512715 221.25959734 1354.15638042 216.88208008 1357.89135742 C215.0383484 1359.51439429 213.31061808 1361.21417058 211.59130859 1362.96777344 C208.60258523 1366.00372268 205.4742438 1368.81286003 202.24755859 1371.59277344 C199.89167902 1373.64136437 197.58623399 1375.73980345 195.27880859 1377.84277344 C190.96356283 1381.73701961 186.52039104 1385.43432068 182.00146484 1389.08886719 C179.42215664 1391.19732181 176.88171184 1393.34108433 174.35107422 1395.50708008 C168.00362506 1400.93596917 161.51012889 1406.11841266 154.84082031 1411.14794922 C152.99505889 1412.5403838 151.15455567 1413.93960675 149.31396484 1415.33886719 C89.16722258 1460.9197545 22.57459086 1499.2892993 -47.90869141 1526.46777344 C-48.89709015 1526.84902374 -48.89709015 1526.84902374 -49.90545654 1527.23797607 C-128.44579623 1557.47562603 -210.30777885 1576.11978753 -350.68655777 1583.78583145 C-353.26405144 1583.78017945 -355.84153849 1583.77736625 -358.41903687 1583.77474976 C-383.21620423 1583.73817987 -407.88896122 1583.39193223 -432.56616211 1580.7210083 C-435.01622382 1580.45614884 -437.46723257 1580.20161136 -439.91845703 1579.94775391 C-525.29255071 1570.98824963 -609.68378272 1549.470535 -770.90869141 1472.46777344 C-771.73079102 1471.98711426 -772.55289062 1471.50645508 -773.39990234 1471.01123047 C-793.07222118 1459.494873 -812.40803232 1447.32202716 -830.86962891 1433.94189453 C-833.01052375 1432.3941547 -835.16179129 1430.86169221 -837.31494141 1429.33105469 C-861.38475568 1412.16657898 -884.57298378 1393.6099362 -906.43212891 1373.69824219 C-908.52735901 1371.81121318 -910.64185372 1369.95240743 -912.76806641 1368.10058594 C-924.45534263 1357.88678109 -935.4885201 1346.98966903 -946.47119141 1336.03027344 C-947.03553894 1335.4685141 -947.59988647 1334.90675476 -948.18133545 1334.32797241 C-953.75474666 1328.77473195 -959.27762306 1323.21950232 -964.38989258 1317.23168945 C-966.9268516 1314.28529355 -969.6162948 1311.48308119 -972.28369141 1308.65527344 C-976.93184674 1303.68804251 -981.35347677 1298.61201311 -985.60791016 1293.29980469 C-988.26779518 1290.02575266 -991.02140519 1286.84279654 -993.78369141 1283.65527344 C-999.72342193 1276.7643638 -1005.3599356 1269.6753831 -1010.90869141 1262.46777344 C-1011.52292969 1261.67419434 -1012.13716797 1260.88061523 -1012.77001953 1260.06298828 C-1020.94699606 1249.4900697 -1028.9601071 1238.85960846 -1036.38623047 1227.74414062 C-1038.14293952 1225.11752818 -1039.91289177 1222.50002509 -1041.68212891 1219.88183594 C-1050.40567055 1206.93095801 -1058.85602336 1193.84634507 -1066.90869141 1180.46777344 C-1067.4463916 1179.57783691 -1067.9840918 1178.68790039 -1068.53808594 1177.77099609 C-1111.62627082 1106.14371853 -1143.12666139 1027.86883754 -1160.09619141 549.21777344 C-1155.37759615 530.42808925 -1149.89859758 511.8890615 -1143.90869141 493.46777344 C-1143.68310547 492.7738147 -1143.45751953 492.07985596 -1143.22509766 491.36486816 C-1125.04298137 435.62662411 -1100.56371359 381.67570182 -1070.58740234 331.29443359 C-1069.01935152 328.65410601 -1067.46596485 326.00575753 -1065.91650391 323.35449219 C-1058.09523579 310.0472349 -1049.60398268 297.2175622 -1040.90869141 284.46777344 C-1040.30766602 283.58557129 -1039.70664063 282.70336914 -1039.08740234 281.79443359 C-1030.12241954 268.68733841 -1020.63558461 256.01708595 -1010.90869141 243.46777344 C-1010.38114258 242.78424805 -1009.85359375 242.10072266 -1009.31005859 241.39648438 C-1003.18382326 233.46530645 -996.8572036 225.73349588 -990.33105469 218.12841797 C-988.86052141 216.41153377 -987.39772217 214.68828662 -985.93603516 212.96386719 C-979.91920658 205.88135599 -973.76546467 198.959397 -967.44488525 192.14674377 C-966.27807541 190.87148863 -965.12303981 189.58544866 -963.97357178 188.29454041 C-958.81110221 182.49715379 -953.49427072 176.90589594 -947.99853516 171.42480469 C-947.18679337 170.61210617 -946.37505157 169.79940765 -945.53871155 168.96208191 C-943.83831422 167.26100992 -942.13667695 165.56117654 -940.43383789 163.86254883 C-937.84552486 161.27960828 -935.2626158 158.69135003 -932.68017578 156.10253906 C-931.01578287 154.43880679 -929.35107987 152.77538465 -927.68603516 151.11230469 C-926.5435154 149.96674858 -926.5435154 149.96674858 -925.37791443 148.79804993 C-921.2512371 144.68916404 -917.04083643 140.74027022 -912.62362671 136.94459534 C-910.22955411 134.88293223 -907.91675223 132.73649525 -905.59619141 130.59277344 C-901.13480796 126.52359952 -896.54924423 122.66799527 -891.85009766 118.87792969 C-889.13208599 116.65082053 -886.46824095 114.37563622 -883.81396484 112.07373047 C-877.33994054 106.460897 -870.71299616 101.11478748 -863.87011719 95.95654297 C-861.59987546 94.23337467 -859.34606128 92.48976375 -857.09228516 90.74511719 C-846.31710589 82.42803512 -835.38054733 74.46791121 -824.06201172 66.90673828 C-822.05539595 65.56580933 -820.05532413 64.21573645 -818.05712891 62.86230469 C-745.58855893 13.93662784 -665.74932022 -23.04871961 -398.90869141 -77.53222656 C-397.87292969 -77.59007324 -396.83716797 -77.64791992 -395.77001953 -77.70751953 C-309.79991259 -82.32382387 -223.10952569 -72.97097396 0 0 Z M-504.90869141 -61.53222656 C-506.33084728 -61.2715662 -507.75304657 -61.01114258 -509.17529297 -60.75097656 C-534.72289857 -56.04567912 -560.04174198 -50.05231892 -584.90869141 -42.53222656 C-585.99585449 -42.20496582 -587.08301758 -41.87770508 -588.203125 -41.54052734 C-673.4143551 -15.78502343 -753.90305502 22.39603385 -826.90869141 73.46777344 C-827.54210449 73.91072754 -828.17551758 74.35368164 -828.828125 74.81005859 C-854.53058699 92.84821135 -879.42520013 112.31534686 -902.66650391 133.44042969 C-904.62077565 135.20744543 -906.59928878 136.93690873 -908.59619141 138.65527344 C-920.13800242 148.74005478 -931.08385698 159.47816251 -941.90039062 170.32910156 C-943.93195341 172.36609765 -945.96890977 174.39759295 -948.00634766 176.42871094 C-949.32828348 177.75130661 -950.64990958 179.07421193 -951.97119141 180.39746094 C-952.86354492 181.28677811 -952.86354492 181.28677811 -953.77392578 182.19406128 C-957.45403924 185.89446567 -960.94276139 189.71865724 -964.35049438 193.67146301 C-966.60114593 196.2660443 -968.94260716 198.76694725 -971.28369141 201.28027344 C-975.55709112 205.90558297 -979.5975287 210.66859245 -983.54541016 215.57714844 C-985.70216489 218.21516249 -987.9112924 220.790971 -990.1496582 223.35913086 C-996.92366245 231.14139977 -1003.19894742 239.24507967 -1009.40527344 247.48388672 C-1010.76646041 249.28008765 -1012.14225699 251.0629805 -1013.52978516 252.83886719 C-1038.08612897 284.31027742 -1059.6899773 318.52812936 -1078.90869141 353.46777344 C-1079.5097168 354.56009277 -1080.11074219 355.65241211 -1080.72998047 356.77783203 C-1112.37704149 414.53907812 -1138.72248714 476.71897391 -1154.05175781 540.92529297 C-1154.84606443 544.20887959 -1155.67004898 547.48300403 -1156.50558472 550.75624084 C-1162.13696908 572.83383753 -1166.7356696 594.98600632 -1170.56164551 617.4453125 C-1170.8774938 619.28596483 -1171.20264347 621.12501498 -1171.52880859 622.96386719 C-1175.04698821 642.83267912 -1176.73589146 662.91217703 -1178.43408203 683.00317383 C-1178.74546294 686.67007857 -1179.09146111 690.33148308 -1179.46142578 693.99291992 C-1181.057508 710.35087655 -1181.23109087 726.64742332 -1181.16724777 743.06460953 C-1181.15854822 745.31735265 -1181.15225145 747.57009361 -1181.14627075 749.82284546 C-1180.87055919 842.19666355 -1166.77644649 932.56374751 -1094.90869141 1121.46777344 C-1094.22057373 1122.88485596 -1094.22057373 1122.88485596 -1093.51855469 1124.33056641 C-1086.53239112 1138.70289354 -1078.9147128 1152.63989266 -1070.90869141 1166.46777344 C-1070.46138672 1167.24491699 -1070.01408203 1168.02206055 -1069.55322266 1168.82275391 C-1059.98312724 1185.43423107 -1049.72361815 1201.63927918 -1038.90869141 1217.46777344 C-1038.40144531 1218.21075684 -1037.89419922 1218.95374023 -1037.37158203 1219.71923828 C-1028.29790734 1232.95845598 -1018.74694721 1245.78852398 -1008.90869141 1258.46777344 C-1008.37050781 1259.16193359 -1007.83232422 1259.85609375 -1007.27783203 1260.57128906 C-995.3178581 1275.96608086 -982.95369611 1291.03533512 -969.70654297 1305.34375 C-967.18008696 1308.07261691 -964.70516721 1310.83300164 -962.28369141 1313.65527344 C-959.05996232 1317.38030011 -955.5819995 1320.81018807 -952.07666016 1324.26855469 C-950.19827332 1326.17401737 -948.44867198 1328.11449664 -946.72119141 1330.15527344 C-939.41185394 1338.66006329 -931.25234435 1346.65336094 -922.69775391 1353.89746094 C-920.67552861 1355.67242725 -918.79654514 1357.55076367 -916.90869141 1359.46777344 C-913.73753111 1362.68212075 -910.45286388 1365.68528307 -907.02978516 1368.62792969 C-904.68378082 1370.66286162 -902.3913269 1372.7506831 -900.09619141 1374.84277344 C-895.78094564 1378.73701961 -891.33777386 1382.43432068 -886.81884766 1386.08886719 C-884.23985175 1388.19706652 -881.6996846 1390.34052031 -879.16943359 1392.50634766 C-872.88005951 1397.88517057 -866.44336666 1403.03233366 -859.83447266 1408.01464844 C-857.66750163 1409.64976654 -855.50715579 1411.29347614 -853.34619141 1412.93652344 C-796.06111491 1456.34946946 -733.24984464 1491.82877409 -666.97119141 1519.53027344 C-666.23681854 1519.83819824 -665.50244568 1520.14612305 -664.74581909 1520.46337891 C-654.2577797 1524.8470303 -643.6658209 1528.79696663 -632.90869141 1532.46777344 C-632.2040274 1532.70920074 -631.4993634 1532.95062805 -630.77334595 1533.19937134 C-578.64189857 1551.03727539 -526.0916748 1564.42613862 -471.53369141 1572.40527344 C-470.56105347 1572.54884277 -469.58841553 1572.69241211 -468.58630371 1572.84033203 C-456.90292426 1574.54944127 -445.23517866 1575.9006372 -433.46231079 1576.82493591 C-428.88858701 1577.18547617 -424.43279219 1577.68393754 -419.90869141 1578.46777344 C-418.16723723 1578.59379866 -416.42315414 1578.68771195 -414.67822266 1578.74902344 C-413.22512695 1578.80509766 -413.22512695 1578.80509766 -411.74267578 1578.86230469 C-410.74558594 1578.89710937 -409.74849609 1578.93191406 -408.72119141 1578.96777344 C-406.74843744 1579.03799672 -404.77577725 1579.11090667 -402.80322266 1579.18652344 C-401.50155151 1579.23196289 -401.50155151 1579.23196289 -400.17358398 1579.27832031 C-397.4017028 1579.43916528 -394.66881842 1579.69319323 -391.90771484 1579.97485352 C-385.27977538 1580.58970159 -378.6823185 1580.62917926 -372.02978516 1580.63574219 C-370.0606012 1580.64216232 -370.0606012 1580.64216232 -368.05163574 1580.64871216 C-363.81647235 1580.66037911 -359.58136553 1580.65914772 -355.34619141 1580.65527344 C-354.62351704 1580.65485928 -353.90084267 1580.65444511 -353.15626907 1580.6540184 C-332.09110841 1580.63885969 -311.09737668 1580.58086416 -290.10101318 1578.66381836 C-287.72345811 1578.45120924 -285.3448753 1578.25465637 -282.96582031 1578.05957031 C-217.94235178 1572.64421398 -153.81846403 1558.96025639 -91.90869141 1538.46777344 C-91.17515442 1538.22498657 -90.44161743 1537.98219971 -89.68585205 1537.73205566 C-59.33606236 1527.64433563 -29.79509666 1515.60655538 -0.90527344 1501.88818359 C2.06822033 1500.47871751 5.0495494 1499.08710154 8.03271484 1497.69824219 C20.38383786 1491.91442754 32.4182873 1485.67807117 44.31884766 1479.01806641 C47.12061461 1477.45138623 49.9298195 1475.89866841 52.73974609 1474.34667969 C106.78714518 1444.32753204 157.6966197 1407.31304244 203.04492188 1365.27880859 C204.90419866 1363.55784787 206.77424282 1361.85324958 208.65771484 1360.15844727 C217.23421638 1352.42071385 225.41019018 1344.30157617 233.56567383 1336.1237793 C235.91357915 1333.77048044 238.26682827 1331.42261954 240.62060547 1329.07519531 C242.13850456 1327.55663586 243.65609366 1326.03776648 245.17333984 1324.51855469 C245.86514847 1323.82877029 246.55695709 1323.1389859 247.26972961 1322.42829895 C251.19240017 1318.48693521 254.94108154 1314.44557685 258.56758118 1310.22961426 C260.80381882 1307.643919 263.13624495 1305.15676819 265.46630859 1302.65527344 C269.73526054 1298.03477794 273.77162154 1293.27670592 277.71630859 1288.37402344 C279.92902139 1285.66636173 282.19250694 1283.01612434 284.48339844 1280.375 C290.11228393 1273.88355228 295.49295403 1267.24832265 300.65429688 1260.37744141 C302.28094705 1258.21575984 303.91867883 1256.0626731 305.55615234 1253.90917969 C317.98565238 1237.5093255 329.88257195 1220.72732074 341.09130859 1203.46777344 C341.54151367 1202.77458008 341.99171875 1202.08138672 342.45556641 1201.3671875 C355.07989824 1181.83797781 366.67197289 1161.68721822 377.63671875 1141.18457031 C378.59799257 1139.38915993 379.56373862 1137.59613605 380.53417969 1135.80566406 C418.12849536 1066.3890379 444.64872396 989.01153681 459.09130859 911.46777344 C459.20841187 910.83911377 459.32551514 910.2104541 459.44616699 909.56274414 C462.78232329 891.59849459 465.9572497 873.61966531 468.09130859 855.46777344 C468.16694031 854.83371582 468.24257202 854.1996582 468.32049561 853.54638672 C469.71298938 841.86665154 470.96605597 830.1762739 472.09130859 818.46777344 C472.2757251 816.56342529 472.2757251 816.56342529 472.46386719 814.62060547 C474.37386228 793.65062944 474.27115912 772.62954272 474.27880859 751.59277344 C474.27939774 750.86367264 474.27998688 750.13457184 474.28059387 749.38337708 C474.28352922 745.12335369 474.27941181 740.86343015 474.26532173 736.60342789 C474.25946504 734.66277926 474.2574686 732.72212018 474.25559998 730.78146362 C474.22258984 724.498208 473.97186922 718.32986756 473.33161926 712.07983398 C473.00939553 708.57741811 472.89860652 705.08127202 472.78814697 701.56678772 C472.36715733 688.28600396 470.99503487 675.20698348 469.34130859 662.03027344 C469.20714539 660.9421637 469.07298218 659.85405396 468.93475342 658.73297119 C463.71561796 616.41663815 456.50413503 574.58196878 445.09130859 533.46777344 C444.74487305 532.20739258 444.3984375 530.94701172 444.04150391 529.6484375 C438.52391572 509.64070346 432.10776744 489.99742734 425.09130859 470.46777344 C424.66124512 469.26475586 424.23118164 468.06173828 423.78808594 466.82226562 C406.9909696 420.19567693 385.06046902 374.69316616 359.69628906 332.16015625 C358.29961292 329.81720758 356.91483869 327.46775259 355.53271484 325.11621094 C342.31936611 302.86759503 327.63224038 281.15141542 312.09130859 260.46777344 C311.56811035 259.7687793 311.04491211 259.06978516 310.50585938 258.34960938 C303.07604735 248.45061499 295.38321743 238.78210509 287.52685547 229.21923828 C286.25543648 227.66802063 284.99300749 226.10944409 283.73193359 224.54980469 C274.07220303 212.61615944 263.92580453 201.16051084 253.39599609 189.99121094 C250.58102898 187.00321226 247.83224624 183.9614627 245.09130859 180.90527344 C239.53174029 174.82215834 233.72273023 168.98873037 227.90380859 163.15527344 C227.42999756 162.67887421 226.95618652 162.20247498 226.46801758 161.7116394 C221.43560865 156.65755409 216.36308864 151.72232392 210.94799805 147.0793457 C207.80091472 144.34773531 204.80291754 141.45884052 201.77880859 138.59277344 C196.66588493 133.7842206 191.46157213 129.19720029 185.97412109 124.81542969 C181.77685834 121.3973336 177.71609393 117.82589732 173.65576172 114.24682617 C168.94620548 110.12339655 164.06041274 106.27269334 159.09130859 102.46777344 C158.30175781 101.85949707 157.51220703 101.2512207 156.69873047 100.62451172 C127.37215576 78.05615605 97.02398965 57.19486449 65.09130859 38.46777344 C64.35847656 38.03561523 63.62564453 37.60345703 62.87060547 37.15820312 C47.26269913 27.98354733 31.25615424 19.60796671 15.09130859 11.46777344 C14.4719342 11.15519592 13.85255981 10.84261841 13.2144165 10.52056885 C-19.50676543 -5.97321771 -53.26641725 -19.62712125 -87.90869141 -31.53222656 C-89.12927246 -31.95197754 -90.34985352 -32.37172852 -91.60742188 -32.80419922 C-135.27497039 -47.65373547 -180.25403773 -57.417459 -225.65951538 -65.14779663 C-227.92739248 -65.53542296 -230.19404297 -65.92973356 -232.46069336 -66.32446289 C-263.3543887 -71.65499002 -294.59519481 -73.79459731 -325.90869141 -74.53222656 C-327.71137482 -74.57536987 -327.71137482 -74.57536987 -329.55047607 -74.61938477 C-388.5447584 -75.9556086 -446.81074153 -72.35355318 -504.90869141 -61.53222656 Z " fill="#3A4353" transform="translate(1186.90869140625,80.5322265625)"/>
<path d="M0 0 C7.21875 -0.04125 14.4375 -0.0825 21.875 -0.125 C24.13327637 -0.14320801 26.39155273 -0.16141602 28.71826172 -0.18017578 C30.53873457 -0.18602532 32.35921008 -0.19111978 34.1796875 -0.1953125 C35.10015869 -0.20554443 36.02062988 -0.21577637 36.96899414 -0.22631836 C48.65516725 -0.22941403 60.63793799 1.91081559 69.42578125 10.20703125 C76.00783919 17.70371759 76.88012337 25.43968068 76.421875 35.05859375 C75.90463927 39.89091649 74.93857828 43.16166159 72 47 C71.61457031 47.54785156 71.22914062 48.09570312 70.83203125 48.66015625 C64.9044042 56.46774268 56.80092884 59.12677635 47.46435547 60.53222656 C42.57613868 61.12357165 37.73056254 61.12600565 32.8125 61.09765625 C31.97525391 61.09664917 31.13800781 61.09564209 30.27539062 61.09460449 C27.18357958 61.08941971 24.09178824 61.0754589 21 61.0625 C14.07 61.041875 7.14 61.02125 0 61 C0 40.87 0 20.74 0 0 Z " fill="#FEFEFE" transform="translate(998,667)"/>
<path d="M0 0 C3.96 0 7.92 0 12 0 C12.34256836 0.77601563 12.68513672 1.55203125 13.03808594 2.3515625 C14.32625625 5.26712421 15.61617301 8.18190542 16.90722656 11.09619141 C17.46260064 12.35077051 18.01730451 13.60564655 18.57128906 14.86083984 C19.37382799 16.67886575 20.17908641 18.49569038 20.984375 20.3125 C21.46616211 21.40175781 21.94794922 22.49101563 22.44433594 23.61328125 C24.20908807 27.45518984 26.08655138 31.23051078 28 35 C28.44915771 33.97527588 28.89831543 32.95055176 29.36108398 31.89477539 C31.02295328 28.10500132 32.68788433 24.31657904 34.35375977 20.52856445 C35.07530411 18.88668128 35.79600964 17.24442921 36.51586914 15.60180664 C37.54875632 13.2452884 38.58462046 10.89009899 39.62109375 8.53515625 C39.94403915 7.79660904 40.26698456 7.05806183 40.59971619 6.2971344 C42.88612829 1.11387171 42.88612829 1.11387171 44 0 C47.96 0 51.92 0 56 0 C56 16.83 56 33.66 56 51 C52.37 51 48.74 51 45 51 C44.67 41.76 44.34 32.52 44 23 C40.04 32.24 36.08 41.48 32 51 C29.36 51 26.72 51 24 51 C20.96875499 45.10136106 18.29028549 39.12417094 15.75 33 C14.5125 30.03 13.275 27.06 12 24 C11.67 32.91 11.34 41.82 11 51 C7.37 51 3.74 51 0 51 C0 34.17 0 17.34 0 0 Z " fill="#ED8830" transform="translate(735,985)"/>
<path d="M0 0 C3.63 0 7.26 0 11 0 C11 17.82 11 35.64 11 54 C7.37 54 3.74 54 0 54 C0 52.68 0 51.36 0 50 C-0.46148438 50.3609375 -0.92296875 50.721875 -1.3984375 51.09375 C-6.04052016 54.39641751 -9.73423076 55.8701209 -15.47265625 55.54296875 C-20.87034644 54.38334134 -24.84713595 51.45461318 -28.44921875 47.34765625 C-32.38411017 41.03802335 -31.77848837 33.12555168 -31 26 C-29.38397105 20.54363261 -25.47359646 17.23621871 -21 14 C-16.21010828 12.40336943 -11.41731613 12.08652575 -6.6328125 13.89453125 C-4.7178505 14.85882706 -2.85320514 15.92177156 -1 17 C-0.67 11.39 -0.34 5.78 0 0 Z " fill="#ED872F" transform="translate(1341,895)"/>
<path d="M0 0 C3.63 0 7.26 0 11 0 C11 17.82 11 35.64 11 54 C7.37 54 3.74 54 0 54 C-0.33 53.01 -0.66 52.02 -1 51 C-1.969375 51.66 -2.93875 52.32 -3.9375 53 C-8.28710146 55.46038062 -12.09795582 55.85177363 -17 55 C-23.27950412 52.76449653 -27.36409926 48.27180149 -30.3125 42.375 C-31.78818937 35.13070673 -32.36516532 27.3091749 -28.4453125 20.7578125 C-24.85545122 16.391765 -20.79201157 13.50271676 -15.1796875 12.4921875 C-8.54860149 12.22116219 -6.99074927 13.00616715 -1 17 C-0.67 11.39 -0.34 5.78 0 0 Z " fill="#ED872F" transform="translate(926,982)"/>
<path d="M0 0 C1.92167077 0.9557336 3.78945259 2.01833776 5.64453125 3.09765625 C5.97453125 2.10765625 6.30453125 1.11765625 6.64453125 0.09765625 C10.27453125 0.09765625 13.90453125 0.09765625 17.64453125 0.09765625 C17.64453125 13.29765625 17.64453125 26.49765625 17.64453125 40.09765625 C14.01453125 40.09765625 10.38453125 40.09765625 6.64453125 40.09765625 C6.64453125 38.77765625 6.64453125 37.45765625 6.64453125 36.09765625 C5.25234375 37.05671875 5.25234375 37.05671875 3.83203125 38.03515625 C-1.18145833 41.27917892 -5.5111745 41.91225804 -11.35546875 41.09765625 C-16.80798648 39.0177297 -20.62616295 35.4729067 -23.4453125 30.3984375 C-26.11869164 23.6404104 -26.02483081 16.82383674 -23.3671875 10.1015625 C-18.74975517 0.95583745 -9.92937351 -3.80378985 0 0 Z " fill="#ED872F" transform="translate(1586.35546875,908.90234375)"/>
<path d="M0 0 C1.65234375 1.08984375 1.65234375 1.08984375 3.96484375 3.08984375 C4.29484375 2.09984375 4.62484375 1.10984375 4.96484375 0.08984375 C8.59484375 0.08984375 12.22484375 0.08984375 15.96484375 0.08984375 C15.96484375 13.28984375 15.96484375 26.48984375 15.96484375 40.08984375 C12.33484375 40.08984375 8.70484375 40.08984375 4.96484375 40.08984375 C4.63484375 39.09984375 4.30484375 38.10984375 3.96484375 37.08984375 C2.32515625 38.11078125 2.32515625 38.11078125 0.65234375 39.15234375 C-4.65831564 41.76537616 -9.39425652 41.77063509 -15.03515625 40.08984375 C-19.64284398 37.3843429 -23.85001762 33.47360214 -25.62890625 28.30078125 C-26.88823686 21.4471166 -27.55363323 13.77977243 -24.03515625 7.52734375 C-18.27168672 0.04127299 -9.20995993 -4.11884964 0 0 Z " fill="#ED872E" transform="translate(824.03515625,995.91015625)"/>
<path d="M0 0 C2.26446912 1.13814187 4.23831638 2.39875287 6.2734375 3.90625 C8.08173971 5.26757151 8.08173971 5.26757151 11 5 C12.68704193 3.69254251 14.35360035 2.35827971 16 1 C20.77685943 -0.59228648 25.45842229 -0.99433654 30.2265625 0.87109375 C34.9677615 3.57908194 38.27158116 6.68900086 40 12 C40.47903184 16.98482084 40.37813581 21.9383901 40.25 26.9375 C40.22990673 28.30270821 40.21166094 29.66794493 40.1953125 31.03320312 C40.14834433 34.35620134 40.08266726 37.67772992 40 41 C36.37 41 32.74 41 29 41 C28.97494385 40.19780029 28.9498877 39.39560059 28.92407227 38.5690918 C28.80817957 34.94172926 28.68542249 31.31463083 28.5625 27.6875 C28.52318359 26.42486328 28.48386719 25.16222656 28.44335938 23.86132812 C28.40146484 22.65283203 28.35957031 21.44433594 28.31640625 20.19921875 C28.26141968 18.52605591 28.26141968 18.52605591 28.20532227 16.8190918 C28.11068791 13.92126429 28.11068791 13.92126429 27 11 C23.40735548 9.80245183 20.77282526 9.66905042 17 10 C14.11237371 12.14926141 13.11856779 13.36304281 12.45410156 16.93261719 C12.4331543 18.04282227 12.41220703 19.15302734 12.390625 20.296875 C12.35839844 21.50214844 12.32617188 22.70742188 12.29296875 23.94921875 C12.27878906 25.20347656 12.26460937 26.45773437 12.25 27.75 C12.20552734 29.65458984 12.20552734 29.65458984 12.16015625 31.59765625 C12.08946049 34.73183485 12.03675988 37.86526956 12 41 C8.37 41 4.74 41 1 41 C0.97494385 40.19780029 0.9498877 39.39560059 0.92407227 38.5690918 C0.80817957 34.94172926 0.68542249 31.31463083 0.5625 27.6875 C0.52318359 26.42486328 0.48386719 25.16222656 0.44335938 23.86132812 C0.40146484 22.65283203 0.35957031 21.44433594 0.31640625 20.19921875 C0.27974854 19.08377686 0.24309082 17.96833496 0.20532227 16.8190918 C0.11068791 13.92126429 0.11068791 13.92126429 -1 11 C-4.34423372 10.41284446 -7.59962981 9.95195709 -11 10 C-13.62712528 11.85821056 -14.58664838 13.17329677 -16 16 C-16.15344209 17.88472859 -16.24959571 19.77427874 -16.31640625 21.6640625 C-16.35830078 22.78554688 -16.40019531 23.90703125 -16.44335938 25.0625 C-16.50233398 26.8259375 -16.50233398 26.8259375 -16.5625 28.625 C-16.60568359 29.80835938 -16.64886719 30.99171875 -16.69335938 32.2109375 C-16.79967426 35.14050328 -16.90170642 38.07015588 -17 41 C-20.3 41 -23.6 41 -27 41 C-27 27.8 -27 14.6 -27 1 C-23.7 1 -20.4 1 -17 1 C-16.67 1.99 -16.34 2.98 -16 4 C-15.030625 3.34 -14.06125 2.68 -13.0625 2 C-8.72815566 -0.43806869 -4.88177988 -1.0131996 0 0 Z " fill="#ED872F" transform="translate(1515,908)"/>
<path d="M0 0 C2.80641573 1.39113207 4.63129805 2.89448715 7 5 C7.33 3.68 7.66 2.36 8 1 C11.3 1 14.6 1 18 1 C18 14.2 18 27.4 18 41 C14.7 41 11.4 41 8 41 C8 39.35 8 37.7 8 36 C7.34 36 6.68 36 6 36 C5.67 36.99 5.34 37.98 5 39 C0.142575 42.27876187 -4.3239635 42.74523501 -10 42 C-15.73986542 39.90274148 -19.26602414 36.39169084 -22.8125 31.5 C-24.97214704 25.13472452 -25.2612357 17.36671282 -22.8125 11 C-17.32468416 1.91671861 -10.45837059 -1.67095222 0 0 Z " fill="#ED872E" transform="translate(1383,908)"/>
<path d="M0 0 C2.80641573 1.39113207 4.63129805 2.89448715 7 5 C7.33 3.68 7.66 2.36 8 1 C11.3 1 14.6 1 18 1 C18 14.2 18 27.4 18 41 C14.7 41 11.4 41 8 41 C8 39.35 8 37.7 8 36 C7.34 36 6.68 36 6 36 C5.67 36.99 5.34 37.98 5 39 C0.142575 42.27876187 -4.3239635 42.74523501 -10 42 C-15.73986542 39.90274148 -19.26602414 36.39169084 -22.8125 31.5 C-24.97214704 25.13472452 -25.2612357 17.36671282 -22.8125 11 C-17.32468416 1.91671861 -10.45837059 -1.67095222 0 0 Z " fill="#ED872E" transform="translate(967,908)"/>
<path d="M0 0 C2.11438574 1.17851009 4.12133082 2.40258082 5.84375 4.125 C6.17375 2.805 6.50375 1.485 6.84375 0.125 C10.14375 0.125 13.44375 0.125 16.84375 0.125 C16.84375 13.325 16.84375 26.525 16.84375 40.125 C13.54375 40.125 10.24375 40.125 6.84375 40.125 C6.51375 38.805 6.18375 37.485 5.84375 36.125 C5.13412109 36.66640625 5.13412109 36.66640625 4.41015625 37.21875 C-0.81724943 40.88710486 -4.79845668 42.17871249 -11.15625 41.125 C-17.5379379 38.9977707 -21.52948674 34.30458274 -24.53125 28.4375 C-26.04556281 20.41164212 -26.33310795 13.08181898 -21.76171875 6.0390625 C-16.18488141 -0.60972168 -8.31109214 -3.3726171 0 0 Z " fill="#ED862E" transform="translate(1061.15625,908.875)"/>
<path d="M0 0 C1.83056368 1.22629994 3.4870304 2.5807804 5.046875 4.140625 C5.376875 2.820625 5.706875 1.500625 6.046875 0.140625 C9.346875 0.140625 12.646875 0.140625 16.046875 0.140625 C16.046875 13.340625 16.046875 26.540625 16.046875 40.140625 C12.746875 40.140625 9.446875 40.140625 6.046875 40.140625 C5.716875 38.820625 5.386875 37.500625 5.046875 36.140625 C4.28375 36.78 3.520625 37.419375 2.734375 38.078125 C-1.2735305 41.15395945 -4.64186381 41.54411251 -9.5390625 41.48828125 C-14.87961712 40.71917225 -18.66180747 37.46592457 -22.328125 33.703125 C-26.2499672 27.51868152 -26.75914847 21.31321362 -25.953125 14.140625 C-24.1750749 7.93342017 -20.25488295 3.69563207 -14.953125 0.140625 C-10.24388432 -1.42912189 -4.6544063 -2.04793877 0 0 Z " fill="#ED862D" transform="translate(1461.953125,908.859375)"/>
<path d="M0 0 C1.83056368 1.22629994 3.4870304 2.5807804 5.046875 4.140625 C5.376875 2.820625 5.706875 1.500625 6.046875 0.140625 C9.346875 0.140625 12.646875 0.140625 16.046875 0.140625 C16.046875 13.340625 16.046875 26.540625 16.046875 40.140625 C12.746875 40.140625 9.446875 40.140625 6.046875 40.140625 C5.716875 38.820625 5.386875 37.500625 5.046875 36.140625 C4.304375 36.78 3.561875 37.419375 2.796875 38.078125 C-1.7265232 41.47067365 -6.35283561 41.89430881 -11.953125 41.140625 C-18.18914311 38.82258998 -21.53955502 34.66485711 -24.703125 29.015625 C-26.85507736 23.55846405 -26.91666365 17.47859818 -25.296875 11.8671875 C-23.0452079 6.80093653 -19.53714286 3.21436319 -14.953125 0.140625 C-10.24388432 -1.42912189 -4.6544063 -2.04793877 0 0 Z " fill="#ED862D" transform="translate(1285.953125,908.859375)"/>
<path d="M0 0 C1.83056368 1.22629994 3.4870304 2.5807804 5.046875 4.140625 C5.376875 2.820625 5.706875 1.500625 6.046875 0.140625 C9.346875 0.140625 12.646875 0.140625 16.046875 0.140625 C16.046875 13.340625 16.046875 26.540625 16.046875 40.140625 C12.746875 40.140625 9.446875 40.140625 6.046875 40.140625 C5.716875 38.820625 5.386875 37.500625 5.046875 36.140625 C4.28375 36.78 3.520625 37.419375 2.734375 38.078125 C-1.27255053 41.15320738 -4.64204727 41.54817976 -9.5390625 41.484375 C-15.11907671 40.68980987 -18.8768609 37.47179376 -22.328125 33.203125 C-25.93296931 26.40937995 -27.52939652 19.48295843 -25.30078125 11.9296875 C-23.02521054 6.8316278 -19.57372185 3.23889064 -14.953125 0.140625 C-10.24388432 -1.42912189 -4.6544063 -2.04793877 0 0 Z " fill="#ED862D" transform="translate(898.953125,908.859375)"/>
<path d="M0 0 C11 0 11 0 13.96118164 2.61450195 C14.73413664 3.79725443 15.4659107 5.00767734 16.16015625 6.23828125 C16.56157333 6.87485153 16.96299042 7.51142181 17.37657166 8.1672821 C18.64349476 10.19483365 19.85246841 12.25059845 21.0625 14.3125 C21.90717078 15.68648701 22.75544845 17.05826356 23.60742188 18.42773438 C25.16219966 20.93798297 26.695428 23.45866163 28.20336914 25.99731445 C29.41897283 28.02893692 30.68673253 30.0300988 32 32 C32.33 21.44 32.66 10.88 33 0 C36.3 0 39.6 0 43 0 C43 16.83 43 33.66 43 51 C33 51 33 51 30.73046875 49.296875 C30.22128906 48.45640625 29.71210937 47.6159375 29.1875 46.75 C28.56101562 45.76644531 27.93453125 44.78289063 27.2890625 43.76953125 C26.94133789 43.19154785 26.59361328 42.61356445 26.23535156 42.01806641 C24.7582834 39.60513253 23.2069369 37.24785833 21.6484375 34.88671875 C12.51026467 21.02052934 12.51026467 21.02052934 11 18 C10.67 28.89 10.34 39.78 10 51 C6.7 51 3.4 51 0 51 C0 34.17 0 17.34 0 0 Z " fill="#ED862C" transform="translate(735,898)"/>
<path d="M0 0 C26.63043478 0 26.63043478 0 33.09375 4.4375 C36.35034274 8.05593638 37.41038156 10.71752694 37.5625 15.625 C37.23507381 21.19124527 35.70988196 24.00513771 32.125 28.1875 C27.54711201 32.09216917 22.9932351 32.26832017 17.1875 32.125 C13.6296875 32.063125 13.6296875 32.063125 10 32 C10 38.27 10 44.54 10 51 C6.7 51 3.4 51 0 51 C0 34.17 0 17.34 0 0 Z " fill="#ED872E" transform="translate(1105,898)"/>
<path d="M0 0 C6.31342614 2.90369408 9.57429352 7.12124329 12.671875 13.31640625 C12.671875 16.61640625 12.671875 19.91640625 12.671875 23.31640625 C2.771875 23.31640625 -7.128125 23.31640625 -17.328125 23.31640625 C-14.34507536 30.03905615 -14.34507536 30.03905615 -11.328125 31.31640625 C-7.91211907 31.73333478 -7.91211907 31.73333478 -4.328125 31.31640625 C-3.72226563 30.65511719 -3.11640625 29.99382813 -2.4921875 29.3125 C-0.328125 27.31640625 -0.328125 27.31640625 2.6875 26.92578125 C3.75484375 26.9721875 4.8221875 27.01859375 5.921875 27.06640625 C6.99953125 27.1025 8.0771875 27.13859375 9.1875 27.17578125 C10.00734375 27.2221875 10.8271875 27.26859375 11.671875 27.31640625 C10.39755079 33.26325258 7.45327392 35.94006754 2.671875 39.31640625 C-1.91928832 42.04628714 -7.13708312 41.95737331 -12.328125 41.31640625 C-18.27235993 39.40723357 -22.96551872 35.88953518 -26.43359375 30.64453125 C-28.73871569 24.64517459 -28.4191781 15.66749791 -26.453125 9.62890625 C-23.7114158 4.86699027 -20.22908724 2.62818089 -15.328125 0.31640625 C-10.86420498 -1.91555376 -4.69069697 -1.37730196 0 0 Z " fill="#ED872E" transform="translate(1174.328125,908.68359375)"/>
<path d="M0 0 C3.96 0 7.92 0 12 0 C15.33333333 8.33333333 18.66666667 16.66666667 22 25 C22.2673999 24.27820557 22.5347998 23.55641113 22.81030273 22.81274414 C24.01653593 19.56160355 25.22695944 16.31203908 26.4375 13.0625 C26.85837891 11.92619141 27.27925781 10.78988281 27.71289062 9.61914062 C28.11572266 8.53955078 28.51855469 7.45996094 28.93359375 6.34765625 C29.30540771 5.34742432 29.67722168 4.34719238 30.06030273 3.31665039 C31 1 31 1 32 0 C33.85287502 -0.07226502 35.70833878 -0.0838122 37.5625 -0.0625 C38.57441406 -0.05347656 39.58632812 -0.04445313 40.62890625 -0.03515625 C41.41136719 -0.02355469 42.19382812 -0.01195312 43 0 C40.94507737 6.49486559 38.52748865 12.76685099 35.875 19.0390625 C35.29274658 20.42670303 35.29274658 20.42670303 34.69873047 21.84237671 C33.46890189 24.77122434 32.23450538 27.69812104 31 30.625 C30.17157804 32.5962294 29.34345043 34.56758252 28.515625 36.5390625 C25.36566147 44.03550391 22.21179293 51.52980395 19 59 C15.04 59 11.08 59 7 59 C7.61230469 57.74445312 8.22460938 56.48890625 8.85546875 55.1953125 C9.63444739 53.50596124 10.41170014 51.81581341 11.1875 50.125 C11.59419922 49.30257812 12.00089844 48.48015625 12.41992188 47.6328125 C14.93852084 42.02619219 15.35403947 38.58517639 13.19018555 32.81640625 C12.79742432 31.88699219 12.40466309 30.95757813 12 30 C11.54214111 28.84886719 11.08428223 27.69773437 10.61254883 26.51171875 C9.05921585 22.63367081 7.43944056 18.78511682 5.8125 14.9375 C4.97512138 12.9470729 4.13918083 10.95605972 3.30509949 8.96424866 C2.55757338 7.18061418 1.80587526 5.3987299 1.05395508 3.61694336 C0 1 0 1 0 0 Z " fill="#ED872E" transform="translate(990,909)"/>
<path d="M0 0 C4.18022033 1.79819534 6.77925912 3.7578849 9.0065918 7.89868164 C10.82326088 13.59478517 10.18168301 19.85475965 10.03515625 25.77734375 C10.01506455 27.19072996 9.99681848 28.60414368 9.98046875 30.01757812 C9.93667442 33.45891058 9.86779528 36.8991995 9.78515625 40.33984375 C6.48515625 40.33984375 3.18515625 40.33984375 -0.21484375 40.33984375 C-0.21895264 39.57841064 -0.22306152 38.81697754 -0.22729492 38.0324707 C-0.26025515 34.57164709 -0.33090429 31.11257804 -0.40234375 27.65234375 C-0.40814453 26.45416016 -0.41394531 25.25597656 -0.41992188 24.02148438 C-0.33022498 16.97619451 -0.33022498 16.97619451 -3.5390625 11.03125 C-6.99971045 8.84371633 -9.18991731 8.8926297 -13.21484375 9.33984375 C-14.20484375 9.66984375 -15.19484375 9.99984375 -16.21484375 10.33984375 C-17.04587375 14.02180941 -17.39592109 17.5269983 -17.53125 21.296875 C-17.57314453 22.40869141 -17.61503906 23.52050781 -17.65820312 24.66601562 C-17.69751953 25.81650391 -17.73683594 26.96699219 -17.77734375 28.15234375 C-17.82052734 29.32216797 -17.86371094 30.49199219 -17.90820312 31.69726562 C-18.01402654 34.57801406 -18.116112 37.45884498 -18.21484375 40.33984375 C-21.51484375 40.33984375 -24.81484375 40.33984375 -28.21484375 40.33984375 C-28.21484375 27.13984375 -28.21484375 13.93984375 -28.21484375 0.33984375 C-24.91484375 0.33984375 -21.61484375 0.33984375 -18.21484375 0.33984375 C-17.88484375 1.32984375 -17.55484375 2.31984375 -17.21484375 3.33984375 C-16.41046875 2.67984375 -15.60609375 2.01984375 -14.77734375 1.33984375 C-10.08173662 -1.75373271 -5.27543469 -1.57239588 0 0 Z " fill="#ED852A" transform="translate(878.21484375,995.66015625)"/>
<path d="M0 0 C3.3 0 6.6 0 10 0 C10.01458252 0.73114014 10.02916504 1.46228027 10.04418945 2.21557617 C10.1188291 5.54007371 10.21543801 8.86358467 10.3125 12.1875 C10.33505859 13.33798828 10.35761719 14.48847656 10.38085938 15.67382812 C10.41630859 16.78564453 10.45175781 17.89746094 10.48828125 19.04296875 C10.51446533 20.06414795 10.54064941 21.08532715 10.56762695 22.13745117 C11.06162705 25.40800518 12.06411054 27.3384116 14 30 C17.04983996 31.52491998 19.6423369 31.23562548 23 31 C25.61593153 29.16884793 25.96989455 28.09031634 27 25 C27.14939774 23.08234406 27.24810283 21.16053478 27.31640625 19.23828125 C27.35830078 18.12001953 27.40019531 17.00175781 27.44335938 15.84960938 C27.48267578 14.68236328 27.52199219 13.51511719 27.5625 12.3125 C27.60568359 11.13365234 27.64886719 9.95480469 27.69335938 8.74023438 C27.79951176 5.82694117 27.90156242 2.91356243 28 0 C31.3 0 34.6 0 38 0 C38 13.2 38 26.4 38 40 C34.7 40 31.4 40 28 40 C27.67 39.01 27.34 38.02 27 37 C26.401875 37.474375 25.80375 37.94875 25.1875 38.4375 C21.08510958 41.36777887 16.88247009 41.50124218 12 41 C6.73405656 39.14143173 4.20604232 36.39685804 1 32 C-0.13917218 28.58248347 -0.11338481 25.96512063 -0.09765625 22.36328125 C-0.09443359 21.06455078 -0.09121094 19.76582031 -0.08789062 18.42773438 C-0.07953531 17.05598892 -0.07107037 15.68424413 -0.0625 14.3125 C-0.05748335 12.92903805 -0.05292073 11.54557437 -0.04882812 10.16210938 C-0.03702529 6.77469605 -0.02056019 3.38736967 0 0 Z " fill="#ED862C" transform="translate(788,909)"/>
<path d="M0 0 C4.42836479 2.53751033 6.83753117 5.16034352 8.55078125 10.0859375 C8.55078125 11.0759375 8.55078125 12.0659375 8.55078125 13.0859375 C4.92078125 13.0859375 1.29078125 13.0859375 -2.44921875 13.0859375 C-3.10921875 11.7659375 -3.76921875 10.4459375 -4.44921875 9.0859375 C-7.08921875 9.0859375 -9.72921875 9.0859375 -12.44921875 9.0859375 C-12.77921875 10.7359375 -13.10921875 12.3859375 -13.44921875 14.0859375 C-12.65257812 14.26769531 -11.8559375 14.44945312 -11.03515625 14.63671875 C2.08391622 17.74890748 2.08391622 17.74890748 6.92578125 22.3359375 C9.02674376 25.89141251 9.059951 28.01257948 8.55078125 32.0859375 C7.19071035 35.74112804 5.33730234 37.47232063 2.05078125 39.3984375 C-3.03656863 41.68026355 -7.97531038 42.01020733 -13.44921875 41.0859375 C-18.53216422 39.01542215 -22.55631651 35.78690363 -25.44921875 31.0859375 C-25.44921875 29.7659375 -25.44921875 28.4459375 -25.44921875 27.0859375 C-21.81921875 27.0859375 -18.18921875 27.0859375 -14.44921875 27.0859375 C-14.11921875 28.4059375 -13.78921875 29.7259375 -13.44921875 31.0859375 C-10.14921875 31.0859375 -6.84921875 31.0859375 -3.44921875 31.0859375 C-3.11921875 29.7659375 -2.78921875 28.4459375 -2.44921875 27.0859375 C-3.61839844 26.72242188 -4.78757812 26.35890625 -5.9921875 25.984375 C-7.54070084 25.47758881 -9.08885972 24.96971864 -10.63671875 24.4609375 C-11.40564453 24.22503906 -12.17457031 23.98914063 -12.96679688 23.74609375 C-18.47057534 21.90362714 -21.23289447 19.9610747 -24.44921875 15.0859375 C-25.13804465 10.79990966 -24.76532541 8.71815081 -22.82421875 4.8359375 C-17.07255596 -1.82388257 -8.18487947 -3.05464401 0 0 Z " fill="#ED8932" transform="translate(1246.44921875,908.9140625)"/>
<path d="M0 0 C4.43449757 2.52815452 6.84177686 5.15741316 8.5546875 10.08203125 C8.5546875 11.07203125 8.5546875 12.06203125 8.5546875 13.08203125 C4.9246875 13.08203125 1.2946875 13.08203125 -2.4453125 13.08203125 C-3.1053125 11.76203125 -3.7653125 10.44203125 -4.4453125 9.08203125 C-7.0853125 9.08203125 -9.7253125 9.08203125 -12.4453125 9.08203125 C-12.7753125 10.40203125 -13.1053125 11.72203125 -13.4453125 13.08203125 C-12.27613281 13.44554687 -11.10695313 13.8090625 -9.90234375 14.18359375 C-8.35383041 14.69037994 -6.80567153 15.19825011 -5.2578125 15.70703125 C-4.48888672 15.94292969 -3.71996094 16.17882812 -2.92773438 16.421875 C2.57415937 18.26371068 5.34590757 20.20240734 8.5546875 25.08203125 C9.08386932 28.85245173 8.87742281 31.2146801 7.5546875 34.76953125 C4.1372406 38.72095423 0.25066407 40.65904919 -4.91015625 41.46875 C-10.89555627 41.73620239 -15.54460259 40.56798657 -20.4453125 37.08203125 C-23.9659728 33.56137095 -24.43158052 32.15069116 -25.4453125 27.08203125 C-21.8153125 27.08203125 -18.1853125 27.08203125 -14.4453125 27.08203125 C-14.1153125 28.40203125 -13.7853125 29.72203125 -13.4453125 31.08203125 C-10.1453125 31.08203125 -6.8453125 31.08203125 -3.4453125 31.08203125 C-3.1153125 29.76203125 -2.7853125 28.44203125 -2.4453125 27.08203125 C-3.61449219 26.71851563 -4.78367187 26.355 -5.98828125 25.98046875 C-7.53679459 25.47368256 -9.08495347 24.96581239 -10.6328125 24.45703125 C-11.40173828 24.22113281 -12.17066406 23.98523438 -12.96289062 23.7421875 C-18.46478437 21.90035182 -21.23653257 19.96165516 -24.4453125 15.08203125 C-24.97867392 11.28183115 -24.78943214 8.95245152 -23.3828125 5.39453125 C-17.4650769 -1.66857254 -8.57817783 -3.22024247 0 0 Z " fill="#ED8932" transform="translate(859.4453125,908.91796875)"/>
<path d="M0 0 C3.63 0 7.26 0 11 0 C11 3.3 11 6.6 11 10 C13.97 10 16.94 10 20 10 C20 12.64 20 15.28 20 18 C17.03 18 14.06 18 11 18 C11.33 25.26 11.66 32.52 12 40 C14.64 40.33 17.28 40.66 20 41 C20 43.97 20 46.94 20 50 C17.93867858 50.10864945 15.87568679 50.18588321 13.8125 50.25 C12.66394531 50.29640625 11.51539063 50.3428125 10.33203125 50.390625 C6.31400228 49.91957823 4.81157638 48.85652165 2 46 C-0.05867451 42.7304193 -0.23603939 40.18770312 -0.1953125 36.359375 C-0.18886719 35.28945313 -0.18242188 34.21953125 -0.17578125 33.1171875 C-0.15902344 32.00601563 -0.14226562 30.89484375 -0.125 29.75 C-0.11597656 28.62335937 -0.10695313 27.49671875 -0.09765625 26.3359375 C-0.07410658 23.55707635 -0.0412168 20.7786461 0 18 C-1.65 18 -3.3 18 -5 18 C-5 15.36 -5 12.72 -5 10 C-3.35 10 -1.7 10 0 10 C0 6.7 0 3.4 0 0 Z " fill="#ED8830" transform="translate(1412,899)"/>
<path d="M0 0 C3.63 0 7.26 0 11 0 C11.07425173 7.1532973 11.12865107 14.30636938 11.16479492 21.45996094 C11.17986534 23.89261789 11.20032523 26.32524774 11.22631836 28.7578125 C11.2627774 32.25788061 11.2797442 35.7575889 11.29296875 39.2578125 C11.30845261 40.34240753 11.32393646 41.42700256 11.33988953 42.54446411 C11.34112505 48.10943212 11.22322946 52.2303826 8 57 C4.04262565 60.59761305 0.08971459 60.26114453 -4.98828125 60.10546875 C-5.65214844 60.07066406 -6.31601562 60.03585937 -7 60 C-7 57.03 -7 54.06 -7 51 C-4.03 50.505 -4.03 50.505 -1 50 C-0.67 33.5 -0.34 17 0 0 Z " fill="#EE8B36" transform="translate(925,908)"/>
<path d="M0 0 C1.32 0 2.64 0 4 0 C2.35 11.55 0.7 23.1 -1 35 C-2.65 35 -4.3 35 -6 35 C-6.33 34.34 -6.66 33.68 -7 33 C-7.56847656 33.3196875 -8.13695312 33.639375 -8.72265625 33.96875 C-12.46637936 35.66402084 -15.98413034 35.79316999 -20 35 C-23.29058901 32.38095976 -24.61130865 30.91569311 -25.4375 26.84375 C-25.81812693 19.8973085 -23.39777936 15.75039397 -18.875 10.5625 C-14.70652875 8.29702649 -10.65616577 8.32130465 -6 9 C-5.01 9.66 -4.02 10.32 -3 11 C-1.41678933 5.52225234 -1.41678933 5.52225234 0 0 Z " fill="#0F0F0F" transform="translate(1498,811)"/>
<path d="M0 0 C1.32 0 2.64 0 4 0 C3.67 3.96 3.34 7.92 3 12 C4.32 11.01 5.64 10.02 7 9 C11.6032007 8.01183527 15.05191195 8.41953793 19.0625 10.875 C21.82139061 15.32482357 21.83757786 18.89697933 21 24 C19.70591159 28.0887687 18.0002242 31.05861252 14.875 34 C10.60123653 35.48652642 6.47958163 35.23485185 2 35 C1.34 33.68 0.68 32.36 0 31 C-0.66 31 -1.32 31 -2 31 C-2 32.32 -2 33.64 -2 35 C-3.32 35 -4.64 35 -6 35 C-5.47030818 26.92998936 -4.16333777 19.20687839 -2.4375 11.3125 C-2.20353516 10.21744141 -1.96957031 9.12238281 -1.72851562 7.99414062 C-1.15806137 5.32814011 -0.58181776 2.66353929 0 0 Z " fill="#0B0B0C" transform="translate(1515,697)"/>
<path d="M0 0 C2.5625 1.5 2.5625 1.5 4 3 C4.33 2.01 4.66 1.02 5 0 C6.32 0 7.64 0 9 0 C9.25668426 5.91175936 8.2956568 11.18145712 7 16.9375 C6.71382812 18.24944336 6.71382812 18.24944336 6.421875 19.58789062 C5.95436066 21.72676873 5.48028183 23.86395935 5 26 C3.68 26 2.36 26 1 26 C0.67 25.34 0.34 24.68 0 24 C-0.5671875 24.32226562 -1.134375 24.64453125 -1.71875 24.9765625 C-5.41758419 26.63597099 -9.02466442 26.60653098 -13 26 C-16.03215675 23.80168636 -16.81654398 22.55036806 -18 19 C-18.42141936 13.5215483 -17.674874 9.81477319 -15 5 C-10.47708826 -0.06135361 -6.5212444 -1.18793067 0 0 Z " fill="#0E0E0E" transform="translate(1497,706)"/>
<path d="M0 0 C3.00197464 1.80118478 4.45166366 2.90332732 6 6 C6.54799931 12.35679202 5.59294729 16.67802346 2 22 C-2.14607082 25.8947938 -6.35425073 26.33756707 -11.83984375 26.29296875 C-14 26 -14 26 -16.5 24.125 C-19.8477928 19.38229354 -19.58383645 14.66241379 -19 9 C-14.68438648 0.36877296 -9.17726892 -1.26442372 0 0 Z " fill="#101010" transform="translate(1464,820)"/>
<path d="M0 0 C0 3.63 0 7.26 0 11 C-2.24609375 11.390625 -4.4921875 11.78125 -6.73828125 12.171875 C-9.65773188 13.24082756 -10.40012612 14.35301765 -12 17 C-12.50032958 19.69964156 -12.50032958 19.69964156 -12.51171875 22.640625 C-12.54716797 23.71054687 -12.58261719 24.78046875 -12.61914062 25.8828125 C-12.65297852 27.54957031 -12.65297852 27.54957031 -12.6875 29.25 C-12.72166016 30.37664062 -12.75582031 31.50328125 -12.79101562 32.6640625 C-12.87343014 35.44260901 -12.94260298 38.22084252 -13 41 C-16.3 41 -19.6 41 -23 41 C-23 27.8 -23 14.6 -23 1 C-19.7 1 -16.4 1 -13 1 C-12.67 2.32 -12.34 3.64 -12 5 C-11.21625 4.360625 -10.4325 3.72125 -9.625 3.0625 C-5.68857891 -0.03040229 -5.38386157 0 0 0 Z " fill="#ED852B" transform="translate(990,995)"/>
<path d="M0 0 C0 3.63 0 7.26 0 11 C-2.24609375 11.390625 -4.4921875 11.78125 -6.73828125 12.171875 C-9.65773188 13.24082756 -10.40012612 14.35301765 -12 17 C-12.50032958 19.69964156 -12.50032958 19.69964156 -12.51171875 22.640625 C-12.54716797 23.71054687 -12.58261719 24.78046875 -12.61914062 25.8828125 C-12.65297852 27.54957031 -12.65297852 27.54957031 -12.6875 29.25 C-12.72166016 30.37664063 -12.75582031 31.50328125 -12.79101562 32.6640625 C-12.87343014 35.44260901 -12.94260298 38.22084252 -13 41 C-16.3 41 -19.6 41 -23 41 C-23 27.8 -23 14.6 -23 1 C-19.7 1 -16.4 1 -13 1 C-12.67 2.32 -12.34 3.64 -12 5 C-11.21625 4.360625 -10.4325 3.72125 -9.625 3.0625 C-5.68857891 -0.03040229 -5.38386157 0 0 0 Z " fill="#ED852B" transform="translate(1217,908)"/>
<path d="M0 0 C2.4178712 -0.10826289 4.83087556 -0.18739789 7.25 -0.25 C8.27287109 -0.30027344 8.27287109 -0.30027344 9.31640625 -0.3515625 C12.74068055 -0.41805326 14.64572596 -0.2551449 17.45703125 1.76953125 C19.72984342 5.05503948 19.62825913 8.19259826 19 12 C17.63847463 15.13150836 16.73627001 16.55823799 13.8125 18.3125 C12.9153125 18.6528125 12.9153125 18.6528125 12 19 C12.46084924 21.68828723 13.01478677 24.03566221 14.0625 26.5625 C15 29 15 29 15 33 C12.64453125 32.80859375 12.64453125 32.80859375 10 32 C8.63671875 29.78515625 8.63671875 29.78515625 7.6875 27.0625 C7.36136719 26.16660156 7.03523438 25.27070312 6.69921875 24.34765625 C6 22 6 22 6 20 C4.02 20 2.04 20 0 20 C-0.33 24.29 -0.66 28.58 -1 33 C-2.32 33 -3.64 33 -5 33 C-4.4456532 21.83660242 -2.86241163 10.81661316 0 0 Z " fill="#0B0B0B" transform="translate(1407,699)"/>
<path d="M0 0 C3.63 0 7.26 0 11 0 C11 13.2 11 26.4 11 40 C7.37 40 3.74 40 0 40 C0 26.8 0 13.6 0 0 Z " fill="#ED8831" transform="translate(996,996)"/>
<path d="M0 0 C2.41696872 -0.05411124 4.83271787 -0.09372278 7.25 -0.125 C7.93191406 -0.14175781 8.61382813 -0.15851562 9.31640625 -0.17578125 C13.0315375 -0.21185049 15.90907884 -0.18812735 19 2 C20.61429923 5.22859847 20.59570657 8.50993653 20 12 C18.26397895 15.02508145 16.16419863 17.41790069 13 19 C10.95944995 19.07065617 8.91665743 19.08421976 6.875 19.0625 C5.77929688 19.05347656 4.68359375 19.04445313 3.5546875 19.03515625 C2.29011719 19.01775391 2.29011719 19.01775391 1 19 C1.01160156 19.59167969 1.02320313 20.18335938 1.03515625 20.79296875 C1.08322386 25.00231785 1.06006883 28.8922333 0 33 C-1.32 33 -2.64 33 -4 33 C-3.33432507 21.91306929 -1.63964829 10.97623447 0 0 Z " fill="#080808" transform="translate(1406,813)"/>
<path d="M0 0 C1.98 0 3.96 0 6 0 C6.26216309 0.59538574 6.52432617 1.19077148 6.79443359 1.80419922 C7.98317313 4.49660751 9.17899078 7.18581363 10.375 9.875 C10.7875 10.81214844 11.2 11.74929688 11.625 12.71484375 C12.02460937 13.61074219 12.42421875 14.50664063 12.8359375 15.4296875 C13.20251465 16.25710449 13.5690918 17.08452148 13.94677734 17.93701172 C14.94137141 20.14687595 14.94137141 20.14687595 17 22 C18.32 14.74 19.64 7.48 21 0 C22.32 0 23.64 0 25 0 C24.3653397 10.76734025 22.67880003 21.35549183 21 32 C18.525 32.495 18.525 32.495 16 33 C7.3690205 16.29157175 7.3690205 16.29157175 5 8 C4.34 8 3.68 8 3 8 C3.061875 9.155 3.12375 10.31 3.1875 11.5 C3.2225704 18.78295298 1.4636936 25.89934355 0 33 C-1.32 33 -2.64 33 -4 33 C-3.41152509 21.87985348 -1.74178643 10.98749553 0 0 Z " fill="#141414" transform="translate(1406,756)"/>
<path d="M0 0 C3.125 1.9375 3.125 1.9375 5 5 C5 7.97 5 10.94 5 14 C-1.6 14 -8.2 14 -15 14 C-13.67082039 19.47825081 -13.67082039 19.47825081 -12 21 C-6.71404762 21.63203616 -6.71404762 21.63203616 -2.25 19.5 C-1.8375 19.005 -1.425 18.51 -1 18 C0.32 18 1.64 18 3 18 C2.08516297 21.384897 1.33774897 22.76110439 -1.5625 24.8125 C-5.88076596 26.3042646 -9.48573199 26.82982868 -14 26 C-17.0625 24.25 -17.0625 24.25 -19 21 C-19.98336352 15.26235831 -20.09862669 9.8251438 -16.75 4.875 C-11.7817988 -0.31902852 -7.01448638 -1.06520472 0 0 Z " fill="#0C0C0C" transform="translate(1579,820)"/>
<path d="M0 0 C3.3 0 6.6 0 10 0 C10 13.2 10 26.4 10 40 C6.7 40 3.4 40 0 40 C0 26.8 0 13.6 0 0 Z " fill="#ED8429" transform="translate(947,996)"/>
<path d="M0 0 C2.93423195 1.79646854 4.47205355 2.9441071 6 6 C6.125 9.5625 6.125 9.5625 6 13 C5 14 5 14 3.05053711 14.11352539 C2.2178833 14.10828857 1.38522949 14.10305176 0.52734375 14.09765625 C-0.37177734 14.09443359 -1.27089844 14.09121094 -2.19726562 14.08789062 C-3.14279297 14.07951172 -4.08832031 14.07113281 -5.0625 14.0625 C-6.01189453 14.05798828 -6.96128906 14.05347656 -7.93945312 14.04882812 C-10.29303065 14.0370011 -12.64648477 14.02052025 -15 14 C-13.73025028 18.41522109 -13.73025028 18.41522109 -11 22 C-7.60402937 22.21676408 -5.24221555 22.08073852 -2 21 C-1.67 20.01 -1.34 19.02 -1 18 C0.65 18 2.3 18 4 18 C1.92263216 22.04540053 0.26184172 24.27712781 -4 26 C-8.55278561 26.60605263 -12.49207615 26.8459085 -16.5625 24.5625 C-19.32322023 19.64121611 -19.24474032 14.80495988 -18.5 9.3125 C-14.80869668 1.16087184 -8.78867123 -1.78450177 0 0 Z " fill="#121212" transform="translate(1448,706)"/>
<path d="M0 0 C3.125 1.9375 3.125 1.9375 5 5 C5 7.97 5 10.94 5 14 C-1.6 14 -8.2 14 -15 14 C-13.59628479 19.7018576 -13.59628479 19.7018576 -11 22 C-6.4237284 21.75038519 -4.07069332 21.3631403 -1 18 C0.32 18 1.64 18 3 18 C1.71919926 21.94913561 0.5719243 23.85684542 -3 26 C-7.90277974 26.80030669 -12.50958589 27.0645815 -16.625 24.125 C-19.4600543 19.74355244 -19.58959642 16.14259103 -19 11 C-17.71324762 6.94393273 -15.97542974 3.91805152 -12.875 1 C-8.52929278 -0.51155034 -4.54028913 -0.76663898 0 0 Z " fill="#0D0D0D" transform="translate(1514,763)"/>
<path d="M0 0 C3.125 1.375 3.125 1.375 5 4 C5 7.3 5 10.6 5 14 C-1.6 14 -8.2 14 -15 14 C-14.34 16.31 -13.68 18.62 -13 21 C-9.73723433 21.86013727 -9.73723433 21.86013727 -6 22 C-3.30566683 20.12802546 -3.30566683 20.12802546 -1 18 C0.32 18 1.64 18 3 18 C2.11593727 20.97366555 1.31696033 22.7127547 -1 24.8125 C-5.26643188 26.50129595 -9.46951634 26.75139729 -14 26 C-17.07395598 24.17166444 -17.84649835 23.46050496 -19 20 C-19.56384129 14.30737162 -19.30719906 9.85055862 -16 5 C-11.23750788 -0.34328384 -7.04066237 -1.20663598 0 0 Z " fill="#0C0D0D" transform="translate(1570,706)"/>
<path d="M0 0 C2.92483867 1.82547936 5.43429205 3.86858411 7 7 C7.44080589 11.3148115 7.47056025 14.94684134 5.6875 18.9375 C3.71295875 21.35082819 2.04143262 22.81472641 -1.0859375 23.37109375 C-5.50040984 23.49915865 -7.38423801 23.47464987 -11 20.6875 C-14.14047864 16.46748183 -14.43868072 13.17643253 -14 8 C-12.3562347 4.88858712 -10.96963114 2.71106283 -8.125 0.625 C-5.14483554 -0.25151896 -3.10161374 -0.43422592 0 0 Z " fill="#FEFBF8" transform="translate(1334,917)"/>
<path d="M0 0 C3.00616776 0.76105513 4.38922499 2.03805571 6.16015625 4.546875 C7.51036602 8.5975043 7.71744429 12.31148589 7.16015625 16.546875 C5.36621957 19.41717369 4.17752349 21.03819138 1.16015625 22.546875 C-1.92111571 23.02510778 -4.76909712 23.12496029 -7.83984375 22.546875 C-10.64221788 20.41392045 -12.26911052 17.68834146 -13.83984375 14.546875 C-14.38786486 8.84745546 -13.44946177 5.98154857 -9.83984375 1.546875 C-6.06934044 -0.96679387 -4.32832785 -0.59118624 0 0 Z " fill="#FEFBF8" transform="translate(821.83984375,1004.453125)"/>
<path d="M0 0 C2.92483867 1.82547936 5.43429205 3.86858411 7 7 C7.58816159 11.82099665 7.44590263 15.16764843 5.125 19.5 C2.98929636 22.01259252 2.2053288 22.83423769 -0.98828125 23.2734375 C-5.43801478 23.46787964 -7.35399301 23.49796372 -11 20.6875 C-14.14047864 16.46748183 -14.43868072 13.17643253 -14 8 C-12.3562347 4.88858712 -10.96963114 2.71106283 -8.125 0.625 C-5.14483554 -0.25151896 -3.10161374 -0.43422592 0 0 Z " fill="#FEFBF8" transform="translate(1586,917)"/>
<path d="M0 0 C3.23595617 0.99664927 4.92790125 3.03790856 7.00390625 5.6171875 C8.60931464 8.82800428 8.48853934 12.13429105 8.00390625 15.6171875 C5.00390625 21.1171875 5.00390625 21.1171875 2.00390625 22.6171875 C-1.05550212 23.03793128 -3.94206455 23.09718173 -6.99609375 22.6171875 C-10.27784693 20.08750276 -11.68853152 18.53987419 -12.99609375 14.6171875 C-13.56808586 7.52448533 -13.56808586 7.52448533 -11.18359375 3.7421875 C-7.38203286 0.04924264 -5.29773941 -0.80002695 0 0 Z " fill="#FEFBF8" transform="translate(1459.99609375,917.3828125)"/>
<path d="M0 0 C3.00685874 1.61907778 5.2581079 3.05577368 7.375 5.75 C8.84911292 11.0568065 8.71803142 14.68360906 6.125 19.4375 C3.99088123 22.01099616 3.24326733 22.82902021 0.01171875 23.2734375 C-4.48027315 23.46972622 -6.34969305 23.51482633 -10 20.625 C-13.13991576 16.50386056 -13.34701602 14.20524027 -13 9 C-10.44229185 2.34995881 -7.39615684 -1.03546196 0 0 Z " fill="#FEFBF8" transform="translate(897,917)"/>
<path d="M0 0 C3.34475165 1.73669797 5.43787509 3.0546081 7.375 6.3125 C8.55939733 11.40540852 8.7059317 14.72932293 6.125 19.375 C3.99264646 22.00908379 3.28101673 22.82382874 0.01171875 23.2734375 C-4.48027315 23.46972622 -6.34969305 23.51482633 -10 20.625 C-13.13991576 16.50386056 -13.34701602 14.20524027 -13 9 C-10.44229185 2.34995881 -7.39615684 -1.03546196 0 0 Z " fill="#FEFBF9" transform="translate(1284,917)"/>
<path d="M0 0 C3.49406769 1.66762322 4.82670681 2.74006022 7 6 C7.68869056 11.17318721 7.84213522 15.59644131 5.125 20.125 C1.81475774 23.04580199 -0.533257 23.33322039 -4.9609375 23.29296875 C-8.13134567 22.83745033 -9.8192402 21.24684343 -12 19 C-13.97698481 15.04603037 -13.57069292 10.29880647 -13 6 C-9.15601255 0.94212178 -6.26193371 -0.49113206 0 0 Z " fill="#FEFCFA" transform="translate(919,1004)"/>
<path d="M0 0 C3.49406769 1.66762322 4.82670681 2.74006022 7 6 C7.75084346 11.03460297 8.06621178 16.35801199 5.0625 20.6875 C1.47061984 23.39973604 -0.44738206 23.76526223 -4.84375 23.46484375 C-8.04700006 22.77428803 -9.81325326 21.39175425 -12 19 C-13.35624248 14.93127256 -13.66606438 11.24978036 -13 7 C-9.84900718 1.32115846 -6.36127382 -0.49892344 0 0 Z " fill="#FEFCFA" transform="translate(1060,917)"/>
<path d="M0 0 C2.93087207 2.25451698 3.82814288 3.48442865 5 7 C5.53094699 11.64796219 5.64784823 14.96344284 3.125 19 C-0.14840013 22.08084718 -2.46126475 22.33387487 -6.9609375 22.29296875 C-10.13134567 21.83745033 -11.8192402 20.24684343 -14 18 C-15.22485812 15.55028376 -15.16722808 13.85765539 -15.1875 11.125 C-15.20167969 10.26132812 -15.21585938 9.39765625 -15.23046875 8.5078125 C-14.87895925 4.68291249 -13.7827682 2.66765523 -10.875 0.1875 C-6.98775023 -1.41810317 -3.99453452 -1.24515825 0 0 Z " fill="#FEFDFB" transform="translate(1385,918)"/>
<path d="M0 0 C2.93087207 2.25451698 3.82814288 3.48442865 5 7 C5.53094699 11.64796219 5.64784823 14.96344284 3.125 19 C-0.14840013 22.08084718 -2.46126475 22.33387487 -6.9609375 22.29296875 C-10.13134567 21.83745033 -11.8192402 20.24684343 -14 18 C-15.22485812 15.55028376 -15.16722808 13.85765539 -15.1875 11.125 C-15.20167969 10.26132812 -15.21585938 9.39765625 -15.23046875 8.5078125 C-14.87895925 4.68291249 -13.7827682 2.66765523 -10.875 0.1875 C-6.98775023 -1.41810317 -3.99453452 -1.24515825 0 0 Z " fill="#FEFDFB" transform="translate(969,918)"/>
<path d="M0 0 C1.32 0 2.64 0 4 0 C3.67 5.61 3.34 11.22 3 17 C4.19625 15.68 5.3925 14.36 6.625 13 C10.51405975 9.06942004 10.51405975 9.06942004 14.5 8.5 C15.325 8.665 16.15 8.83 17 9 C14.14159258 12.40847895 11.35100521 15.67886757 8.0625 18.6875 C7.381875 19.450625 6.70125 20.21375 6 21 C6.32685773 24.43200614 7.94428521 26.49100241 10.0625 29.125 C13 32.78823529 13 32.78823529 13 35 C10.73828125 35.3125 10.73828125 35.3125 8 35 C5.98046875 32.8125 5.98046875 32.8125 4.1875 30 C3.58292969 29.071875 2.97835938 28.14375 2.35546875 27.1875 C1.90816406 26.465625 1.46085937 25.74375 1 25 C0.34 28.3 -0.32 31.6 -1 35 C-2.65 35 -4.3 35 -6 35 C-5.38171165 30.6656817 -4.75416377 26.33275191 -4.125 22 C-3.95097656 20.77925781 -3.77695313 19.55851563 -3.59765625 18.30078125 C-2.69149466 12.09189629 -1.67838827 6.04824602 0 0 Z " fill="#141414" transform="translate(1477,754)"/>
<path d="M0 0 C1.85213968 3.18979611 1.74416028 6.40895214 1.125 9.9375 C-1.875 15.4375 -1.875 15.4375 -4.875 16.9375 C-12.13724784 17.51386888 -12.13724784 17.51386888 -14.875 15.375 C-16.2749931 11.96251682 -16.3172401 9.60177509 -15.875 5.9375 C-14.22822647 2.82039296 -12.80029859 0.64689558 -10 -1.5 C-6.34164444 -2.46838824 -3.26955198 -1.85274612 0 0 Z " fill="#F4F4F5" transform="translate(1530.875,711.0625)"/>
<path d="M0 0 C1.32 0 2.64 0 4 0 C3.9278125 0.60585938 3.855625 1.21171875 3.78125 1.8359375 C3.11288795 7.8697616 2.58293244 13.92798701 3 20 C4.16377902 21.38142556 4.16377902 21.38142556 7.375 21.25 C10.86361311 21.34183521 10.86361311 21.34183521 12.66015625 19.7421875 C14.20184653 17.73754067 14.6054742 16.35092619 15.0625 13.875 C15.21589844 13.08996094 15.36929687 12.30492187 15.52734375 11.49609375 C15.68332031 10.67238281 15.83929687 9.84867188 16 9 C16.36933426 7.31125092 16.74407931 5.62367338 17.125 3.9375 C17.29257813 3.18339844 17.46015625 2.42929687 17.6328125 1.65234375 C17.75398438 1.10707031 17.87515625 0.56179688 18 0 C19.32 0 20.64 0 22 0 C20.98074847 8.73953968 19.94183957 17.40632701 18 26 C16.68 26 15.36 26 14 26 C14 25.34 14 24.68 14 24 C13.01 24.66 12.02 25.32 11 26 C8.87890625 26.3359375 8.87890625 26.3359375 6.5625 26.375 C5.80066406 26.40335938 5.03882813 26.43171875 4.25390625 26.4609375 C1.0501387 25.8057476 -0.07616846 24.61554624 -2 22 C-3.16921459 14.59827711 -1.94217446 7.16176833 0 0 Z " fill="#0B0B0B" transform="translate(1507,820)"/>
<path d="M0 0 C2.21494092 1.62081559 2.90976687 2.56312126 3.46875 5.26953125 C3.52122864 9.53998086 3.52933678 13.04462124 1 16.625 C-1.95982121 18.96819179 -2.59754342 19.39979444 -6.125 19.5625 C-10 19 -10 19 -11.7109375 17.734375 C-13.75555476 14.98343541 -13.52748825 12.62362767 -13.4296875 9.29296875 C-12.706187 5.43210699 -10.8131156 3.67915771 -8 1 C-5.20129973 -0.39935013 -3.09501208 -0.25265405 0 0 Z " fill="#F7F7F8" transform="translate(1462,823)"/>
<path d="M0 0 C3.61325916 0.86404023 4.84151875 1.55906731 6.875 4.6875 C7.47004211 10.04287896 7.32984378 13.33695598 3.875 17.6875 C0.18013897 20.15074069 -1.75793092 20.07741688 -6.125 19.6875 C-8.19560304 18.14535713 -8.99972709 17.18859163 -9.62890625 14.671875 C-9.74738934 10.15371973 -9.31882593 7.25766018 -6.5 3.625 C-4.18859723 1.2808887 -3.31413518 0.72910974 0 0 Z " fill="#F7F7F7" transform="translate(1487.125,822.3125)"/>
<path d="M0 0 C2.14349963 1.57222524 2.88961573 2.46896217 3.43359375 5.0859375 C3.44061893 9.20269489 3.35972018 11.42444771 1.125 15 C-1.69635947 17.65539715 -3.22476988 18.15280119 -7 18.1875 C-8.051875 18.20876953 -8.051875 18.20876953 -9.125 18.23046875 C-11 18 -11 18 -13 16 C-13.80479181 10.739203 -13.85816116 6.36769434 -11 1.8125 C-6.87270797 -0.68107227 -4.77261703 -0.61582155 0 0 Z " fill="#F8F8F8" transform="translate(1497,710)"/>
<path d="M0 0 C2.875 1.125 2.875 1.125 5 3 C5.8125 6.1875 5.8125 6.1875 6 9 C4.68 9 3.36 9 2 9 C1.319375 8.01 1.319375 8.01 0.625 7 C-0.88952877 4.7106624 -0.88952877 4.7106624 -3.875 4.375 C-7.37691688 5.07538338 -8.96053771 6.19855109 -11.0859375 9.078125 C-12.74420608 12.56474099 -12.85455684 16.26131381 -12 20 C-10.74809568 21.83048189 -10.74809568 21.83048189 -9 23 C-5.77918183 22.86579924 -3.76590222 22.76590222 -1.4375 20.4375 C0 19 0 19 2.6875 18.8125 C3.8321875 18.9053125 3.8321875 18.9053125 5 19 C2.92263216 23.04540053 1.26184172 25.27712781 -3 27 C-6.43057274 27.50678916 -9.5816331 27.63516953 -13 27 C-16.51435598 23.74279202 -17.88575655 21.10435336 -18.375 16.375 C-18.30088623 11.27967811 -16.22602732 7.8372746 -13 4 C-8.68423957 0.24716484 -5.68805404 -0.72393415 0 0 Z " fill="#151515" transform="translate(1550,819)"/>
<path d="M0 0 C2.6875 1.75 2.6875 1.75 4 4 C4 5.32 4 6.64 4 8 C2.68 8 1.36 8 0 8 C-0.680625 7.01 -0.680625 7.01 -1.375 6 C-2.88520046 3.67133098 -2.88520046 3.67133098 -5.9375 3.625 C-8.87463104 3.9846487 -10.63267439 4.24642547 -13 6 C-13.93843222 8.85258537 -14.18924686 11.57040778 -14.25 14.5625 C-14.27578125 15.32691406 -14.3015625 16.09132813 -14.328125 16.87890625 C-13.91644503 19.54012317 -13.11533612 20.38446883 -11 22 C-8.54290625 22.58350505 -8.54290625 22.58350505 -6 22 C-5.34 21.34 -4.68 20.68 -4 20 C-2 18 -2 18 0.75 17.75 C1.4925 17.8325 2.235 17.915 3 18 C0.92751173 22.03589821 -0.76300466 24.24993671 -5 26 C-8.11118881 26.51476033 -10.89941512 26.61787018 -14 26 C-16.75569447 23.81840855 -18.43588747 22.12822506 -20 19 C-20.62049874 13.00184551 -19.78429055 9.78288655 -16.484375 4.76171875 C-11.7905744 -0.80908144 -6.96133617 -0.96127707 0 0 Z " fill="#0F0F0F" transform="translate(1464,763)"/>
<path d="M0 0 C10.31884659 -0.36853024 10.31884659 -0.36853024 13.33203125 1.26171875 C15 3 15 3 15.49609375 4.9375 C15.47675781 5.618125 15.45742187 6.29875 15.4375 7 C15.43621094 7.680625 15.43492188 8.36125 15.43359375 9.0625 C14.85421959 11.65141518 14.2006998 12.50666799 12 14 C7.96740923 14.40487859 4.06287095 14.13106035 0 14 C0 9.38 0 4.76 0 0 Z " fill="#FEFEFD" transform="translate(1116,907)"/>
<path d="M0 0 C1.32 0 2.64 0 4 0 C2.82901286 11.77875299 1.20813203 23.37050465 -1 35 C-2.65 35 -4.3 35 -6 35 C-5.31058047 30.33625734 -4.61671816 25.67320584 -3.91870117 21.01074219 C-3.68179565 19.42401105 -3.44611259 17.8370969 -3.21166992 16.25 C-2.87478503 13.97086332 -2.53353215 11.69241756 -2.19140625 9.4140625 C-2.08719864 8.70255035 -1.98299103 7.99103821 -1.87562561 7.25796509 C-1.11387171 2.22774341 -1.11387171 2.22774341 0 0 Z " fill="#161616" transform="translate(1528,754)"/>
<path d="M0 0 C8.625 -0.25 8.625 -0.25 12 2 C12.5 5.375 12.5 5.375 12 9 C10.0625 11.4375 10.0625 11.4375 7 13 C3.91524935 13.3146652 1.11635109 13.18605081 -2 13 C-1.34 8.71 -0.68 4.42 0 0 Z " fill="#E8E8E9" transform="translate(1410,816)"/>
<path d="M0 0 C8.625 -0.25 8.625 -0.25 12 2 C12.49337903 5.80606683 12.53195425 8.09799061 10.5625 11.4375 C6.66904791 13.81155615 3.51138518 13.2653756 -1 13 C-0.67 8.71 -0.34 4.42 0 0 Z " fill="#EFEFF0" transform="translate(1410,702)"/>
<path d="M0 0 C1.32 0 2.64 0 4 0 C1.21906117 28.56187767 1.21906117 28.56187767 -2 35 C-2.99 35 -3.98 35 -5 35 C-4.49166939 23.18131321 -2.12360926 11.61122838 0 0 Z " fill="#0C0C0C" transform="translate(1545,697)"/>
<path d="M0 0 C1.32 0 2.64 0 4 0 C2.62619435 11.71775411 0.89844707 23.35619131 -1 35 C-2.32 35 -3.64 35 -5 35 C-4.40441531 27.01677879 -3.30400812 19.19768645 -1.9375 11.3125 C-1.75123047 10.21744141 -1.56496094 9.12238281 -1.37304688 7.99414062 C-0.9191176 5.32876102 -0.4613836 2.66409751 0 0 Z " fill="#0A0A0A" transform="translate(1462,697)"/>
<path d="M0 0 C1.32 0 2.64 0 4 0 C4.33 0.66 4.66 1.32 5 2 C5.99 1.34 6.98 0.68 8 0 C9.32 0 10.64 0 12 0 C12 1.32 12 2.64 12 4 C10.6078125 4.3403125 10.6078125 4.3403125 9.1875 4.6875 C5.30462997 6.28632884 4.80192716 7.2760172 3 11 C2.33894515 13.62517666 1.77761829 16.15649667 1.3125 18.8125 C1.18294922 19.50537109 1.05339844 20.19824219 0.91992188 20.91210938 C0.60442441 22.60644764 0.30097353 24.30302158 0 26 C-1.32 26 -2.64 26 -4 26 C-3.52316428 22.60383513 -3.04311931 19.20813132 -2.5625 15.8125 C-2.42779297 14.85279297 -2.29308594 13.89308594 -2.15429688 12.90429688 C-2.02216797 11.97294922 -1.89003906 11.04160156 -1.75390625 10.08203125 C-1.63345947 9.22843018 -1.5130127 8.3748291 -1.38891602 7.49536133 C-0.99677852 4.97933036 -0.51734627 2.49302336 0 0 Z " fill="#0A0A0A" transform="translate(1591,820)"/>
<path d="M0 0 C0.99 0 1.98 0 3 0 C3.33 0.99 3.66 1.98 4 3 C4.4125 2.505 4.825 2.01 5.25 1.5 C7 0 7 0 11 0 C11 1.32 11 2.64 11 4 C10.05125 4.268125 9.1025 4.53625 8.125 4.8125 C4.74732727 5.74986588 4.74732727 5.74986588 3 9 C2.45994087 10.92249447 2.45994087 10.92249447 2.1484375 13.01171875 C2.01953125 13.76904297 1.890625 14.52636719 1.7578125 15.30664062 C1.63148437 16.09232422 1.50515625 16.87800781 1.375 17.6875 C1.2409375 18.48478516 1.106875 19.28207031 0.96875 20.10351562 C0.6393854 22.0679402 0.31883687 24.03383927 0 26 C-1.32 26 -2.64 26 -4 26 C-2.59836066 5.19672131 -2.59836066 5.19672131 0 0 Z " fill="#0A0A0A" transform="translate(1432,820)"/>
<path d="M0 0 C2.375 1.125 2.375 1.125 4 3 C4.45947423 6.1506804 4.52225401 8.07837528 2.9375 10.875 C-0.1069286 12.64273274 -2.5631012 12.36823916 -6 12 C-7.9375 10.875 -7.9375 10.875 -9 9 C-9.39365568 5.85075452 -9.52854531 3.88090884 -7.875 1.125 C-5.10703881 -0.53577671 -3.16909182 -0.38805206 0 0 Z " fill="#EE8A34" transform="translate(1004,979)"/>
<path d="M0 0 C2.15502531 3.23253796 2.46856135 4.25150923 2 8 C0.9375 9.8125 0.9375 9.8125 -1 11 C-6.90954774 11.63316583 -6.90954774 11.63316583 -9.9375 9.875 C-11.52225401 7.07837528 -11.45947423 5.1506804 -11 2 C-7.82775887 -1.933579 -4.58022934 -1.18746687 0 0 Z " fill="#ED8933" transform="translate(935,893)"/>
<path d="M0 0 C1.875 1.125 1.875 1.125 3 3 C3.39365568 6.14924548 3.52854531 8.11909116 1.875 10.875 C-0.88090884 12.52854531 -2.85075452 12.39365568 -6 12 C-7.875 10.875 -7.875 10.875 -9 9 C-9.39365568 5.85075452 -9.52854531 3.88090884 -7.875 1.125 C-5.11909116 -0.52854531 -3.14924548 -0.39365568 0 0 Z " fill="#ED862C" transform="translate(955,979)"/>
<path d="M0 0 C3 2.3125 3 2.3125 5 5 C5 5.99 5 6.98 5 8 C-0.94 8 -6.88 8 -13 8 C-12 3 -12 3 -10.4375 1.1875 C-6.95884704 -0.50722837 -3.74133516 -0.80753571 0 0 Z " fill="#FEFBF9" transform="translate(1171,917)"/>
<path d="M0 0 C1.65 0 3.3 0 5 0 C4.52572253 3.77146518 4.04474135 7.54204552 3.5625 11.3125 C3.42779297 12.38435547 3.29308594 13.45621094 3.15429688 14.56054688 C3.02216797 15.58857422 2.89003906 16.61660156 2.75390625 17.67578125 C2.63345947 18.62364502 2.5130127 19.57150879 2.38891602 20.5480957 C2 23 2 23 1 26 C-0.32 26 -1.64 26 -3 26 C-2.45520982 17.24034738 -1.45892001 8.65437017 0 0 Z " fill="#151516" transform="translate(1471,706)"/>
<path d="M0 0 C1.32 0 2.64 0 4 0 C2.07289294 17.85649203 2.07289294 17.85649203 0 26 C-1.32 26 -2.64 26 -4 26 C-3.46588214 17.14101063 -1.85710087 8.65479083 0 0 Z " fill="#111111" transform="translate(1437,763)"/>
<path d="M0 0 C3.31953394 0.4840987 4.76218351 0.94147392 7 3.4375 C7 5.0875 7 6.7375 7 8.4375 C2.05 8.4375 -2.9 8.4375 -8 8.4375 C-6.73787419 3.38899678 -5.36288102 0.78208682 0 0 Z " fill="#F1F2F2" transform="translate(1573,822.5625)"/>
<path d="M0 0 C3.3125 0.875 3.3125 0.875 5.3125 2.875 C5.3125 4.525 5.3125 6.175 5.3125 7.875 C0.3625 7.875 -4.5875 7.875 -9.6875 7.875 C-8.6875 3.875 -8.6875 3.875 -6.5625 1.5625 C-3.6875 -0.125 -3.6875 -0.125 0 0 Z " fill="#F3F3F3" transform="translate(1509.6875,766.125)"/>
<path d="M0 0 C2 2 2 2 2 7 C-2.95 7 -7.9 7 -13 7 C-10.01735741 -0.45660648 -7.90959988 -1.90416293 0 0 Z " fill="#F1F1F1" transform="translate(1569,710)"/>
<path d="M0 0 C2 2 2 2 2 7 C-2.95 7 -7.9 7 -13 7 C-9.98144114 -0.54639716 -7.32399577 -0.4650156 0 0 Z " fill="#F7F7F8" transform="translate(1447,710)"/>
<path d="M0 0 C1.32 0 2.64 0 4 0 C3.67 1.65 3.34 3.3 3 5 C1.68 5 0.36 5 -1 5 C-0.67 3.35 -0.34 1.7 0 0 Z " fill="#19191A" transform="translate(1439,753)"/>
<path d="M0 0 C2.0625 0.4375 2.0625 0.4375 4 1 C3.34 2.65 2.68 4.3 2 6 C1.01 6 0.02 6 -1 6 C-1.042721 4.33388095 -1.04063832 2.66617115 -1 1 C-0.67 0.67 -0.34 0.34 0 0 Z " fill="#181819" transform="translate(1474,696)"/>
<path d="M0 0 C1.32 0 2.64 0 4 0 C4 1.32 4 2.64 4 4 C1.69 4.66 -0.62 5.32 -3 6 C-2 4 -1 2 0 0 Z " fill="#040404" transform="translate(1439,820)"/>
<path d="M0 0 C1.32 0 2.64 0 4 0 C4 1.32 4 2.64 4 4 C2.02 4 0.04 4 -2 4 C-1.34 2.68 -0.68 1.36 0 0 Z " fill="#010101" transform="translate(1599,820)"/>
</svg>
